<svg width="14" height="14" viewBox="0 0 14 14" fill="none" xmlns="http://www.w3.org/2000/svg">
<path d="M6.84815 13.8357C7.79005 13.8357 8.67377 13.6586 9.49932 13.3044C10.3249 12.9503 11.0521 12.4564 11.6809 11.8228C12.3098 11.1891 12.8029 10.46 13.1603 9.6355C13.5176 8.81095 13.6963 7.93107 13.6963 6.99585C13.6963 6.06063 13.5176 5.18075 13.1603 4.3562C12.8029 3.53166 12.3084 2.80396 11.6768 2.1731C11.0451 1.54224 10.3166 1.04972 9.49101 0.695557C8.66546 0.34139 7.78174 0.164307 6.83984 0.164307C5.90348 0.164307 5.02253 0.34139 4.19699 0.695557C3.37144 1.04972 2.64424 1.54224 2.01538 2.1731C1.38653 2.80396 0.893418 3.53166 0.536051 4.3562C0.178684 5.18075 0 6.06063 0 6.99585C0 7.93107 0.178684 8.81095 0.536051 9.6355C0.893418 10.46 1.38791 11.1891 2.01954 11.8228C2.65117 12.4564 3.37975 12.9503 4.2053 13.3044C5.03084 13.6586 5.9118 13.8357 6.84815 13.8357Z" fill="#3C3C43" fill-opacity="0.18"/>
<path d="M6.85229 9.51929C6.54479 9.51929 6.26638 9.38924 6.01705 9.12915L3.50717 6.4397C3.37974 6.30135 3.31463 6.13949 3.31186 5.9541C3.30909 5.76872 3.36588 5.61515 3.48224 5.49341C3.62629 5.34953 3.79251 5.27759 3.98089 5.27759C4.16927 5.27759 4.32717 5.34676 4.45461 5.48511L6.84814 8.05005L9.24998 5.48511C9.37741 5.34676 9.53532 5.27897 9.7237 5.28174C9.91208 5.28451 10.0755 5.35506 10.214 5.49341C10.3359 5.60962 10.3955 5.7618 10.3927 5.94995C10.39 6.1381 10.3221 6.30135 10.1891 6.4397L7.68753 9.12915C7.43821 9.38924 7.15979 9.51929 6.85229 9.51929Z" fill="#3C3C43" fill-opacity="0.6"/>
</svg>
