<svg width="50" height="51" viewBox="0 0 50 51" fill="none" xmlns="http://www.w3.org/2000/svg">
<rect width="50" height="51" rx="25" fill="#EADDFF"/>
<path fill-rule="evenodd" clip-rule="evenodd" d="M32.5003 20.4C32.5003 24.625 29.1424 28.05 25.0003 28.05C20.8582 28.05 17.5003 24.625 17.5003 20.4C17.5003 16.175 20.8582 12.75 25.0003 12.75C29.1424 12.75 32.5003 16.175 32.5003 20.4ZM30.0003 20.4C30.0003 23.2167 27.7617 25.5 25.0003 25.5C22.2389 25.5 20.0003 23.2167 20.0003 20.4C20.0003 17.5833 22.2389 15.3 25.0003 15.3C27.7617 15.3 30.0003 17.5833 30.0003 20.4Z" fill="#21005D"/>
<path d="M25.0003 31.875C16.9073 31.875 10.0119 36.7562 7.38525 43.5949C8.02512 44.243 8.69918 44.856 9.40441 45.4309C11.3603 39.1523 17.4962 34.425 25.0003 34.425C32.5044 34.425 38.6403 39.1523 40.5962 45.4309C41.3014 44.856 41.9755 44.243 42.6154 43.5949C39.9887 36.7562 33.0933 31.875 25.0003 31.875Z" fill="#21005D"/>
</svg>
