<svg width="710" height="408" viewBox="0 0 710 408" fill="none" xmlns="http://www.w3.org/2000/svg">
<path d="M570.834 120.86L570.814 119.264C574.16 119.206 577.439 118.21 580.303 116.38L581.057 117.757C577.968 119.726 574.438 120.801 570.834 120.86ZM560.53 118.108C557.387 116.241 554.726 113.511 552.846 110.203L554.108 109.368C555.86 112.435 558.324 114.975 561.249 116.71L560.537 118.108H560.53ZM588.51 109.595L587.227 108.805C588.876 105.694 589.752 102.137 589.752 98.5282C589.752 98.089 589.738 97.6498 589.711 97.2106L591.191 97.1155C591.218 97.5839 591.232 98.0524 591.232 98.5282C591.232 102.415 590.295 106.243 588.517 109.603L588.51 109.595ZM549.798 99.2382C549.791 98.9966 549.791 98.7624 549.791 98.5208C549.791 94.8904 550.619 91.2745 552.194 88.0832L553.497 88.8298C552.038 91.7942 551.271 95.1465 551.271 98.5282C551.271 98.7551 551.271 98.9673 551.278 99.1869L549.798 99.2382ZM586.582 87.1243C584.742 84.116 582.204 81.664 579.231 80.0317L579.903 78.6117C583.1 80.3684 585.835 83.0108 587.817 86.246L586.582 87.1243ZM560.19 81.0125L559.396 79.6657C562.424 77.587 565.926 76.3939 569.524 76.2109L569.592 77.8066C566.252 77.9749 563.007 79.0802 560.19 81.0125Z" fill="#69649B"/>
<path d="M60.664 407.537C57.175 407.324 53.686 406.812 50.2988 405.999L50.6179 404.44C53.9304 405.231 57.3379 405.736 60.7455 405.941L60.664 407.537ZM71.1243 407.258L70.9682 405.67C74.3554 405.282 77.7358 404.594 81.0144 403.621L81.4081 405.158C78.0548 406.153 74.5929 406.856 71.1243 407.251V407.258ZM40.3001 402.662C37.0691 401.256 33.9195 399.558 30.9395 397.611L31.7066 396.25C34.6186 398.16 37.6936 399.822 40.85 401.19L40.3001 402.669V402.662ZM91.237 401.293L90.6193 399.844C93.7079 398.307 96.7013 396.484 99.5183 394.427L100.346 395.752C97.4616 397.86 94.4002 399.727 91.237 401.293ZM22.4614 390.987C19.8141 388.542 17.3365 385.849 15.0896 382.979L16.2232 381.947C18.4157 384.751 20.8391 387.386 23.4253 389.772L22.4614 390.987ZM108.506 388.689L107.487 387.532C109.958 385.014 112.259 382.255 114.33 379.334L115.504 380.301C113.393 383.287 111.038 386.112 108.506 388.689ZM9.00084 373.794C7.21561 370.573 5.66116 367.162 4.38503 363.671L5.76298 363.085C7.01197 366.496 8.52568 369.819 10.277 372.974L9.00763 373.794H9.00084ZM121.152 370.792L119.848 370.039C121.45 366.796 122.815 363.392 123.901 359.908L125.306 360.421C124.193 363.985 122.794 367.469 121.158 370.785L121.152 370.792ZM1.35759 352.874C0.631281 349.215 0.169699 345.452 0 341.683L1.47978 341.602C1.64948 345.277 2.09069 348.958 2.80343 352.53L1.35759 352.867V352.874ZM127.824 349.478L126.365 349.222C126.908 345.613 127.186 341.917 127.186 338.235C127.186 335.988 127.084 333.719 126.881 331.494L128.354 331.34C128.564 333.617 128.666 335.944 128.666 338.235C128.666 342.005 128.381 345.789 127.824 349.478ZM1.79881 330.586L0.325822 330.411C0.712736 326.67 1.39153 322.945 2.33506 319.336L3.76053 319.768C2.83737 323.289 2.17894 326.934 1.79881 330.586ZM125.048 320.639C124.165 317.096 123.011 313.605 121.606 310.26L122.957 309.601C124.396 313.027 125.584 316.599 126.48 320.222L125.048 320.632V320.639ZM7.33779 309.433L6.00056 308.752C7.48034 305.356 9.23163 302.062 11.2069 298.959L12.4288 299.859C10.501 302.889 8.78363 306.103 7.33779 309.426V309.433ZM116.644 300.628C114.757 297.575 112.619 294.669 110.298 291.983L111.377 290.893C113.753 293.637 115.938 296.616 117.873 299.742L116.644 300.628ZM18.8841 291.317L17.8184 290.212C20.2349 287.496 22.8619 284.978 25.6449 282.724L26.5342 283.998C23.819 286.201 21.2463 288.66 18.8841 291.317ZM102.743 284.554C100.048 282.307 97.1629 280.279 94.1762 278.537L94.8822 277.132C97.9435 278.918 100.896 280.989 103.652 283.288L102.749 284.547L102.743 284.554ZM35.1684 278.105L34.4829 276.693C37.5714 274.951 40.816 273.472 44.1218 272.294L44.5834 273.809C41.3523 274.958 38.1891 276.4 35.1684 278.105ZM84.8088 274.102C81.5981 272.909 78.2652 271.986 74.9052 271.371L75.1563 269.798C78.5911 270.427 82.0054 271.371 85.2976 272.594L84.8156 274.102H84.8088ZM54.5209 271.225L54.2901 269.651C57.5755 269.102 60.9288 268.817 64.2684 268.817H64.73L64.7165 270.413H64.2956C61.0645 270.383 57.7384 270.683 54.5209 271.225Z" fill="#69649B"/>
<path d="M681.62 366.942C678.036 366.65 674.615 365.588 671.452 363.773L672.144 362.368C675.124 364.073 678.348 365.083 681.729 365.354L681.62 366.95V366.942ZM692.114 365.464L691.626 363.956C694.809 362.756 697.687 360.889 700.172 358.401L701.176 359.572C698.536 362.207 695.488 364.19 692.114 365.464ZM663.306 356.475C661.066 353.445 659.464 350.012 658.548 346.279L659.98 345.87C660.849 349.39 662.356 352.618 664.467 355.48L663.306 356.475ZM707.313 350.269L705.955 349.632C707.306 346.301 707.992 342.759 707.992 339.092H709.471C709.471 342.978 708.745 346.733 707.313 350.269ZM707.849 336.222C707.489 332.599 706.451 329.159 704.76 325.99L706.043 325.192C707.835 328.552 708.935 332.204 709.315 336.047L707.842 336.215L707.849 336.222ZM659.437 335.124L657.978 334.883C658.514 331.062 659.756 327.461 661.677 324.189L662.926 325.045C661.114 328.134 659.946 331.523 659.437 335.124ZM698.129 317.953C695.413 315.772 692.366 314.249 689.073 313.437L689.406 311.885C692.895 312.749 696.133 314.359 699.018 316.679L698.135 317.96L698.129 317.953ZM669.864 317.301L669.029 315.984C672.002 313.803 675.294 312.339 678.817 311.636L679.088 313.202C675.769 313.869 672.667 315.245 669.864 317.301Z" fill="#69649B"/>
<path d="M569.483 9.57394C569.483 14.8586 565.505 19.1479 560.604 19.1479C555.704 19.1479 551.726 14.8586 551.726 9.57394C551.726 4.28924 555.704 0 560.604 0C565.505 0 569.483 4.28924 569.483 9.57394Z" fill="#69649B"/>
<path d="M73.174 244.882C73.174 249.728 69.5289 253.658 65.0353 253.658C60.5416 253.658 56.8965 249.728 56.8965 244.882C56.8965 240.036 60.5416 236.106 65.0353 236.106C69.5289 236.106 73.174 240.036 73.174 244.882Z" fill="#69649B"/>
<path d="M662.539 313.766C665.808 313.766 668.458 310.909 668.458 307.383C668.458 303.858 665.808 301.001 662.539 301.001C659.27 301.001 656.62 303.858 656.62 307.383C656.62 310.909 659.27 313.766 662.539 313.766Z" fill="#69649B"/>
<path d="M233.574 16.7544C233.574 19.8359 231.252 22.3392 228.395 22.3392C225.537 22.3392 223.215 19.8359 223.215 16.7544C223.215 13.6728 225.537 11.1696 228.395 11.1696C231.252 11.1696 233.574 13.6728 233.574 16.7544Z" fill="#69649B"/>
</svg>
