<svg width="11" height="14" viewBox="0 0 11 14" fill="none" xmlns="http://www.w3.org/2000/svg">
<path fill-rule="evenodd" clip-rule="evenodd" d="M6.94755 12.7375C6.76688 11.1948 7.28951 10.0328 7.75407 9.35006C8.21863 8.66733 9.24452 7.69575 9.83813 5.89701C10.4317 4.09827 9.61875 4.24926 8.87029 5.05015C8.12184 5.85105 6.94109 6.71104 6.94109 6.71104C6.94109 6.71104 5.99907 3.2186 5.73452 1.74153C5.47644 0.264462 4.5086 -0.300107 4.0763 0.448274C3.644 1.19665 3.91499 1.38047 3.57303 1.30169C3.23106 1.22292 2.87619 1.21635 2.65036 1.78092L2.42453 2.34548C2.42453 2.34548 1.77931 2.01068 1.43734 2.45708C1.09538 2.89692 1.08892 3.78316 1.08892 3.78316C1.08892 3.78316 0.179163 3.665 0.0888324 4.08515C-0.00149868 4.50529 0.340467 7.37408 0.934072 8.88397C1.52768 10.3939 2.70844 12.5602 2.76006 13.65C2.81168 14.7397 6.954 12.744 6.954 12.744L6.94755 12.7375Z" fill="#F4AC83"/>
<path fill-rule="evenodd" clip-rule="evenodd" d="M6.94751 12.7375C6.81201 11.5559 7.08946 10.5908 7.43142 9.90154C5.66997 11.1226 3.59879 10.6959 2.17931 9.06781C1.68894 8.49668 1.03728 7.69578 0.37915 6.86206C0.521099 7.59075 0.701759 8.33256 0.921135 8.884C1.51474 10.3939 2.69549 12.5603 2.7471 13.65C2.79872 14.7398 6.94105 12.7441 6.94105 12.7441L6.94751 12.7375Z" fill="#EC7862"/>
</svg>
