<svg width="117" height="156" viewBox="0 0 117 156" fill="none" xmlns="http://www.w3.org/2000/svg">
<path fill-rule="evenodd" clip-rule="evenodd" d="M64.6074 136.993C50.4964 134.663 30.572 128.899 11.196 114.844C-16.2711 94.9262 41.5085 101.708 88.5581 117.785L70.3757 134.229L64.6074 136.993Z" fill="#E59A24"/>
<path fill-rule="evenodd" clip-rule="evenodd" d="M17.0481 98.8913C26.3457 107.924 50.6577 125.945 74.2406 145.133L100.095 155.44L105.179 139.343C87.1063 109.69 62.9686 79.3152 41.8956 63.8159C4.93083 36.6247 -15.5872 67.1901 17.0481 98.8978V98.8913Z" fill="#E59A24"/>
<path fill-rule="evenodd" clip-rule="evenodd" d="M100.346 154.639C70.6533 106.237 14.4867 67.0194 14.2802 66.875C13.8802 66.5927 13.3511 66.7109 13.1059 67.1442C12.8543 67.5774 12.9769 68.1551 13.3833 68.4374C13.5834 68.5818 68.8531 107.176 98.4107 154.77L100.095 155.44L100.346 154.646V154.639Z" fill="white"/>
<path fill-rule="evenodd" clip-rule="evenodd" d="M75.757 37.2484C80.2154 50.1612 86.7386 80.4772 94.5394 111.85C90.5906 124.533 82.4608 135.326 71.834 142.58C53.471 112.841 37.4888 78.7178 31.9399 51.9731C21.0744 -0.380745 58.7876 -11.915 75.757 37.2484Z" fill="#FBC351"/>
<path fill-rule="evenodd" clip-rule="evenodd" d="M83.0738 132.529C57.3876 82.4466 46.2704 22.0773 46.2252 21.8278C46.122 21.2632 46.4511 20.7118 46.9672 20.5936C47.4834 20.4755 47.9867 20.8365 48.0899 21.4011C48.1415 21.6505 59.1232 81.3175 84.4095 130.921C83.9707 131.466 83.532 132.004 83.0738 132.529Z" fill="white"/>
<path fill-rule="evenodd" clip-rule="evenodd" d="M73.3049 37.6751C73.363 50.7586 77.4989 81.068 80.2927 111.66L90.9453 137.748L105.869 130.297C114.302 96.482 119.038 57.7172 115.38 31.5239C108.96 -14.4227 73.092 -8.2322 73.3114 37.6751H73.3049Z" fill="#F8B218"/>
<path fill-rule="evenodd" clip-rule="evenodd" d="M91.6745 137.38C105.308 82.0396 94.0683 13.6744 94.0296 13.4249C93.9521 12.9326 93.5005 12.6306 93.023 12.7487C92.5455 12.8669 92.2229 13.3527 92.3003 13.8451C92.339 14.0945 103.398 81.3634 90.2421 136.048L90.9389 137.748L91.6745 137.38Z" fill="white"/>
</svg>
