<svg width="247" height="244" viewBox="0 0 247 244" fill="none" xmlns="http://www.w3.org/2000/svg">
<path fill-rule="evenodd" clip-rule="evenodd" d="M37.7068 197.153C55.1179 206.941 98.2897 224.12 141.016 243.366H185.425L186.582 222.861C147.803 185.548 99.5757 149.563 61.7262 134.671C-4.66371 108.544 -23.8753 162.537 37.7068 197.163V197.153Z" fill="#E59A24"/>
<path fill-rule="evenodd" clip-rule="evenodd" d="M180.488 243.366C116.799 185.158 21.5122 150.352 21.1561 150.222C20.4438 149.962 19.6919 150.352 19.4743 151.091C19.2665 151.84 19.6722 152.649 20.3844 152.919C20.7307 153.048 113.376 186.886 176.501 243.366H180.488Z" fill="white"/>
<path fill-rule="evenodd" clip-rule="evenodd" d="M57.0371 243.366C65.1491 232.28 101.079 227.695 153.066 243.366H57.0371Z" fill="#0D2E35"/>
<path fill-rule="evenodd" clip-rule="evenodd" d="M164.037 243.366C150.236 231.65 136.06 216.529 126.563 198.362C102.059 151.49 94.4512 136.719 82.5008 132.764C72.1926 129.348 161.365 90.5663 245.701 181.603C242.753 202.477 231.416 224.879 202.796 243.366H164.027H164.037Z" fill="#F8B218"/>
<path fill-rule="evenodd" clip-rule="evenodd" d="M94.2929 125.383C142.787 143.311 191.222 180.734 230.832 217.788C230.139 218.726 229.417 219.655 228.675 220.584C188.086 182.592 138.226 144.219 88.7134 127.261C90.3259 126.621 92.1956 125.992 94.2929 125.393V125.383Z" fill="white"/>
<path fill-rule="evenodd" clip-rule="evenodd" d="M162.484 32.369C176.729 46.791 202.292 79.1506 231.545 115.206C231.545 115.206 261.302 163.366 236.956 208.18C183.694 174.062 131.114 131.056 101.258 91.7749C42.3268 14.2516 95.9157 -35.0169 162.494 32.359L162.484 32.369Z" fill="#FBC351"/>
<path fill-rule="evenodd" clip-rule="evenodd" d="M245.8 180.954C165.56 119.161 101.683 31.0307 101.416 30.6611C100.803 29.8222 100.922 28.6437 101.683 28.0344C102.445 27.4252 103.563 27.615 104.176 28.4639C104.443 28.8334 167.282 115.535 246.235 176.829C246.127 178.197 245.978 179.575 245.8 180.964V180.954Z" fill="white"/>
<path fill-rule="evenodd" clip-rule="evenodd" d="M206.674 240.749C196.544 228.554 183.268 214.911 167.41 203.805C128.908 176.829 90.6428 191.97 86.9825 206.572C85.4887 212.524 86.8143 226.577 93.6007 243.376H202.767C204.102 242.507 205.398 241.638 206.664 240.759L206.674 240.749Z" fill="#FBC351"/>
<path fill-rule="evenodd" clip-rule="evenodd" d="M178.362 243.366C174.939 234.716 168.766 219.875 163.73 211.845C163.305 211.156 162.612 210.906 162.187 211.286C161.762 211.665 161.771 212.524 162.197 213.213C166.945 220.794 172.802 234.796 176.205 243.376H178.352L178.362 243.366ZM173.633 243.366H164.789C161.92 241.638 158.992 239.94 155.994 238.282C154.738 239.301 152.69 241.029 150.177 243.366H146.022C148.951 240.479 151.473 238.252 153.234 236.764C142.916 231.191 131.866 226.077 120.183 221.793C117.126 223.55 110.715 227.765 106.115 234.377C105.779 234.866 105.096 234.766 104.602 234.157C104.107 233.548 103.978 232.649 104.315 232.16C108.133 226.677 113.149 222.781 116.621 220.514C109.142 217.907 101.416 215.63 93.4425 213.803C92.2455 213.533 91.1573 212.055 91.0089 210.507C90.8704 208.959 91.7212 207.93 92.9182 208.2C109.281 211.955 124.674 217.528 138.929 224.14C130.501 206.701 122.577 196.085 122.557 196.055C122.082 195.416 121.993 194.527 122.369 194.077C122.745 193.628 123.427 193.778 123.902 194.417C123.932 194.457 132.756 206.282 141.768 225.478C153.165 230.921 163.809 237.024 173.613 243.366H173.633Z" fill="white"/>
</svg>
