<svg width="111" height="307" viewBox="0 0 111 307" fill="none" xmlns="http://www.w3.org/2000/svg">
<g opacity="0.06">
<path d="M4.23169 299.479C4.23169 303.307 27.4912 306.411 56.1845 306.411C84.8779 306.411 108.137 303.307 108.137 299.479C108.137 295.651 84.8779 292.546 56.1845 292.546C27.4912 292.546 4.23169 295.651 4.23169 299.479Z" fill="black"/>
</g>
<path d="M7.73438 102.593L19.8611 299.049H92.508L104.635 102.593H7.73438Z" fill="#6E4945"/>
<path d="M8.53902 115.682L103.451 121.744L104.133 110.721H8.23608L8.53902 115.682Z" fill="#3D2027"/>
<path d="M108.251 98.5343H4.11813C2.90517 98.5343 1.92188 99.6237 1.92188 100.968V108.288C1.92188 109.632 2.90517 110.721 4.11813 110.721H108.251C109.464 110.721 110.447 109.632 110.447 108.288V100.968C110.447 99.6237 109.464 98.5343 108.251 98.5343Z" fill="#8C5D55"/>
<path d="M18.5925 133.102L20.9687 179.604H91.4004L93.7765 133.102H18.5925Z" fill="#3D2027"/>
<path d="M52.6724 158.272C52.6724 160.422 54.2438 162.163 56.1845 162.163C58.1251 162.163 59.6966 160.422 59.6966 158.272C59.6966 156.122 58.1251 154.381 56.1845 154.381C54.2438 154.381 52.6724 156.122 52.6724 158.272Z" fill="#6E4945"/>
<path d="M21.906 190.501L24.0739 232.903H88.2955L90.4633 190.501H21.906Z" fill="#3D2027"/>
<path d="M52.6724 213.238C52.6724 215.388 54.2438 217.129 56.1845 217.129C58.1251 217.129 59.6966 215.388 59.6966 213.238C59.6966 211.088 58.1251 209.347 56.1845 209.347C54.2438 209.347 52.6724 211.088 52.6724 213.238Z" fill="#6E4945"/>
<path d="M24.7649 243.611L26.7529 282.478H85.6069L87.6044 243.611H24.7649Z" fill="#3D2027"/>
<path d="M52.6724 263.044C52.6724 265.194 54.2438 266.935 56.1845 266.935C58.1251 266.935 59.6966 265.194 59.6966 263.044C59.6966 260.894 58.1251 259.154 56.1845 259.154C54.2438 259.154 52.6724 260.894 52.6724 263.044Z" fill="#6E4945"/>
<path d="M25.115 29.3889C26.1847 35.8913 27.4154 40.9254 27.4154 40.9254C27.4154 40.9254 30.3595 48.2039 32.9912 50.3539C34.8277 51.8536 36.5033 50.8468 36.9104 43.1068C36.9767 41.8483 37.0145 40.4115 37.0051 38.7859C37.0051 38.7859 37.4216 35.0733 37.6204 29.9658C38.0559 18.8593 37.4689 1.17701 29.3655 0.851888C21.7165 0.547745 23.1554 17.4434 25.115 29.3784V29.3889Z" fill="#5C4DA0"/>
<path d="M37.6109 29.9657C36.437 32.5772 34.4774 35.4298 31.6469 35.1886C28.7123 34.9369 26.4781 31.9165 25.1055 29.3889C26.1752 35.8913 27.4059 40.9254 27.4059 40.9254C27.4059 40.9254 30.35 48.2039 32.9817 50.3538C34.591 49.2317 35.9164 46.6097 36.9009 43.1068L37.6109 29.9657Z" fill="#3E3D98"/>
<path d="M32.6219 48.6024C32.868 48.6024 33.0763 48.3926 33.0858 48.12C33.5402 40.401 31.2019 15.3878 31.0978 14.3181C31.0694 14.0349 30.8422 13.8252 30.5866 13.8566C30.331 13.8881 30.1417 14.1398 30.1701 14.423C30.1985 14.6852 32.603 40.422 32.1581 48.0465C32.1391 48.3297 32.3379 48.5814 32.5935 48.6024H32.6219Z" fill="white"/>
<path d="M30.7099 63.5579H40.4889C40.4889 63.5579 49.397 62.8237 46.6138 54.4965C43.8306 46.1588 47.409 44.1871 51.7069 38.702C56.0047 33.2169 62.442 21.5966 55.2853 18.0202C48.1285 14.4439 40.9717 23.0648 38.0939 32.273C37.204 35.1152 36.9105 37.7686 36.5981 40.3381C36.4277 41.7225 36.2573 43.0754 35.9733 44.4178C35.4811 46.788 34.6575 49.1373 32.9913 51.5285C32.944 51.5914 32.9061 51.6543 32.8588 51.7172C28.3243 58.0623 30.7099 63.5683 30.7099 63.5683V63.5579Z" fill="#5C4DA0"/>
<path d="M30.7098 63.5579H39.2487C40.8391 55.1572 38.0843 48.2563 35.9638 44.4073C35.4715 46.7775 34.6479 49.1268 32.9818 51.518C32.9345 51.5809 32.8966 51.6438 32.8493 51.7068C28.3148 58.0518 30.7004 63.5579 30.7004 63.5579H30.7098Z" fill="#3E3D98"/>
<path d="M37.7151 63.3376C37.9707 63.3376 38.179 63.1174 38.179 62.8342C38.6428 44.1975 49.8986 28.057 50.0122 27.8892C50.1732 27.6584 50.1353 27.3333 49.9365 27.1655C49.7377 26.9872 49.4348 27.0292 49.2833 27.2494C49.1697 27.4172 37.734 43.82 37.2512 62.8027C37.2512 63.0859 37.45 63.3271 37.7056 63.3376H37.7151Z" fill="white"/>
<path d="M8.03723 38.6915C15.4307 45.3617 19.2552 46.0853 18.2991 52.4619C17.9867 54.5699 17.7216 56.615 17.7216 58.4399C17.7216 62.1315 18.8387 64.8898 22.8336 65.3303C28.7976 65.991 33.8054 63.5579 33.8054 63.5579C33.8054 63.5579 35.5851 58.8489 35.8502 53.2904C36.1058 48.12 35.055 42.2259 30.0755 38.6915C19.7285 31.3606 21.6408 2.38309 8.03723 5.10989C-5.56631 7.83669 0.643795 32.0213 8.03723 38.6915Z" fill="#5C4DA0"/>
<path d="M17.7216 58.4399C17.7216 62.1315 18.8387 64.8898 22.8336 65.3303C28.7976 65.991 33.8054 63.5579 33.8054 63.5579C33.8054 63.5579 35.5852 58.8489 35.8502 53.2904C33.5404 54.8845 26.3741 59.2159 17.7122 58.4399H17.7216Z" fill="#3E3D98"/>
<path d="M28.0212 62.3727C28.2579 62.3727 28.4567 62.184 28.4851 61.9113C28.504 61.7645 29.9618 47.2705 21.4229 38.4713C13.1586 29.9553 9.90206 15.9961 9.8642 15.8598C9.79793 15.5766 9.54233 15.4088 9.2962 15.4822C9.05007 15.5556 8.88913 15.8388 8.9554 16.1115C8.9838 16.2583 12.3066 30.5006 20.7792 39.2264C28.9773 47.669 27.5668 61.6386 27.5479 61.7854C27.5195 62.0686 27.6993 62.3308 27.9549 62.3623C27.9739 62.3623 27.9928 62.3623 28.0117 62.3623L28.0212 62.3727Z" fill="white"/>
<path d="M18.6494 98.7126L16.2638 76.1116L16.1502 75.0629L15.8189 71.9585L15.7148 70.9097L15.3929 67.8893L15.2793 66.83L14.6072 60.485H48.6965L48.0244 66.83L47.9108 67.8893L47.5889 70.9097L47.4753 71.9585L47.1535 75.0629L47.0398 76.1116L44.6448 98.7126H18.6494Z" fill="#FBB416"/>
<path d="M15.2793 66.83L15.3929 67.8893H47.9108L48.0244 66.83H15.2793Z" fill="#F8A81B"/>
<path d="M15.7148 70.9097L15.819 71.9585H47.4754L47.589 70.9097H15.7148Z" fill="#F8A81B"/>
<path d="M16.1501 75.0629L16.2637 76.1116H47.0398L47.1534 75.0629H16.1501Z" fill="#F8A81B"/>
<path d="M69.0591 62.551L69.3052 65.7288L69.4377 67.3544L69.5608 68.8961L69.7312 71.067L69.8069 72.0844L70.1667 76.636L70.5643 81.5757L70.5737 81.8064L70.8199 84.9423L70.9429 86.4735L71.0187 87.4698L71.4163 92.5144L71.9085 98.7756H87.6137L87.7273 97.3387L88.2006 91.2559L88.4941 87.5852L88.5793 86.4735L88.7023 84.9423L88.9674 81.5757L88.9769 81.4708L89.2609 77.8106L89.7153 72.0844L89.7437 71.6753L89.9614 68.8961L90.0277 68.0361L90.0845 67.3544L90.4631 62.551H69.0591Z" fill="#4A429A"/>
<path d="M69.4377 67.3544L69.5608 68.8961H89.9614L90.0277 68.0361L90.0845 67.3544H69.4377Z" fill="#3E3D98"/>
<path d="M70.8198 84.9423L70.9429 86.4735H88.5792L88.7023 84.9423H70.8198Z" fill="#3E3D98"/>
<path d="M69.8069 72.0844L70.1666 76.636L70.5642 81.5757H88.9673L88.9768 81.4709L89.2608 77.8106L89.7057 72.0844H69.8069Z" fill="white"/>
<path d="M91.5612 57.926H67.9609V62.5615H91.5612V57.926Z" fill="#4A429A"/>
<path d="M69.7407 57.926H89.791V55.5452C89.791 54.6853 89.1662 53.9931 88.39 53.9931H71.1418C70.3655 53.9931 69.7407 54.6853 69.7407 55.5452V57.926Z" fill="#3E3D98"/>
</svg>
