<svg width="63" height="79" viewBox="0 0 63 79" fill="none" xmlns="http://www.w3.org/2000/svg">
<path d="M8.92505 48.641L55.0198 33.8242L60.3854 54.3112C61.6885 59.2869 59.1005 64.4978 54.6093 65.9415L24.7977 75.5243C20.3064 76.968 15.6028 74.1009 14.2997 69.1252L8.93415 48.6381L8.92505 48.641Z" fill="#FBB416"/>
<path d="M18.3013 52.3587L49.6831 42.5317" stroke="white" stroke-linecap="round" stroke-linejoin="round"/>
<path d="M46.4834 49.5166L50.9516 48.1217" stroke="white" stroke-linecap="round" stroke-linejoin="round"/>
<path d="M19.5603 57.9487L41.3998 51.1107" stroke="white" stroke-linecap="round" stroke-linejoin="round"/>
<path d="M21.6145 64.5874L34.8583 60.1825" stroke="white" stroke-linecap="round" stroke-linejoin="round"/>
<path d="M54.3483 24.5251L4.99878 40.3882L7.29642 49.1612L56.646 33.2981L54.3483 24.5251Z" fill="#F8A81B"/>
<path d="M7.30103 49.118C8.30449 45.741 9.33634 41.9969 10.3398 38.6198L13.975 37.4452C12.7159 41.0006 11.8734 44.2098 11.0498 47.9119C11.0498 47.9119 8.39913 48.7824 7.31047 49.1075L7.30103 49.118Z" fill="white"/>
<path d="M15.9819 46.3073C16.9854 42.9303 17.9983 39.2281 19.0018 35.8511L22.5897 34.687C21.3306 38.2423 20.4313 41.441 19.6077 45.1537L15.9819 46.3073Z" fill="white"/>
<path d="M25.9597 43.14C26.9632 39.763 27.995 36.0084 28.9985 32.6314L32.8798 31.3624C31.6302 34.9177 30.6268 38.1689 29.8032 41.871L25.9597 43.14Z" fill="white"/>
<path d="M35.8901 39.9413C36.8936 36.5642 37.9444 32.7467 38.9479 29.3697C38.9479 29.3697 42.5357 28.3419 42.5641 28.237C41.3051 31.7923 40.33 35.054 39.5064 38.7562C39.5064 38.7562 35.8996 39.8888 35.8996 39.9308L35.8901 39.9413Z" fill="white"/>
<path d="M45.4895 36.8369C46.493 33.4599 47.5343 29.7158 48.5378 26.3387L52.1445 25.1746L49.0679 35.6833L45.4895 36.8474V36.8369Z" fill="white"/>
<path d="M42.7142 0.829569L0.386963 33.1063L5.06197 40.6309L47.3892 8.35417L42.7142 0.829569Z" fill="#F8A81B"/>
<path d="M5.05752 40.623C5.05752 37.0676 4.96284 33.1557 4.95337 29.6004L8.0679 27.2197C7.88803 31.0267 7.99216 34.3723 8.26669 38.1793C8.26669 38.1793 6.00418 39.9308 5.05752 40.623Z" fill="white"/>
<path d="M12.4984 34.9281C12.4984 31.3728 12.4038 27.5028 12.3943 23.9475L15.4709 21.5878C15.2911 25.3948 15.3479 28.7509 15.6129 32.5579L12.4984 34.9281Z" fill="white"/>
<path d="M21.0655 28.4363C21.0655 24.8809 20.9709 20.9585 20.9614 17.4032L24.2842 14.8442C24.1044 18.6512 24.0759 22.0912 24.3505 25.8878L21.0561 28.4363H21.0655Z" fill="white"/>
<path d="M29.5856 21.9339C29.5856 18.3786 29.4909 14.3932 29.4814 10.8379C29.4814 10.8379 32.5865 8.60402 32.5865 8.49915C32.4066 12.3062 32.3972 15.7462 32.6717 19.5532C32.6717 19.5532 29.5666 21.8815 29.5856 21.9339Z" fill="white"/>
<path d="M37.8215 15.6413C37.8215 12.0859 37.7363 8.17403 37.7268 4.60821L40.8224 2.23798L40.8887 13.2815L37.8215 15.6308V15.6413Z" fill="white"/>
<path d="M18.0173 70.1354C19.7497 72.2119 22.514 73.1558 25.0037 72.5266" stroke="white" stroke-linecap="round" stroke-linejoin="round"/>
<path d="M30.1724 70.2298L42.034 66.4018" stroke="white" stroke-linecap="round" stroke-linejoin="round"/>
</svg>
