<svg width="179" height="237" viewBox="0 0 179 237" fill="none" xmlns="http://www.w3.org/2000/svg">
<path fill-rule="evenodd" clip-rule="evenodd" d="M98.6265 208.42C76.9911 204.874 46.4425 196.105 16.7347 174.722C-25.3786 144.42 63.2106 154.737 135.348 179.196L107.471 204.215L98.6265 208.42Z" fill="#E59A24"/>
<path fill-rule="evenodd" clip-rule="evenodd" d="M25.7076 150.452C39.963 164.195 77.2387 191.611 113.397 220.804L153.037 236.485L160.832 211.995C133.123 166.882 96.114 120.669 63.8044 97.0887C7.12908 55.7204 -24.3297 102.222 25.7076 150.462V150.452Z" fill="#E59A24"/>
<path fill-rule="evenodd" clip-rule="evenodd" d="M153.422 235.266C107.896 161.628 21.7801 101.963 21.4635 101.743C20.8502 101.314 20.039 101.493 19.6631 102.152C19.2773 102.812 19.4652 103.691 20.0885 104.12C20.3951 104.34 105.136 163.056 150.455 235.466L153.037 236.485L153.422 235.276V235.266Z" fill="white"/>
<path fill-rule="evenodd" clip-rule="evenodd" d="M115.721 56.6693C122.557 76.3148 132.559 122.437 144.519 170.168C138.465 189.464 126 205.883 109.706 216.919C81.5518 171.676 57.0475 119.761 48.5398 79.0713C31.8805 -0.579281 89.7034 -18.1274 115.721 56.6693Z" fill="#FBC351"/>
<path fill-rule="evenodd" clip-rule="evenodd" d="M126.939 201.628C87.5565 125.433 70.5114 33.5881 70.4421 33.2085C70.2838 32.3496 70.7884 31.5107 71.5798 31.3309C72.3712 31.1511 73.1428 31.7004 73.3011 32.5594C73.3803 32.9389 90.2176 123.716 128.987 199.181C128.314 200.01 127.642 200.829 126.939 201.628Z" fill="white"/>
<path fill-rule="evenodd" clip-rule="evenodd" d="M111.962 57.3184C112.051 77.2235 118.392 123.336 122.676 169.878L139.009 209.568L161.89 198.233C174.82 146.787 182.081 87.8103 176.472 47.96C166.629 -21.9427 111.635 -12.5245 111.972 57.3184H111.962Z" fill="#F8B218"/>
<path fill-rule="evenodd" clip-rule="evenodd" d="M140.126 209.009C161.03 124.814 143.797 20.804 143.737 20.4245C143.619 19.6754 142.926 19.216 142.194 19.3958C141.462 19.5755 140.967 20.3146 141.086 21.0637C141.145 21.4432 158.101 123.785 137.93 206.982L138.999 209.568L140.126 209.009Z" fill="white"/>
</svg>
