<svg width="283" height="412" viewBox="0 0 283 412" fill="none" xmlns="http://www.w3.org/2000/svg">
<path d="M83.0916 37.3671C82.3856 32.463 78.2857 28.6934 73.8192 27.515C69.3527 26.3292 64.6147 27.3247 60.284 28.9862C55.4238 30.8527 50.7673 33.6341 47.2579 37.7257C43.7485 41.81 41.4813 47.2997 41.7529 52.8625C42.0108 58.074 44.4205 63.3001 43.0765 68.314C42.0515 72.1202 39.0648 74.9016 36.0713 77.1926C33.0778 79.4909 29.8332 81.6429 27.8172 84.9586C25.8011 88.2743 25.4685 93.2077 28.1905 95.8647C30.6138 98.2362 34.9649 98.4997 35.9831 101.852C36.6144 103.931 35.5419 106.105 34.9513 108.191C33.7023 112.619 34.6662 117.552 36.9334 121.483C39.1938 125.414 42.6421 128.422 46.3823 130.698C52.9326 134.687 61.0985 136.554 68.0223 133.37C71.4502 131.796 74.3622 129.066 76.548 125.816C80.1863 120.407 81.8154 113.666 82.1956 106.998C82.5757 100.33 81.7883 93.6542 80.9941 87.0227" fill="#101010"/>
<path d="M85.4945 116.718C79.7926 118.416 73.3779 117.04 68.7146 113.117C64.0513 109.194 61.2478 102.826 61.3768 96.4502C61.499 90.4995 63.997 84.4316 62.2796 78.7663C61.0985 74.8796 58.0779 71.8493 57.0665 67.9114C55.5527 62.0265 58.8517 56.0831 62.0013 51.0106C64.0241 47.7534 66.0877 44.4523 68.9047 41.9783C71.7217 39.5043 75.4551 37.9453 79.0052 38.7577" fill="#101010"/>
<path d="M136.201 39.4604C135.895 43.9473 138.644 47.9511 141.407 51.3181C144.176 54.6851 147.258 58.1911 147.856 62.6414C148.914 70.5318 141.753 77.8587 143.233 85.6686C144.027 89.8554 147.204 93.215 147.767 97.4457C148.317 101.537 146.281 105.541 143.762 108.652C141.244 111.763 138.169 114.361 135.943 117.721C135.943 117.721 131.3 125.933 117.018 120.678" fill="#101010"/>
<path d="M72.2648 46.3262C72.1562 42.2565 75.6452 39.1164 79.1614 37.6233C82.6707 36.1301 86.5806 35.5738 89.7099 33.2974C92.4794 31.2845 94.3461 28.1445 96.6947 25.5826C102.451 19.2878 111.438 16.6821 119.346 19.0097C127.254 21.3373 133.771 28.5031 135.766 37.0816C137.117 42.8787 136.194 49.7224 131.958 53.5725C127.044 58.0374 119.753 57.0493 113.454 55.6586C107.155 54.2679 100.028 52.8991 94.7669 56.8882C91.5969 59.2964 89.7778 63.205 87.8364 66.8282C85.895 70.4513 83.4649 74.1477 79.7994 75.5091C76.1339 76.8705 71.1584 74.521 71.009 70.3415" fill="#101010"/>
<path d="M87.144 47.1606C83.8857 47.5412 81.4353 50.5422 81.51 54.0775L85.2773 146.018C85.4334 156.873 100.156 162.977 110.936 162.707C121.824 162.436 122.177 156.675 122.312 146.347C122.543 129.088 122.523 122.61 122.53 122.705C122.53 122.705 136.282 120.209 139.092 100.849C140.491 91.2168 140.009 75.4359 139.228 62.5389C138.529 50.9301 131.361 36.701 120.636 37.9453L87.1508 47.1532L87.144 47.1606Z" fill="#AA6551"/>
<path d="M136.044 75.2821C136.092 76.5923 135.101 77.7122 133.832 77.7927C132.562 77.8659 131.496 76.8705 131.456 75.5603C131.408 74.2501 132.399 73.1229 133.669 73.0497C134.938 72.9765 136.004 73.972 136.051 75.2821H136.044Z" fill="#101010"/>
<path d="M136.635 68.6653C136.35 68.9874 134.605 67.604 132.128 67.6186C129.65 67.5967 127.838 68.9727 127.566 68.6434C127.437 68.497 127.722 67.9114 128.516 67.2893C129.297 66.6671 130.621 66.0669 132.168 66.0669C133.709 66.0669 135.013 66.6817 135.759 67.3039C136.519 67.9334 136.784 68.5189 136.642 68.6653H136.635Z" fill="#101010"/>
<path d="M113.033 75.7507C113.081 77.0608 112.09 78.1807 110.82 78.2612C109.551 78.3344 108.485 77.339 108.445 76.0288C108.397 74.7186 109.388 73.5914 110.657 73.5182C111.927 73.445 112.992 74.4405 113.04 75.7507H113.033Z" fill="#101010"/>
<path d="M111.716 69.9902C111.431 70.3122 109.68 68.9288 107.209 68.9435C104.732 68.9215 102.919 70.2976 102.648 69.9682C102.519 69.8218 102.804 69.2363 103.598 68.6141C104.379 67.9919 105.702 67.3917 107.243 67.3917C108.784 67.3917 110.087 68.0066 110.834 68.6287C111.594 69.2582 111.859 69.8438 111.716 69.9902Z" fill="#101010"/>
<path d="M120.744 91.0997C120.731 90.946 122.272 90.6605 124.763 90.3092C125.394 90.236 125.991 90.0969 126.1 89.6358C126.249 89.1453 125.985 88.4061 125.672 87.6156C125.075 85.9687 124.451 84.2413 123.792 82.426C121.179 75.0406 119.285 68.9581 119.563 68.8483C119.842 68.7385 122.183 74.6381 124.797 82.0235C125.428 83.846 126.025 85.5807 126.602 87.2423C126.847 88.0181 127.254 88.8965 126.935 89.9212C126.765 90.4336 126.304 90.7996 125.896 90.924C125.489 91.0557 125.136 91.0704 124.824 91.085C122.312 91.2387 120.758 91.2534 120.744 91.0997Z" fill="#263238"/>
<path d="M122.523 122.705C122.523 122.705 110.447 123.576 98.4663 115.847C98.4663 115.847 104.555 129.139 122.523 127.287V122.705Z" fill="#724A41"/>
<path d="M112.802 63.4905C112.558 64.2151 110.087 63.8784 107.182 64.2664C104.27 64.5884 101.928 65.5107 101.541 64.8592C101.372 64.5445 101.779 63.8638 102.722 63.1611C103.659 62.4584 105.159 61.785 106.904 61.5728C108.648 61.3605 110.243 61.6606 111.302 62.1217C112.368 62.5829 112.911 63.1538 112.802 63.4978V63.4905Z" fill="#101010"/>
<path d="M136.262 62.7512C135.766 63.3587 133.832 62.7293 131.503 62.7C129.175 62.5902 127.207 63.1099 126.752 62.4731C126.555 62.1656 126.86 61.5581 127.723 60.9799C128.571 60.409 129.99 59.9405 131.592 59.9844C133.187 60.0357 134.578 60.5846 135.386 61.2068C136.207 61.8289 136.479 62.4584 136.262 62.7512Z" fill="#101010"/>
<path d="M74.7017 110.797C79.6501 111.873 85.033 110.233 88.7324 106.529C92.425 102.826 94.3392 97.1529 93.7011 91.7585C93.1445 86.9934 90.762 82.1479 92.2893 77.6391C94.3121 71.681 102.064 69.8438 104.121 63.9003C105.315 60.4455 104.243 56.3978 105.6 53.0162C106.877 49.8322 109.979 47.995 113.006 46.8166C116.034 45.6381 119.278 44.8257 121.817 42.6957C124.356 40.5657 125.944 36.5473 124.301 33.5609C110.888 35.2956 97.6653 38.7578 85.0058 43.8595C82.0734 45.0379 78.9849 46.4652 77.2539 49.2759C75.4212 52.255 75.5094 56.0977 75.6587 59.6697C76.4122 77.0828 77.1657 94.496 77.9191 111.909" fill="#101010"/>
<path d="M65.1238 47.9511C65.1238 47.9511 64.9134 48.1707 64.8252 48.7416C64.7233 49.2979 64.8659 50.2201 65.5176 51.0692C66.1488 51.8963 67.2485 52.7307 68.7282 52.8186C70.2012 52.8552 71.7285 52.1598 73.2762 51.3474C74.8238 50.5056 76.5208 49.7663 78.5165 49.6785C80.4918 49.5468 82.6164 49.8688 84.8565 50.3007C87.0897 50.7252 89.4655 51.2742 92.0245 51.2961C94.5429 51.3327 97.387 50.5129 99.3759 48.4049C101.392 46.3481 102.539 43.7277 103.612 41.3269C104.677 38.9115 105.668 36.5692 107.04 34.6881C109.694 30.7795 114.214 29.7108 117.398 30.6111C120.683 31.5041 122.659 33.9122 123.65 35.5957C124.661 37.3378 124.878 38.4943 124.967 38.465C124.994 38.4577 124.96 38.1722 124.831 37.6306C124.688 37.0962 124.437 36.3204 123.962 35.3981C123.032 33.6048 121.063 30.9844 117.568 29.9231C115.85 29.4181 113.814 29.3815 111.805 30.0475C109.782 30.6697 107.813 32.1043 106.374 34.1172C104.908 36.1081 103.87 38.5016 102.797 40.9024C101.725 43.2886 100.591 45.7992 98.7514 47.673C96.939 49.5907 94.4275 50.3226 92.0313 50.3153C89.6148 50.3153 87.2662 49.7956 85.0126 49.393C82.759 48.9905 80.5597 48.6757 78.4758 48.8514C76.3783 48.9758 74.5048 49.8395 73.0047 50.7106C71.4842 51.5596 70.0587 52.2403 68.7554 52.255C67.4725 52.233 66.4136 51.523 65.8026 50.8057C65.1714 50.0738 64.9881 49.2759 65.022 48.7562C65.0424 48.2292 65.1849 47.9657 65.1306 47.9438L65.1238 47.9511Z" fill="#101010"/>
<path d="M63.1009 49.7956C63.3317 50.0078 66.074 45.0745 71.5994 41.7148C77.0773 38.26 82.4059 38.1941 82.3584 37.8721C82.3584 37.7623 81.0483 37.6086 78.944 37.916C76.8465 38.2161 73.9684 39.1017 71.1446 40.8438C68.3208 42.6005 66.1691 44.8329 64.8658 46.6335C63.5557 48.4415 63.0194 49.737 63.1077 49.7956H63.1009Z" fill="#232323"/>
<path d="M83.2478 36.8693C83.2478 36.8693 83.3089 37.0816 83.499 37.4403C83.723 37.7697 84.0624 38.2747 84.6529 38.7578C85.7933 39.7313 87.9519 40.6243 90.5924 40.1851C93.2465 39.7532 95.9685 37.7843 98.3578 35.1932C100.788 32.6387 103.042 29.3522 106.34 27.332C109.639 25.3338 113.488 25.0337 116.645 25.9193C119.842 26.783 122.279 28.8618 123.84 30.9479C125.415 33.0486 126.188 35.1346 126.575 36.5839C126.962 38.0478 127.037 38.8969 127.118 38.8895C127.152 38.8895 127.159 38.67 127.146 38.2601C127.139 37.8502 127.071 37.25 126.922 36.4887C126.623 34.9736 125.931 32.7704 124.349 30.516C122.794 28.2909 120.256 26.0145 116.862 25.041C113.522 24.0529 109.429 24.331 105.899 26.4756C102.363 28.6568 100.116 32.0311 97.7673 34.5491C95.4594 37.1255 92.9206 39.014 90.4838 39.4971C88.0469 39.9875 85.9969 39.2702 84.8633 38.4504C83.7026 37.6086 83.3225 36.8181 83.2478 36.8767V36.8693Z" fill="#232323"/>
<path d="M84.0759 119.148C84.0759 119.185 83.8111 119.265 83.2749 119.382C82.7454 119.492 81.9513 119.609 80.9127 119.638C78.8627 119.69 75.781 119.353 72.4209 117.574C69.0745 115.862 65.5312 112.531 63.3726 107.708C61.1801 102.965 60.3655 96.7796 61.8385 90.8435C62.4834 87.901 63.2979 85.105 63.4201 82.3601C63.6102 79.608 62.7956 77.1047 61.6417 74.843C60.5149 72.5886 59.3405 70.3342 58.8654 67.9846C58.3427 65.6643 58.3699 63.4026 58.6889 61.419C59.3405 57.4298 61.0307 54.5825 62.3951 52.9357C63.0739 52.0939 63.6848 51.523 64.1193 51.1716C64.5537 50.8203 64.7913 50.6593 64.8184 50.6886C64.8863 50.7764 63.9699 51.5083 62.7209 53.2211C61.4855 54.9119 59.965 57.7226 59.4356 61.5434C59.1776 63.4392 59.1912 65.5838 59.7274 67.7577C60.2094 69.9535 61.3362 72.0469 62.5173 74.3453C63.0943 75.5017 63.6509 76.7387 64.031 78.1075C64.3976 79.4762 64.5333 80.9475 64.4722 82.4114C64.3501 85.3538 63.5151 88.2084 62.8906 91.0997C61.472 96.8235 62.2322 102.657 64.2686 107.239C66.2846 111.872 69.5904 115.093 72.7671 116.835C75.9507 118.643 78.9238 119.09 80.9195 119.177C82.9423 119.243 84.0623 119.024 84.0759 119.133V119.148Z" fill="#232323"/>
<path d="M52.2741 33.4292C52.2062 33.3267 53.2516 32.3678 55.3355 31.7164C57.3854 31.0576 60.569 30.8893 63.6439 32.4044C66.7121 33.9269 68.6738 36.6497 69.5495 38.7505C70.4523 40.8804 70.4591 42.359 70.3437 42.3663C70.174 42.4102 69.8957 41.0268 68.8775 39.1237C67.8864 37.2353 65.9926 34.8345 63.2027 33.4511C60.4061 32.075 57.4873 32.0897 55.512 32.5142C53.5095 32.9241 52.3556 33.5975 52.2741 33.4292Z" fill="#101010"/>
<path d="M65.5514 45.6455C65.4971 45.6309 65.5989 45.199 65.626 44.3865C65.6667 43.5814 65.5242 42.3371 64.8318 40.9903C64.153 39.6508 62.9244 38.2015 61.112 37.2207C59.3132 36.2399 56.8899 35.9471 54.5481 37.0377C52.1994 38.0478 50.0952 40.2583 48.6765 43.0983C47.251 45.9456 46.708 49.4663 46.8505 53.126C46.9727 56.8078 47.733 60.6212 48.5339 64.5957C49.3145 68.5629 50.1223 72.7863 49.9119 77.2073C49.6879 81.6502 48.3032 85.7345 46.8709 89.4968C45.4318 93.2736 43.9046 96.8236 42.9678 100.374C42.0039 103.902 41.6985 107.422 42.1532 110.65C42.5741 113.878 43.538 116.791 44.6444 119.317C46.9048 124.367 49.5114 128.012 51.2288 130.559C52.0501 131.738 52.7221 132.704 53.2516 133.472C53.7132 134.139 53.9372 134.505 53.91 134.526C53.8829 134.548 53.5978 134.241 53.0819 133.619C52.566 132.997 51.8261 132.067 50.8962 130.837C49.077 128.363 46.3618 124.784 43.9656 119.675C42.7981 117.121 41.7595 114.149 41.2776 110.789C40.7617 107.444 41.0536 103.719 42.0243 100.088C42.961 96.4284 44.4951 92.8271 45.907 89.0796C47.3121 85.3393 48.6358 81.3721 48.853 77.156C49.1788 68.6581 45.9885 60.8042 45.8731 53.17C45.7509 49.3858 46.355 45.6601 47.9027 42.6518C49.4367 39.6654 51.7107 37.3378 54.2698 36.2911C56.8085 35.1566 59.5101 35.5445 61.3835 36.6498C63.291 37.7477 64.54 39.3287 65.2052 40.7853C65.8772 42.2492 65.9518 43.5741 65.8432 44.4012C65.7414 45.2429 65.5514 45.6455 65.5514 45.6455Z" fill="#232323"/>
<path d="M119.808 97.5921C119.394 98.734 118.966 99.8904 118.267 100.849C117.568 101.815 116.543 102.577 115.409 102.635C114.201 102.694 113.033 101.925 112.361 100.842C111.689 99.7587 111.458 98.4046 111.513 97.1017C111.56 95.9233 112.063 94.5179 113.149 94.3788C113.603 94.3203 114.045 94.5106 114.466 94.6936C116.366 95.528 118.274 96.3551 120.174 97.1895" fill="#F4F4F5"/>
<path d="M117.527 102.657C117.5 102.467 116.244 103.016 114.479 102.255C113.624 101.881 112.694 101.149 112.178 100C111.662 98.8584 111.56 97.3213 112.103 95.9745C112.225 95.6378 112.415 95.3304 112.599 95.0522C112.823 94.796 112.782 94.8107 113.026 94.8473C113.257 94.9132 113.637 95.1035 113.943 95.2352C114.262 95.3743 114.574 95.5134 114.879 95.6451C116.101 96.1794 117.208 96.6406 118.144 97.0212C120.011 97.7751 121.199 98.1703 121.253 98.0313C121.308 97.8922 120.228 97.2408 118.43 96.3039C117.534 95.8354 116.454 95.2938 115.253 94.7082C114.947 94.5618 114.642 94.4154 114.33 94.2617C113.997 94.1153 113.739 93.9543 113.284 93.8006C113.06 93.7347 112.748 93.6981 112.436 93.8299C112.137 93.9616 111.947 94.1812 111.805 94.3642C111.547 94.7302 111.323 95.1108 111.16 95.5353C110.488 97.2188 110.651 99.078 111.336 100.461C112.035 101.874 113.223 102.665 114.235 102.987C115.26 103.331 116.149 103.243 116.705 103.089C117.276 102.928 117.54 102.723 117.52 102.657H117.527Z" fill="#263238"/>
<path d="M53.9713 338.917C53.9238 339.129 53.8898 339.385 53.8491 339.612C53.9306 338.851 54.012 338.207 53.9713 338.917Z" fill="#263238"/>
<path d="M37.1574 355.51L34.6187 379.657L14.1326 399.837C14.1326 399.837 12.4017 396.807 13.3317 394.282C14.2684 391.757 8.65475 397.561 8.65475 397.561V411.431C8.65475 411.431 5.14538 412.947 3.97785 409.667C2.81032 406.388 2.10437 394.538 2.10437 394.538L3.74027 393.279C3.74027 393.279 1.636 391.259 2.10437 387.731C2.10437 387.731 0.23089 383.442 0.936838 377.644C1.636 371.847 3.04111 368.817 3.04111 368.817L19.821 348.623L37.1506 355.518L37.1574 355.51Z" fill="#AA6551"/>
<path d="M26.867 378.75C27.0503 378.896 24.5591 382.739 20.8189 386.867C17.0923 391.01 13.6033 393.799 13.4608 393.608C13.2979 393.403 16.5153 390.315 20.2012 386.216C23.8939 382.131 26.6701 378.581 26.867 378.75Z" fill="#724A41"/>
<path d="M12.4831 383.163C12.6528 383.346 10.4671 386.062 7.60935 389.224C4.75162 392.386 2.28759 394.809 2.11789 394.633C1.9414 394.457 4.12714 391.749 6.99166 388.572C9.85618 385.403 12.3202 382.98 12.4831 383.163Z" fill="#724A41"/>
<path d="M9.7137 377.63C9.87661 377.835 7.92168 379.833 5.83778 382.6C3.7403 385.352 2.31482 387.811 2.0976 387.687C1.89396 387.577 3.01398 384.847 5.17255 382.014C7.31755 379.174 9.57794 377.447 9.7137 377.637V377.63Z" fill="#724A41"/>
<path d="M7.35157 371.921C7.51449 372.118 6.02113 373.78 4.31056 375.917C2.5932 378.054 1.28312 379.877 1.07948 379.738C0.88263 379.606 1.89405 377.505 3.65892 375.31C5.417 373.114 7.20224 371.73 7.35157 371.921Z" fill="#724A41"/>
<path d="M158.153 82.6896C158.261 82.9458 161.615 81.5404 165.64 79.5568C169.672 77.5659 172.842 75.7507 172.733 75.4945C172.625 75.2383 169.272 76.6437 165.246 78.6346C161.221 80.6255 158.044 82.4407 158.153 82.6969V82.6896Z" fill="#455B64"/>
<path d="M181.823 119.778C183.513 119.704 187.606 122.339 190.898 127.229C190.952 127.302 191.014 127.368 191.068 127.441C193.41 130.728 195.609 121.351 196.01 117.86C196.267 115.598 198.535 114.208 200.591 115.027L211.466 120.51L214.642 120.627C216.244 121.264 217.134 123.042 216.713 124.762L211.513 143.273L211.398 148.324L189.629 151.5L189.296 138.845C188.97 137.381 188.543 135.654 187.959 133.685C187.436 131.913 186.629 130.23 185.563 128.744C184.443 127.185 182.929 125.223 181.653 124.111C181.538 124.03 181.409 123.913 181.3 123.855C181.035 123.701 180.845 123.496 180.682 123.276C179.583 121.995 180.187 119.844 181.836 119.77L181.823 119.778Z" fill="#AA6551"/>
<path d="M182.25 62.7365C182.25 62.7365 194.957 60.1088 213.21 42.2272C231.463 24.3456 240.457 0.132657 242.629 0.315645C244.801 0.498633 254.427 -3.96628 271.369 38.9627C288.319 81.8844 280.94 91.5096 277.35 91.3193C273.759 91.129 249.546 83.0482 234.253 84.4536C218.96 85.8589 199.139 93.8226 199.139 93.8226L182.243 62.7439L182.25 62.7365Z" fill="#FCB32B"/>
<path d="M154.82 85.0099L158.893 93.9763L160.719 97.9947C163.224 103.506 169.285 105.936 174.519 103.528L201.854 94.1885L187.11 54.9047L159.66 69.6169C154.392 72.4422 152.227 79.3226 154.813 85.0172L154.82 85.0099Z" fill="#483F99"/>
<path d="M170.052 99.6343L178.198 118.123L182.542 116.967L210.06 142.534L218.369 126.16C218.369 126.16 201.928 117.918 199.016 111.426C196.104 104.934 199.702 103.587 199.702 103.587L192.12 93.7494L170.045 99.6416L170.052 99.6343Z" fill="#483F99"/>
<path d="M269.896 39.6947C278.904 62.9415 282.373 83.5167 277.635 85.6467C272.897 87.784 261.758 70.6636 252.743 47.4241C243.736 24.1773 240.274 3.60214 245.005 1.47215C249.743 -0.665148 260.882 16.4479 269.896 39.6947Z" fill="#263238"/>
<path d="M152.159 97.702L159.565 95.4475L155.268 85.998L149.668 89.5187L152.159 97.702Z" fill="#483F99"/>
<g opacity="0.3">
<path d="M194.72 97.1163L174.648 110.072L172.326 104.802L194.72 97.1163Z" fill="black"/>
</g>
<path d="M160.264 88.2963C160.366 88.5525 164.065 87.1325 168.532 85.1196C172.998 83.1068 176.535 81.2622 176.433 81.0061C176.331 80.7499 172.632 82.1699 168.165 84.1827C163.699 86.1956 160.162 88.0401 160.264 88.2963Z" fill="white"/>
<path d="M162.959 94.2032C162.993 94.3422 163.868 94.1519 165.273 93.7274C165.973 93.5151 166.808 93.2516 167.724 92.9369C168.64 92.6075 169.591 92.1244 170.609 91.6706C174.675 89.7822 177.791 87.9084 177.695 87.6741C177.587 87.396 174.268 88.8672 170.235 90.7337C169.224 91.1875 168.287 91.6999 167.405 92.0659C166.516 92.4172 165.721 92.7539 165.063 93.0467C163.733 93.6322 162.925 94.0714 162.959 94.2032Z" fill="white"/>
<path d="M250.428 33.9854C250.428 33.9854 261.595 26.9806 267.181 43.1568C272.768 59.3329 261.147 61.6093 261.147 61.6093C256.626 53.5651 253.028 44.3864 250.428 33.9927V33.9854Z" fill="#FAFBFB"/>
<path d="M239.262 14.5741C239.194 14.5814 239.323 15.672 239.615 17.641C239.914 19.6026 240.328 22.4572 240.939 25.9633C241.36 27.6907 241.815 29.5791 242.303 31.6066C242.555 32.624 242.812 33.6707 243.077 34.7467C243.213 35.2884 243.349 35.8373 243.484 36.3863C243.634 36.9352 243.831 37.4769 244.007 38.0405C244.74 40.2656 245.507 42.6006 246.301 45.016C246.498 45.6235 246.702 46.231 246.906 46.8459C247.102 47.4607 247.388 48.0463 247.632 48.6538C248.134 49.8615 248.65 51.0912 249.166 52.3282C249.689 53.5725 250.198 54.7949 250.707 56.0026C250.972 56.6028 251.189 57.2176 251.487 57.7886C251.779 58.3595 252.071 58.9304 252.356 59.4867C253.51 61.7338 254.624 63.9004 255.689 65.9645C255.961 66.4768 256.205 66.9965 256.49 67.4796C256.789 67.9554 257.081 68.4312 257.366 68.8996C257.943 69.8292 258.499 70.7295 259.042 71.6078C260.129 73.3426 261.14 74.9675 262.063 76.4534C264.093 79.2567 265.79 81.4746 266.964 83.0117C268.138 84.5414 268.817 85.3685 268.865 85.3246C268.919 85.2807 268.335 84.3731 267.249 82.7701C266.122 81.1305 264.534 78.8322 262.586 76.0142C261.697 74.521 260.726 72.8888 259.681 71.1394C259.158 70.261 258.615 69.3607 258.058 68.4312C257.78 67.9627 257.495 67.4943 257.21 67.0185C256.931 66.5354 256.694 66.0084 256.429 65.5034C255.391 63.4466 254.298 61.28 253.171 59.0402C252.886 58.4839 252.601 57.913 252.316 57.3494C252.024 56.7858 251.807 56.171 251.549 55.5708C251.046 54.3704 250.537 53.148 250.021 51.9183C249.505 50.6886 248.996 49.4663 248.494 48.2732C248.256 47.6657 247.965 47.0874 247.768 46.4799C247.564 45.8724 247.36 45.2649 247.157 44.6647C246.349 42.2712 245.568 39.9582 244.822 37.755C244.638 37.2061 244.435 36.6644 244.279 36.1228C244.136 35.5738 243.994 35.0322 243.858 34.4978C243.58 33.4292 243.308 32.3898 243.05 31.387C242.521 29.3815 242.032 27.515 241.577 25.8096C240.905 22.3767 240.355 19.5807 239.968 17.5897C239.568 15.6501 239.323 14.5814 239.256 14.5887L239.262 14.5741Z" fill="#263238"/>
<path d="M204.392 111.492C205.56 112.034 206.137 113.512 205.696 114.852C204.861 117.406 203.51 121.41 202.499 123.833C202.173 124.616 201.82 125.406 201.256 125.992C200.693 126.577 199.865 126.914 199.139 126.621C198.378 126.307 197.93 125.37 197.876 124.462C197.815 123.554 198.073 122.662 198.331 121.79C199.044 119.404 200.272 115.832 201.324 112.927C201.813 111.572 203.191 110.928 204.392 111.485V111.492Z" fill="#AA6551"/>
<path d="M207.698 116.198C208.866 116.74 209.443 118.219 209.002 119.558C208.167 122.113 206.816 126.116 205.805 128.539C205.479 129.322 205.126 130.113 204.562 130.698C203.999 131.284 203.171 131.621 202.444 131.328C201.684 131.013 201.236 130.076 201.182 129.169C201.121 128.261 201.379 127.368 201.637 126.497C202.349 124.111 203.578 120.539 204.63 117.633C205.119 116.279 206.497 115.635 207.698 116.191V116.198Z" fill="#AA6551"/>
<path d="M210.882 119.185C211.934 119.653 212.457 120.934 212.063 122.091C211.31 124.301 210.081 127.771 209.171 129.871C208.879 130.552 208.56 131.24 208.051 131.745C207.542 132.25 206.789 132.543 206.137 132.287C205.452 132.016 205.044 131.203 204.99 130.42C204.936 129.63 205.166 128.861 205.397 128.107C206.042 126.043 207.155 122.947 208.106 120.436C208.547 119.265 209.796 118.702 210.882 119.185Z" fill="#AA6551"/>
<path d="M215.077 120.187C216.136 120.663 216.658 121.944 216.265 123.108C215.504 125.326 214.276 128.81 213.359 130.925C213.061 131.606 212.742 132.294 212.233 132.806C211.717 133.319 210.963 133.612 210.312 133.355C209.619 133.084 209.219 132.272 209.165 131.474C209.11 130.684 209.341 129.908 209.579 129.154C210.23 127.075 211.343 123.972 212.301 121.446C212.749 120.268 213.998 119.704 215.09 120.195L215.077 120.187Z" fill="#AA6551"/>
<path d="M201.481 126.094C201.705 126.197 202.696 124.191 203.693 121.622C204.691 119.053 205.316 116.886 205.092 116.784C204.868 116.681 203.877 118.687 202.879 121.256C201.881 123.825 201.257 125.992 201.481 126.094Z" fill="#724A41"/>
<path d="M205.085 130.003C205.309 130.098 206.375 127.785 207.454 124.843C208.533 121.9 209.232 119.434 209.008 119.331C208.784 119.229 207.725 121.542 206.639 124.491C205.553 127.441 204.861 129.908 205.085 130.003Z" fill="#724A41"/>
<path d="M208.846 130.523C209.056 130.647 210.223 128.707 211.235 126.087C212.253 123.467 212.701 121.205 212.477 121.132C212.24 121.051 211.425 123.145 210.42 125.721C209.429 128.298 208.621 130.398 208.846 130.523Z" fill="#724A41"/>
<path d="M79.5415 164.031C79.3989 164.031 79.4057 162.114 78.9306 159.098C78.4554 156.097 77.3761 151.984 75.2176 147.958C73.1336 143.881 70.2623 140.851 67.6829 139.687C65.0967 138.486 63.2639 139.123 63.2572 138.926C63.2436 138.889 63.6576 138.662 64.479 138.567C65.2868 138.457 66.5222 138.523 67.9137 139.079C70.7239 140.155 73.8396 143.325 75.971 147.497C78.1975 151.647 79.2089 155.921 79.5415 159.01C79.8741 162.114 79.6433 164.046 79.5483 164.039L79.5415 164.031Z" fill="#263238"/>
<path d="M85.3859 134.526L122.523 140.733L129.141 146.911C129.141 146.911 152.512 195.989 152.946 205.892C153.422 216.842 147.971 235.638 147.971 235.638L153.32 278.999C154.107 283.977 151.107 288.756 149.091 288.756L84.9379 279.482C76.5751 277.711 73.1404 272.997 73.6563 267.778L74.6134 258.117L47.2171 159.164C45.5948 165.012 48.1267 143.398 60.3654 138.545C65.5446 136.488 77.5254 132.755 85.3994 134.534L85.3859 134.526Z" fill="#FCB32B"/>
<path d="M125.713 143.998C125.713 143.998 137.144 153.499 147.964 164.302C158.784 175.106 187.64 196.713 187.64 196.713L189.629 151.508L211.398 148.331C211.398 148.331 222.041 204.699 215.287 220.253C208.533 235.814 200.462 236.465 178.021 228.692C155.58 220.911 149.166 217.457 149.166 217.457L125.713 143.998Z" fill="#FCB32B"/>
<path d="M131.456 150.71C131.456 150.71 131.66 150.937 131.972 151.413C132.332 151.984 132.773 152.679 133.302 153.521C134.443 155.365 136.065 158.044 137.999 161.411C141.821 168.145 147.048 177.675 150.462 189.284C153.87 200.9 153.999 212.253 152.383 220.019C151.609 223.913 150.578 226.957 149.695 228.97C149.301 229.995 148.867 230.734 148.623 231.254C148.358 231.766 148.209 232.023 148.181 232.008C148.114 231.971 148.616 230.866 149.383 228.831C150.164 226.796 151.093 223.759 151.779 219.894C153.225 212.201 153.001 201.039 149.634 189.569C146.26 178.092 141.156 168.57 137.47 161.755C135.637 158.454 134.13 155.738 133.01 153.718C132.535 152.84 132.141 152.115 131.816 151.515C131.551 151.01 131.422 150.732 131.449 150.717L131.456 150.71Z" fill="#263238"/>
<path d="M67.3367 138.552C67.3367 138.552 78.8966 154.882 79.5279 169.865C80.1592 184.848 58.7839 274.666 58.7839 274.666L40.0355 356.659L16.6985 347.378C16.6985 347.378 22.1289 289.005 23.1606 281.751C25.3124 266.651 34.544 237.212 35.8066 220.187C37.0692 203.162 42.9204 170.385 45.8121 162.714C48.7037 155.043 48.8123 138.12 67.3299 138.552H67.3367Z" fill="#FCB32B"/>
<path d="M78.5709 178.136C78.5709 178.136 78.5845 178.444 78.537 179.015C78.4623 179.695 78.3741 180.522 78.2655 181.518C77.9939 183.684 77.5391 186.81 76.8943 190.653C75.6181 198.345 73.5818 208.915 71.1517 220.538C68.7012 232.162 66.3322 242.643 64.5198 250.204C63.6102 253.988 62.85 257.033 62.2934 259.134C62.0286 260.093 61.8114 260.891 61.6281 261.542C61.4652 262.091 61.3702 262.377 61.3363 262.369C61.3091 262.362 61.3498 262.062 61.4584 261.498L61.9675 259.046C62.4631 256.777 63.1215 253.74 63.9225 250.043C65.5855 242.307 67.8256 231.869 70.3032 220.326C72.7333 208.71 74.8647 198.177 76.2902 190.528C76.9622 186.81 77.5188 183.743 77.9261 181.459C78.0958 180.471 78.2383 179.659 78.3537 178.985C78.4623 178.422 78.5302 178.129 78.5641 178.129L78.5709 178.136Z" fill="#263238"/>
<g opacity="0.3">
<path d="M80.2407 278.121C83.9198 274.139 84.6936 268.093 85.2706 262.508C87.1033 244.729 88.9429 226.957 90.7756 209.178C91.9228 198.097 93.0021 186.473 89.1261 176.131C88.5424 174.579 87.6871 172.917 86.1937 172.464C84.7683 172.032 83.2274 172.91 82.3382 174.184C81.4422 175.457 78.9442 177.287 78.5777 178.832C74.8307 194.678 73.2084 210.284 69.4682 226.13C68.4772 230.317 67.1874 230.156 68.0495 234.379C69.2917 240.506 74.6203 258.109 74.6203 258.109C74.6203 258.109 73.86 264.499 73.636 268.232C73.412 271.965 75.4348 276.613 80.2543 278.114" fill="black"/>
</g>
<path d="M76.7923 186.971C76.8195 187.022 76.3715 187.381 75.523 187.959C74.6677 188.53 73.4187 189.35 71.7556 190.133C70.1062 190.901 67.9544 191.677 65.4768 191.502C62.9856 191.355 60.4808 190.038 58.1933 188.413C55.8922 186.773 53.8354 185.068 51.7244 184.021C49.6337 182.938 47.5294 182.601 45.8324 182.982C44.1219 183.304 42.9 184.189 42.2348 184.929C41.5628 185.69 41.3388 186.254 41.2641 186.21C41.2302 186.202 41.3456 185.573 41.9836 184.687C42.6149 183.816 43.8843 182.769 45.7102 182.338C47.5226 181.833 49.8577 182.147 52.057 183.238C54.2902 184.292 56.4081 186.027 58.6684 187.63C60.9221 189.233 63.2571 190.47 65.5447 190.645C67.8254 190.858 69.889 190.199 71.5316 189.525C74.817 188.091 76.7244 186.81 76.7991 186.964L76.7923 186.971Z" fill="#FAFBFB"/>
<path d="M149.152 185.068C149.152 185.068 149.064 185.317 148.819 185.741C148.589 186.173 148.168 186.766 147.557 187.461C146.342 188.837 144.17 190.506 141.088 191.407C138.04 192.329 134.151 192.541 130.064 191.568C125.964 190.653 121.722 188.786 117.242 187.117C108.309 183.531 99.437 183.882 93.4365 185.39C87.368 186.861 83.9808 189.02 83.9062 188.815C83.8926 188.786 84.0962 188.647 84.4967 188.398C84.8972 188.157 85.4878 187.791 86.2887 187.403C87.8703 186.598 90.2393 185.558 93.3007 184.746C96.3485 183.926 100.095 183.348 104.27 183.479C108.438 183.56 113.013 184.504 117.527 186.232C122.048 187.915 126.236 189.789 130.234 190.726C134.205 191.721 137.959 191.575 140.939 190.762C143.939 189.972 146.077 188.457 147.333 187.198C148.589 185.924 149.084 185.009 149.159 185.068H149.152Z" fill="#FAFBFB"/>
<path d="M162.796 177.119C162.884 177.111 163.135 178.539 162.972 180.866C162.823 183.187 162.137 186.4 160.596 189.569C159.042 192.739 156.972 195.154 155.281 196.603C153.591 198.06 152.356 198.653 152.315 198.565C152.24 198.433 153.34 197.65 154.881 196.106C156.422 194.576 158.336 192.182 159.836 189.137C161.323 186.085 162.069 183.033 162.368 180.793C162.674 178.553 162.653 177.126 162.796 177.119Z" fill="#FAFBFB"/>
<g opacity="0.3">
<path d="M138.943 162.714C156.483 181.701 171.559 202.81 178.028 228.692C168.009 225.15 158.54 221.717 152.274 218.913C152.274 218.913 154.155 208.249 153.014 201.969C151.623 194.29 151.63 187.849 138.943 162.714Z" fill="black"/>
</g>
<path d="M187.321 196.816C187.137 197.028 189.303 199.209 190.823 202.686C192.385 206.141 192.609 209.332 192.873 209.303C193.09 209.339 193.267 205.943 191.617 202.269C189.995 198.58 187.436 196.603 187.321 196.808V196.816Z" fill="#263238"/>
</svg>
