<svg width="13" height="4" viewBox="0 0 13 4" fill="none" xmlns="http://www.w3.org/2000/svg">
<path d="M3.28345 1.93971C3.28345 2.85214 2.61132 3.59677 1.78772 3.59677C0.964125 3.59677 0.291992 2.85214 0.291992 1.93971C0.291992 1.02728 0.964125 0.282654 1.78772 0.282654C2.61132 0.282654 3.28345 1.02728 3.28345 1.93971Z" fill="#675FA6"/>
<path d="M8.1399 1.93971C8.1399 2.85214 7.46776 3.59677 6.64417 3.59677C5.82057 3.59677 5.14844 2.85214 5.14844 1.93971C5.14844 1.02728 5.82057 0.282654 6.64417 0.282654C7.46776 0.282654 8.1399 1.02728 8.1399 1.93971Z" fill="#5C4DA0"/>
<path d="M12.7878 1.93971C12.7878 2.85214 12.1157 3.59677 11.2921 3.59677C10.4685 3.59677 9.79639 2.85214 9.79639 1.93971C9.79639 1.02728 10.4685 0.282654 11.2921 0.282654C12.1157 0.282654 12.7878 1.02728 12.7878 1.93971Z" fill="#3E3D98"/>
</svg>
