<svg width="21" height="22" viewBox="0 0 21 22" fill="none" xmlns="http://www.w3.org/2000/svg">
<path d="M18.735 0.0828552H2.51869C1.62465 0.0828552 0.899902 0.885787 0.899902 1.87625V19.8417C0.899902 20.8322 1.62465 21.6351 2.51869 21.6351H18.735C19.6291 21.6351 20.3538 20.8322 20.3538 19.8417V1.87625C20.3538 0.885787 19.6291 0.0828552 18.735 0.0828552Z" fill="#3E3D98"/>
<path d="M11.6351 15.8249V17.3561L9.86481 17.3351V15.8668C8.62468 15.7724 7.42242 15.3844 6.67456 14.8705L7.64015 12.5003C8.46374 13.0456 9.55241 13.4022 10.518 13.4127C11.3511 13.4127 11.654 13.2344 11.654 12.8988C11.654 11.6822 6.82603 12.6156 6.85443 9.01837C6.8639 7.4557 7.89575 6.15522 9.95001 5.85108V4.34085L11.7203 4.36183V5.84059C12.6291 5.94547 13.5284 6.21815 14.2384 6.66912L13.339 9.02885C12.4776 8.53593 11.6729 8.29472 10.9156 8.28423C10.0541 8.28423 9.77961 8.54642 9.77961 8.88203C9.77961 10.0462 14.6076 9.12324 14.5792 12.6891C14.5697 14.1783 13.5852 15.4683 11.654 15.8249H11.6351Z" fill="white"/>
</svg>
