<svg width="106" height="290" viewBox="0 0 106 290" fill="none" xmlns="http://www.w3.org/2000/svg">
<path d="M81.47 57.2984C81.47 57.2984 74.7635 53.9534 73.6842 53.097C68.8036 49.225 69.4621 48.3467 68.0977 36.8916L54.5828 38.8898C58.6692 54.1437 51.3246 54.6122 43.8511 61.229C53.2185 68.4168 71.9329 67.6775 81.47 57.2984Z" fill="#F69885"/>
<path d="M54.9902 40.5221C55.5876 43.2815 56.0016 45.6311 55.6283 48.3466C60.4478 44.0647 67.5615 46.0337 68.3354 39.2411C62.3484 42.9448 57.2506 42.2495 54.9902 40.5294V40.5221Z" fill="#EE7952"/>
<path d="M51.7591 35.5228C59.511 53.2214 76.7592 38.9703 72.4149 16.4628C68.8784 -1.85798 37.7691 3.58772 51.7591 35.5228Z" fill="#F69885"/>
<path d="M67.283 25.9635C67.9958 25.905 68.342 22.9186 66.611 23.0723C65.6879 23.1528 66.1155 26.066 67.283 25.9635Z" fill="#282726"/>
<path d="M55.3633 26.9736C56.0761 26.915 56.4223 23.9287 54.6913 24.0824C53.7682 24.1629 54.1958 27.0761 55.3633 26.9736Z" fill="#282726"/>
<path d="M65.5115 19.3906C64.3643 19.5663 64.4933 20.5544 65.3554 20.7227C66.5161 20.9496 66.7197 20.4812 69.2177 21.1912C71.9804 21.9671 68.5661 18.9295 65.5115 19.3979V19.3906Z" fill="#282726"/>
<path d="M56.5717 20.4227C57.7256 20.3568 57.7799 21.3522 56.9654 21.6963C55.8725 22.1647 55.4177 21.8134 53.2592 22.9552C50.7001 24.3167 53.4628 20.5983 56.5784 20.4153L56.5717 20.4227Z" fill="#282726"/>
<path d="M58.1534 35.252C58.0108 35.2447 57.9158 35.4057 57.9905 35.5301C61.751 42.3446 66.0885 35.0324 65.3011 34.8055C63.6449 34.3297 61.7442 35.5082 58.1602 35.252H58.1534Z" fill="white"/>
<path d="M60.9974 30.5236C60.8617 30.5236 60.7395 30.4211 60.7123 30.2747C60.6784 30.1064 60.7802 29.938 60.9364 29.9014C61.2961 29.8209 61.5812 29.777 61.812 29.7477C62.0088 29.7184 62.2328 29.6891 62.2804 29.6526C62.2939 29.5574 62.1242 29.0011 61.9342 28.3643C61.6898 27.5738 61.3301 26.3734 60.8888 24.6094C60.8481 24.4411 60.9431 24.2654 61.0993 24.2215C61.2554 24.1776 61.4183 24.28 61.459 24.4484C61.8934 26.1977 62.2532 27.3835 62.4976 28.174C62.837 29.2793 62.9591 29.6891 62.7691 30.0112C62.613 30.282 62.3279 30.3186 61.8934 30.3845C61.6694 30.4138 61.3979 30.4504 61.0585 30.5309C61.0382 30.5309 61.0178 30.5309 60.9974 30.5309V30.5236Z" fill="#EC7957"/>
<path d="M48.1275 25.5024C50.1435 24.6753 50.6186 29.3232 50.7883 31.6435C51.1345 36.2035 44.9439 26.8126 48.1275 25.5024Z" fill="#F69885"/>
<path d="M73.7793 23.1016C71.6683 22.6185 71.8787 27.2957 72.0416 29.616C72.3606 34.1833 77.1122 23.8628 73.7793 23.1016Z" fill="#F69885"/>
<path d="M49.6345 30.6846C49.5599 30.6846 49.4852 30.6554 49.4309 30.5895C48.4195 29.4989 48.1005 28.0496 48.4467 27.4201C48.596 27.1493 48.8675 27.0322 49.1594 27.1273C49.3155 27.1786 49.4038 27.3543 49.3563 27.5226C49.3087 27.691 49.1458 27.7861 48.9897 27.7349C48.9693 27.7276 48.9558 27.7349 48.9558 27.7349C48.9558 27.7422 48.9082 27.8154 48.9014 27.9837C48.8743 28.5034 49.1594 29.4037 49.8518 30.143C49.9672 30.2674 49.9672 30.4651 49.8518 30.5895C49.7975 30.648 49.716 30.6846 49.6413 30.6846H49.6345Z" fill="#EE7952"/>
<path d="M73.1344 28.7376C73.0733 28.7376 73.0122 28.7157 72.9579 28.6791C72.8289 28.5766 72.8018 28.379 72.8968 28.2399C73.4806 27.3908 73.6299 26.4539 73.5281 25.9489C73.4941 25.7805 73.4466 25.7147 73.4262 25.7074C73.2769 25.7806 73.0936 25.722 73.0258 25.561C72.9579 25.3999 73.0054 25.2243 73.1547 25.1437C73.4263 25.0047 73.7113 25.0706 73.9014 25.3194C74.329 25.883 74.2205 27.3762 73.372 28.6132C73.3177 28.6937 73.2226 28.745 73.1344 28.745V28.7376Z" fill="#EE7952"/>
<path d="M31.6257 270.179C33.4856 272.156 36.6895 272.185 39.7916 270.765L41.1153 255.379L31.9108 254.457L31.6325 270.187L31.6257 270.179Z" fill="#F69885"/>
<path d="M24.8107 277.536C22.0548 280.398 21.2538 282.279 20.6769 284.723C20.256 286.524 20.4461 288.017 22.2042 288.376C25.7271 289.093 29.06 289.54 31.4018 288.969C32.6712 288.654 34.0899 288.251 38.631 284.021C41.2851 281.554 40.3688 281.854 40.4502 270.633C40.4502 270.179 40.0633 269.857 39.656 269.96C36.5267 270.75 33.2142 269.44 31.8295 268.774C31.4697 268.606 31.0556 268.825 30.9538 269.228C29.861 273.642 30.7977 271.321 24.8039 277.543L24.8107 277.536Z" fill="#E59A24"/>
<path d="M28.8835 289.54C26.7045 289.54 24.2405 289.108 22.1566 288.683C21.4167 288.53 20.8737 288.178 20.5479 287.629C20.1338 286.934 20.0862 285.953 20.3985 284.643C20.9958 282.096 21.8443 280.178 24.6138 277.309C26.4059 275.45 27.5869 274.344 28.3744 273.612C29.4333 272.622 30.1279 271.438 30.4583 270.062C30.5261 269.792 30.594 269.484 30.6823 269.14C30.7502 268.855 30.9334 268.62 31.1846 268.489C31.4289 268.364 31.7141 268.357 31.9584 268.474C33.2346 269.082 36.5267 270.414 39.6017 269.638C39.8868 269.565 40.1787 269.638 40.4094 269.836C40.6334 270.026 40.7624 270.319 40.7556 270.626C40.7352 273.466 40.7828 275.603 40.8099 277.17C40.9049 281.927 40.9185 282.323 38.8346 284.255C34.1509 288.61 32.7254 288.961 31.4765 289.269C30.7026 289.459 29.8202 289.54 28.8835 289.54ZM25.0143 277.763C22.3534 280.529 21.5389 282.367 20.9619 284.797C20.6972 285.917 20.7243 286.751 21.0434 287.293C21.2809 287.688 21.6746 287.944 22.2652 288.061C25.184 288.661 28.8563 289.269 31.3475 288.654C32.5354 288.361 33.8794 288.032 38.4545 283.779C40.328 282.037 40.328 281.854 40.2262 277.184C40.1922 275.618 40.1515 273.473 40.1718 270.626C40.1718 270.472 40.0904 270.377 40.0429 270.333C39.9546 270.26 39.846 270.231 39.7374 270.26C36.4928 271.08 33.0513 269.689 31.7208 269.06C31.6258 269.016 31.524 269.016 31.4357 269.06C31.3407 269.111 31.2728 269.199 31.2457 269.301C31.1574 269.645 31.0896 269.945 31.0217 270.216C30.4922 272.427 30.4515 272.492 28.7545 274.081C27.9739 274.813 26.7995 275.911 25.0211 277.755L25.0143 277.763Z" fill="#E59A24"/>
<path d="M28.9514 288.874C28.6392 288.874 28.3269 288.859 28.0147 288.837L27.8518 288.822C25.2452 288.617 22.3535 288.303 20.9959 287.234C20.6633 286.97 20.5886 286.465 20.833 286.107C21.0774 285.748 21.5457 285.668 21.8783 285.931C23.0051 286.817 26.3584 287.088 27.9671 287.212L28.13 287.227C30.0443 287.38 31.7752 287.007 33.0038 286.18C34.5582 285.126 35.3796 284.328 36.6286 283.128C37.097 282.674 37.6128 282.176 38.2441 281.591C38.5564 281.298 39.0315 281.334 39.3031 281.678C39.5746 282.015 39.5406 282.528 39.2216 282.82C38.6039 283.399 38.088 283.889 37.6264 284.335C36.3706 285.551 35.461 286.429 33.798 287.556C32.5151 288.427 30.8181 288.888 28.9514 288.888V288.874Z" fill="white"/>
<path d="M31.0285 282.227C29.5895 282.227 26.5009 281.503 25.7339 280.112C25.6524 279.958 25.6932 279.761 25.8357 279.666C25.9783 279.578 26.1615 279.622 26.2498 279.775C26.8132 280.8 29.5352 281.569 31.0285 281.569C31.1915 281.569 31.3272 281.715 31.3272 281.891C31.3272 282.066 31.1915 282.213 31.0285 282.213V282.227Z" fill="white"/>
<path d="M34.3749 278.978C32.1213 278.978 28.9649 278.121 28.0825 276.445C28.001 276.291 28.0485 276.094 28.1978 276.006C28.3404 275.918 28.5237 275.969 28.6051 276.13C29.379 277.594 32.8272 278.546 35.108 278.304C35.2709 278.282 35.4203 278.414 35.4338 278.597C35.4474 278.773 35.332 278.934 35.1623 278.948C34.9179 278.978 34.6532 278.985 34.3749 278.985V278.978Z" fill="white"/>
<path d="M36.3502 275.069C34.9112 275.069 31.6801 274.879 30.3225 273.254C30.2139 273.122 30.2207 272.917 30.3429 272.8C30.4651 272.683 30.6551 272.69 30.7637 272.822C31.9652 274.264 35.237 274.498 36.9747 274.41C37.1444 274.41 37.2802 274.542 37.287 274.718C37.2938 274.893 37.1648 275.047 37.0019 275.054C36.9068 275.054 36.6692 275.069 36.3434 275.069H36.3502Z" fill="white"/>
<path d="M86.9274 269.909C84.9114 271.695 81.721 271.424 78.7479 269.718L78.6936 254.267L87.9388 254.223L86.9274 269.916V269.909Z" fill="#F69885"/>
<path d="M93.1111 277.88C95.6227 280.99 96.2675 282.945 96.6409 285.426C96.9192 287.256 96.6001 288.727 94.8217 288.917C91.258 289.298 87.898 289.43 85.6104 288.632C84.375 288.2 82.997 287.659 78.8089 283.018C76.372 280.31 77.2544 280.698 78.0894 269.506C78.1233 269.052 78.5374 268.767 78.9378 268.906C81.9924 269.989 85.4 269.001 86.8323 268.474C87.2056 268.335 87.5993 268.598 87.6672 269.008C88.3935 273.51 87.6468 271.109 93.1111 277.872V277.88Z" fill="#E59A24"/>
<path d="M90.0973 289.54C88.4275 289.54 86.8119 289.386 85.5222 288.939C84.3004 288.515 82.9157 288.032 78.6053 283.245C76.6911 281.115 76.725 280.727 77.2138 275.998C77.3767 274.447 77.5939 272.324 77.8043 269.491C77.8247 269.184 77.9808 268.906 78.2184 268.738C78.4627 268.562 78.7614 268.518 79.0397 268.62C82.04 269.682 85.4272 268.672 86.7509 268.189C87.0088 268.093 87.2871 268.123 87.5247 268.276C87.7623 268.43 87.9252 268.679 87.9727 268.972C88.027 269.323 88.0745 269.638 88.122 269.909C88.3393 271.309 88.9343 272.553 89.9073 273.642C90.6268 274.447 91.7197 275.662 93.3488 277.682C95.8671 280.8 96.5527 282.798 96.9464 285.389C97.15 286.729 97.021 287.695 96.5527 288.354C96.1861 288.866 95.6227 289.166 94.8693 289.247C93.3895 289.408 91.7264 289.547 90.1177 289.547L90.0973 289.54ZM78.7411 269.191C78.6732 269.191 78.6053 269.213 78.5442 269.257C78.4899 269.294 78.4017 269.382 78.3949 269.535C78.1844 272.375 77.9604 274.505 77.8043 276.064C77.3292 280.705 77.3088 280.888 79.0329 282.806C83.2415 287.475 84.5516 287.937 85.7123 288.339C88.1424 289.188 91.8486 288.932 94.8014 288.61C95.3919 288.544 95.8128 288.332 96.0775 287.959C96.4373 287.454 96.5323 286.626 96.3626 285.485C95.9893 283.011 95.3308 281.1 92.9007 278.092C91.2784 276.086 90.1992 274.871 89.4796 274.073C87.9184 272.331 87.8845 272.258 87.5383 270.004C87.4976 269.733 87.45 269.418 87.3889 269.067C87.3686 268.957 87.3075 268.862 87.2192 268.803C87.131 268.745 87.0292 268.738 86.9341 268.774C85.5562 269.279 82.0196 270.333 78.8564 269.206C78.8157 269.191 78.7818 269.184 78.7411 269.184V269.191Z" fill="#E59A24"/>
<path d="M90.3282 288.844C89.9345 288.844 89.5476 288.844 89.1607 288.837H88.9978C86.7577 288.8 84.7485 288.149 83.3434 286.992C81.7822 285.711 80.9472 284.753 79.7933 283.42C79.3724 282.93 78.9041 282.388 78.3339 281.759C78.042 281.437 78.0488 280.924 78.3474 280.617C78.6461 280.31 79.1213 280.31 79.4064 280.632C79.9833 281.276 80.4585 281.825 80.8861 282.315C82.0265 283.633 82.7868 284.504 84.2462 285.704C85.4001 286.648 87.0971 287.183 89.0113 287.212H89.1742C90.7898 287.241 94.1431 287.292 95.3377 286.517C95.6907 286.29 96.1523 286.414 96.3695 286.795C96.5799 287.175 96.4645 287.673 96.1116 287.907C94.8829 288.705 92.5886 288.844 90.3214 288.844H90.3282Z" fill="white"/>
<path d="M87.1038 281.986C86.8933 281.986 86.7033 281.979 86.5403 281.964C86.3774 281.949 86.2553 281.788 86.2689 281.613C86.2824 281.437 86.425 281.305 86.5947 281.32C88.0812 281.466 90.8575 280.954 91.5023 279.988C91.5974 279.841 91.7874 279.812 91.9232 279.914C92.059 280.017 92.0861 280.222 91.9911 280.368C91.2173 281.525 88.6854 281.993 87.1106 281.993L87.1038 281.986Z" fill="white"/>
<path d="M84.4295 278.451C83.7914 278.451 83.194 278.399 82.6849 278.29C82.522 278.253 82.4134 278.085 82.4474 277.909C82.4813 277.733 82.6374 277.616 82.8003 277.653C85.0539 278.114 88.5633 277.492 89.4526 276.108C89.5476 275.962 89.7309 275.925 89.8666 276.028C90.0024 276.13 90.0363 276.328 89.9413 276.474C89.0656 277.843 86.5405 278.443 84.4295 278.443V278.451Z" fill="white"/>
<path d="M83.3772 274.403C82.2639 274.403 81.3679 274.278 81.1575 274.249C80.9946 274.227 80.8792 274.059 80.8995 273.883C80.9199 273.707 81.0692 273.583 81.2389 273.605C82.9631 273.861 86.2349 273.942 87.5585 272.617C87.6807 272.492 87.8708 272.5 87.9794 272.632C88.0948 272.763 88.088 272.968 87.9658 273.085C86.9001 274.154 84.9316 274.396 83.3772 274.396V274.403Z" fill="white"/>
<path d="M21.1588 163.907C20.8194 164.617 18.7694 164.903 17.792 160.372C17.5883 159.413 16.9299 157.825 17.1132 156.881C17.7784 157.766 21.6339 162.905 21.1588 163.907Z" fill="#F69885"/>
<path d="M20.7854 167.596C21.1451 167.516 21.7017 166.659 20.8736 165.049C20.3917 164.112 19.5024 163.263 18.9458 162.378C17.2488 159.684 17.6629 156.061 16.3868 153.111C15.9931 153.499 16.027 154.165 15.9863 154.736C15.898 155.944 15.3482 157.064 15.3211 158.271C15.226 162.348 19.7604 167.823 20.7922 167.582L20.7854 167.596Z" fill="#F69885"/>
<path d="M23.6499 145.806L27.7295 133.26C27.7906 133.07 27.7023 132.865 27.5258 132.799L20.8261 130.223C20.6361 130.15 20.4324 130.274 20.3849 130.486L17.724 143.544C17.629 144.013 17.4864 144.467 17.2964 144.898C17.2556 144.986 17.2217 145.074 17.1878 145.155C10.7053 160.723 13.7599 162.883 17.5611 168.489C17.8123 168.863 18.2806 168.914 18.5725 168.584C20.894 165.979 12.538 163.38 17.9548 154.436C19.3667 152.101 22.143 153.111 21.7289 157.429C21.2334 162.553 25.1704 157.737 24.4781 154.238C23.8332 150.974 23.935 149.89 23.616 148.463C23.5345 148.112 23.5006 147.709 23.4667 147.277C23.4327 146.78 23.4938 146.282 23.6499 145.806Z" fill="#F69885"/>
<path d="M46.2607 66.1404C46.6952 71.3226 48.9963 66.1331 26.7657 144.013C26.6299 144.496 26.2566 144.877 25.8018 144.994C22.1431 145.945 18.8645 145.096 16.0475 142.527C15.6674 142.183 15.4977 141.627 15.6131 141.1C27.4716 86.4228 25.4828 79.4766 29.3112 67.6848C31.4562 61.0826 37.1377 56.5811 40.9526 55.2124C43.7899 54.195 45.7516 60.0872 46.2607 66.1477V66.1404Z" fill="#FCB32B"/>
<path d="M22.9645 145.682C20.3715 145.682 17.9957 144.708 15.8575 142.761C15.3959 142.344 15.1923 141.656 15.328 141.019C22.1974 109.333 24.3764 93.9839 25.8154 83.8317C26.8472 76.5634 27.4174 72.5523 29.0329 67.5677C31.3069 60.5702 37.3482 56.1566 40.8576 54.8976C41.5499 54.6487 42.2219 54.7512 42.86 55.1977C45.0389 56.7348 46.2065 62.0341 46.5527 66.1038C46.5866 66.5283 46.6341 66.887 46.6816 67.2237C47.2111 71.0811 47.4283 72.6767 27.0441 144.093C26.8744 144.686 26.4263 145.14 25.8697 145.286C24.8719 145.543 23.9012 145.674 22.9645 145.674V145.682ZM41.5907 55.4027C41.4142 55.4027 41.2309 55.4393 41.0476 55.5051C37.6468 56.7275 31.7888 61.0021 29.5895 67.78C27.9876 72.7133 27.4242 76.6952 26.3992 83.9268C24.9601 94.0937 22.7812 109.45 15.905 141.166C15.8167 141.575 15.9457 142.015 16.2444 142.278C19.0071 144.789 22.1974 145.601 25.7407 144.679C26.0937 144.584 26.3856 144.291 26.4942 143.918C46.8446 72.6402 46.6138 70.9713 46.1182 67.3262C46.0707 66.9748 46.0232 66.6089 45.9825 66.1697C45.5548 61.0753 44.1769 56.8812 42.5545 55.7394C42.2423 55.5198 41.93 55.41 41.6042 55.41L41.5907 55.4027Z" fill="#FCB32B"/>
<path d="M24.2269 144.569C24.2269 144.569 24.1726 144.569 24.1387 144.554C23.9825 144.503 23.8943 144.328 23.9418 144.159C25.2451 139.599 25.9307 137.235 26.6163 134.878C27.3019 132.521 27.9874 130.157 29.2907 125.597C32.1892 115.437 33.1802 109.955 33.8319 106.325C34.4496 102.899 34.8229 100.828 36.2144 97.7534C36.805 96.4505 37.5313 95.1843 38.2305 93.9546C39.8324 91.1585 41.3462 88.5162 41.4548 85.4127C41.4548 85.237 41.5973 85.1053 41.7602 85.1053C41.9231 85.1053 42.0453 85.259 42.0453 85.4347C41.9299 88.6992 40.3076 91.5391 38.7328 94.284C38.0336 95.499 37.3209 96.7506 36.7439 98.0242C35.3863 101.025 35.0198 103.067 34.4088 106.442C33.7504 110.087 32.7594 115.584 29.8541 125.78C28.5508 130.34 27.8652 132.704 27.1797 135.061C26.4941 137.418 25.8085 139.782 24.5052 144.342C24.4645 144.481 24.3491 144.562 24.2269 144.562V144.569Z" fill="#E59A24"/>
<path d="M31.4696 70.5102C31.4696 70.5102 31.4425 70.5102 31.4221 70.5102C31.2592 70.4809 31.1506 70.3199 31.1777 70.1515C31.7547 66.1697 32.5489 60.7166 37.7621 58.5061C37.9114 58.4403 38.0811 58.5208 38.1422 58.6818C38.2033 58.8428 38.1286 59.0258 37.9793 59.0917C33.0784 61.1704 32.3453 66.2063 31.7547 70.2466C31.7344 70.4004 31.6054 70.5102 31.4628 70.5102H31.4696Z" fill="#E59A24"/>
<path d="M82.3795 111.668C83.9475 121.857 94.1838 134.329 96.1319 190.763C96.8922 212.78 96.6207 235.097 101.664 256.448C102.743 261.023 107.061 267.252 103.836 271.76C99.6005 275.201 93.8987 270.963 91.2717 268.767C82.0876 261.096 68.9732 259.317 58.3161 264.309C47.6522 269.301 47.8966 271.131 36.1127 267.288C25.4217 263.797 13.7735 267.874 2.74308 269.799C1.79955 269.967 0.971453 269.089 1.12079 268.064C2.5259 258.651 9.7415 251.215 14.1401 242.717C19.5501 232.257 21.1656 229.549 42.249 108.733C43.2537 102.98 42.4391 98.4122 41.9843 92.2491C65.8576 102.248 74.166 93.6765 83.9882 95.2355C82.9497 101.582 81.307 104.758 82.3659 111.668H82.3795Z" fill="#FCB32B"/>
<path d="M100.171 273.385C97.6116 273.385 94.5774 271.929 91.0952 269.016C82.0536 261.462 68.9325 259.683 58.4383 264.595C56.6666 265.422 55.214 266.161 53.9243 266.805C47.4893 270.055 45.962 270.824 36.038 267.581C27.716 264.865 18.7151 266.791 10.0061 268.657C7.63035 269.162 5.1799 269.689 2.79732 270.106C2.25429 270.201 1.71125 270.011 1.31755 269.587C0.930639 269.169 0.754143 268.591 0.842387 268.013C1.7927 261.645 5.42425 256.097 8.93363 250.731C10.6578 248.089 12.443 245.359 13.8956 242.563L13.9771 242.402C19.231 232.25 21.0027 228.824 41.9707 108.674C42.7581 104.158 42.4119 100.345 42.0114 95.9308C41.9028 94.7597 41.7942 93.552 41.6991 92.2711L41.6652 91.7661L42.0997 91.949C58.1057 98.6464 67.0386 96.9776 74.2203 95.6308C77.7433 94.972 80.791 94.4011 84.0425 94.9134L84.3411 94.9574L84.2868 95.2794C84.0085 96.9995 83.6895 98.4561 83.3773 99.8687C82.5559 103.638 81.9043 106.617 82.6645 111.602C83.0515 114.127 83.995 116.843 85.1964 120.29C88.8484 130.801 94.9575 148.397 96.4237 190.741C96.5459 194.335 96.6477 198.002 96.7428 201.552C97.2315 219.733 97.7338 238.53 101.949 256.36C102.241 257.59 102.77 258.944 103.327 260.379C104.82 264.199 106.511 268.525 104.067 271.943L104.013 272.002C102.886 272.917 101.603 273.378 100.171 273.378V273.385ZM71.0571 261.213C78.3677 261.213 85.7191 263.724 91.4549 268.518C96.6341 272.844 100.727 273.861 103.633 271.534C105.832 268.408 104.284 264.456 102.791 260.635C102.221 259.178 101.684 257.802 101.386 256.529C97.1568 238.632 96.6545 219.799 96.159 201.581C96.0639 198.038 95.9621 194.371 95.84 190.777C94.3806 148.536 88.285 131.006 84.6466 120.524C83.4384 117.048 82.488 114.303 82.0875 111.719C81.3001 106.61 81.9654 103.572 82.8071 99.737C83.0922 98.4268 83.3908 97.0654 83.6556 95.5063C80.6078 95.0891 77.6822 95.6307 74.3221 96.2602C67.1337 97.607 58.2075 99.2759 42.3236 92.7249C42.4119 93.8155 42.5001 94.8622 42.5952 95.8723C43.0024 100.337 43.3486 104.187 42.5476 108.799C21.5593 229.051 19.9234 232.22 14.4862 242.717L14.4047 242.878C12.9453 245.703 11.1465 248.448 9.41559 251.097C5.94694 256.404 2.35609 261.894 1.42614 268.115C1.37184 268.496 1.48046 268.869 1.7384 269.147C1.99635 269.426 2.34931 269.55 2.70908 269.484C5.07808 269.074 7.52855 268.547 9.89755 268.042C18.6744 266.168 27.7499 264.221 36.2145 266.988C45.928 270.157 47.2653 269.484 53.6867 266.242C54.9764 265.59 56.4358 264.851 58.2143 264.024C62.2395 262.135 66.6449 261.22 71.0707 261.22L71.0571 261.213Z" fill="#FCB32B"/>
<path d="M98.9829 76.622C94.0955 46.5315 74.1525 50.828 80.2956 77.2002C85.4409 99.2832 86.045 104.114 89.6494 108.279C92.0999 111.119 96.2473 114.105 99.268 110.636C101.983 107.518 100.021 99.9786 99.6481 96.3554C98.9693 89.7459 100.055 83.1657 98.9897 76.6147L98.9829 76.622Z" fill="#FCB32B"/>
<path d="M96.098 112.517C93.2132 112.517 90.4776 109.699 89.4323 108.491C86.3505 104.927 85.4545 101.025 82.142 86.518C81.5243 83.8244 80.8251 80.7648 80.0106 77.2734C77.8791 68.1167 78.6869 60.5776 82.1691 57.1008C83.8458 55.432 85.9908 54.9489 88.1968 55.754C93.315 57.6205 97.4556 65.3938 99.268 76.5561C99.8586 80.1866 99.7907 83.8756 99.7296 87.4402C99.6821 90.3534 99.6278 93.3617 99.9265 96.3188C100.001 97.0215 100.137 97.9071 100.279 98.8367C100.897 102.804 101.746 108.228 99.4649 110.848C98.5078 111.953 97.3674 112.51 96.0845 112.51L96.098 112.517ZM86.1401 56.0175C84.83 56.0175 83.6014 56.5445 82.5696 57.5693C79.2435 60.8777 78.5036 68.1899 80.5808 77.1197C81.3953 80.6111 82.0944 83.6707 82.7122 86.3716C86.0043 100.754 86.8868 104.619 89.8667 108.067C90.8577 109.216 93.4507 111.88 96.098 111.887C97.2181 111.887 98.2159 111.397 99.0576 110.424C101.135 108.037 100.32 102.782 99.716 98.9538C99.5667 98.0096 99.4309 97.124 99.3563 96.3993C99.0508 93.3983 99.1051 90.3681 99.1526 87.4402C99.2137 83.9049 99.2748 80.2451 98.6978 76.6805C96.6071 63.8128 91.808 57.7522 88.0136 56.3689C87.3823 56.1346 86.751 56.0248 86.1401 56.0248V56.0175Z" fill="#5D5F70"/>
<path d="M96.3966 97.4533C96.3491 97.4533 96.2948 97.4387 96.254 97.4094C96.1115 97.3215 96.064 97.1312 96.1454 96.9775C97.2722 94.8476 97.7949 92.3296 97.6116 89.8849C97.598 89.7092 97.7202 89.5555 97.8832 89.5409C98.0461 89.5336 98.1886 89.658 98.2022 89.8337C98.399 92.4028 97.8492 95.0525 96.6613 97.2923C96.607 97.3947 96.5052 97.4533 96.4034 97.4533H96.3966Z" fill="#E59A24"/>
<path d="M93.2538 69.9319C93.1112 69.9319 92.989 69.8221 92.9619 69.6611C92.5071 66.3234 91.1291 63.0735 89.086 60.5117C88.9773 60.3799 88.9909 60.1823 89.1199 60.0652C89.2421 59.9481 89.4254 59.9627 89.534 60.1018C91.6518 62.7515 93.0773 66.1111 93.5457 69.5733C93.566 69.7489 93.4574 69.9099 93.3013 69.9319C93.2877 69.9319 93.2741 69.9319 93.2606 69.9319H93.2538Z" fill="#E59A24"/>
<path d="M55.112 50.4912C52.0439 51.1646 48.1612 52.5187 41.38 55.0732C37.8706 76.8342 44.3395 94.4157 42.0452 109.933C56.6257 116.177 69.0681 118.892 82.5829 112.802C80.7773 101.062 91.5702 70.1514 85.2031 55.6588C80.6144 53.5361 76.3447 51.2378 70.4935 49.9276C65.7012 58.4988 62.0357 57.0202 55.112 50.4985V50.4912Z" fill="#FCB32B"/>
<path d="M66.9706 116.557C58.8794 116.557 50.7881 114.017 41.9434 110.226L41.7262 110.131L41.7602 109.882C42.7919 102.921 42.0317 95.4258 41.2307 87.4987C40.26 77.8882 39.1603 67.0041 41.0949 55.022L41.1221 54.839L41.285 54.7805C47.7811 52.3358 51.9014 50.8865 55.0578 50.1911L55.2003 50.1618L55.3089 50.2643C59.0898 53.8216 61.9408 55.937 64.4863 55.5124C66.4073 55.1904 68.24 53.3605 70.2492 49.7666L70.3579 49.5763L70.5615 49.6202C75.5099 50.7255 79.3926 52.57 83.1532 54.3486C83.8727 54.6926 84.599 55.0367 85.3321 55.3734L85.4339 55.4173L85.4814 55.5271C89.3709 64.3837 86.9476 79.1399 84.8094 92.154C83.4586 100.388 82.1757 108.169 82.8816 112.751L82.9223 113L82.7052 113.095C77.3291 115.518 72.1566 116.557 66.9774 116.557H66.9706ZM42.3779 109.735C56.5783 115.789 68.8238 118.577 82.2639 112.605C81.6191 107.898 82.8273 100.535 84.2257 92.0369C86.3435 79.1691 88.7329 64.5813 84.9927 55.893C84.2936 55.571 83.6012 55.2416 82.9156 54.9122C79.2365 53.1702 75.442 51.3696 70.6429 50.2717C68.5523 53.9607 66.6788 55.7686 64.5745 56.12C61.8322 56.5811 58.8862 54.4438 55.0306 50.8279C51.9489 51.5233 47.9236 52.9433 41.6447 55.3075C39.7713 67.1285 40.8573 77.9102 41.8212 87.4256C42.6154 95.3014 43.3689 102.753 42.3846 109.728L42.3779 109.735Z" fill="#FCB32B"/>
<path d="M58.8185 62.971C58.676 62.971 58.547 62.9052 58.452 62.7881C56.0558 59.7578 52.7704 55.6003 51.3585 51.7209C51.2974 51.5599 51.3721 51.3769 51.5215 51.311C51.6708 51.2452 51.8405 51.3257 51.9016 51.4867C53.2592 55.2124 56.4359 59.2527 58.7914 62.2391C59.6942 60.2628 60.9839 58.6306 62.6334 57.3789C62.8981 57.1813 63.251 57.1959 63.5022 57.4155C64.9073 58.6672 65.9255 60.2262 66.5297 62.0341C69.6521 58.6232 72.6863 54.9196 73.8742 50.9158C73.9218 50.7474 74.0914 50.6596 74.2408 50.7108C74.3969 50.7621 74.4784 50.9451 74.4309 51.1061C73.1887 55.2855 70.0458 59.099 66.8351 62.6051C66.7129 62.7368 66.55 62.7881 66.3803 62.7441C66.2174 62.7002 66.0817 62.5758 66.0273 62.4001C65.4707 60.6288 64.4933 59.121 63.1289 57.8986C63.0881 57.862 63.0135 57.8547 62.966 57.8913C61.3572 59.1064 60.1083 60.7093 59.2462 62.649C59.1715 62.81 59.0357 62.9271 58.866 62.9491C58.8457 62.9491 58.8253 62.9491 58.8049 62.9491L58.8185 62.971Z" fill="#D1AB9B"/>
<path d="M53.0621 266.893C46.6068 257.114 44.5907 240.47 46.9529 228.1C46.9869 227.938 46.7357 227.895 46.6679 228.041C40.5519 241.018 36.1194 267.288 36.1194 267.288C43.4911 270.15 47.6928 270.07 53.0621 266.9V266.893Z" fill="#E59A24"/>
<path d="M25.7408 265.941C25.4896 255.248 27.3291 251.654 31.4223 242.021C31.4494 241.955 31.3748 241.897 31.3273 241.948C24.0709 250.958 17.8396 266.783 17.8396 266.783C20.8535 266.198 22.788 266.146 25.7408 265.941Z" fill="#E59A24"/>
<path d="M68.1111 261.652C71.8784 255.943 72.8558 246.208 71.4779 238.984C71.4575 238.888 71.6069 238.859 71.6476 238.947C75.2181 246.523 77.7975 262.216 77.7975 262.216C73.9962 261.542 71.9123 261.323 68.1111 261.645V261.652Z" fill="#E59A24"/>
<path d="M52.2001 103.25C52.2001 103.25 52.1525 103.25 52.1254 103.243C47.6453 101.991 43.8577 98.1121 42.4661 93.3617C42.4186 93.1934 42.5001 93.0177 42.6562 92.9665C42.8123 92.9152 42.9752 93.003 43.0227 93.1714C44.3532 97.7241 47.9847 101.442 52.2679 102.636C52.4241 102.679 52.5191 102.855 52.4784 103.023C52.4444 103.163 52.3223 103.258 52.1933 103.258L52.2001 103.25Z" fill="#E59A24"/>
<path d="M74.003 104.897C73.8876 104.897 73.7858 104.824 73.7383 104.707C73.6704 104.546 73.7383 104.363 73.8876 104.29C77.9197 102.357 81.2865 98.7635 83.1125 94.4303C83.1803 94.2693 83.3568 94.2034 83.4994 94.2766C83.6487 94.3498 83.7098 94.5328 83.6419 94.6939C81.7549 99.1661 78.2862 102.877 74.1184 104.868C74.0777 104.89 74.037 104.897 73.9962 104.897H74.003Z" fill="#E59A24"/>
<path d="M68.9663 148.961C68.8577 148.961 68.7559 148.895 68.7016 148.785C68.6337 148.631 68.6947 148.441 68.8373 148.361C75.8357 144.708 81.2796 138.062 83.7844 130.128C83.8387 129.959 84.0016 129.872 84.1577 129.93C84.3139 129.989 84.3953 130.164 84.341 130.333C81.7887 138.428 76.2362 145.206 69.0952 148.932C69.0545 148.953 69.0138 148.961 68.9663 148.961Z" fill="#E59A24"/>
<path d="M54.6574 170.326C54.5963 170.326 54.5352 170.305 54.4809 170.261C48.4667 165.283 44.489 157.774 43.5658 149.663C43.5454 149.488 43.6608 149.334 43.8238 149.312C43.9799 149.29 44.1292 149.415 44.1496 149.59C45.0524 157.539 48.9487 164.888 54.8406 169.763C54.9696 169.873 54.99 170.07 54.8949 170.209C54.8406 170.29 54.7524 170.334 54.6642 170.334L54.6574 170.326Z" fill="#E59A24"/>
<path d="M58.153 226.709C58.0784 226.709 58.0105 226.68 57.9562 226.621C57.8408 226.504 57.834 226.299 57.9426 226.174C64.4862 218.577 68.4572 208.286 68.8441 197.928C68.8441 197.753 68.9866 197.614 69.1496 197.628C69.3125 197.628 69.4347 197.782 69.4279 197.958C69.0342 208.461 65.0021 218.906 58.3635 226.606C58.3092 226.672 58.2277 226.709 58.1462 226.709H58.153Z" fill="#E59A24"/>
<path d="M52.2816 10.1826C58.6012 5.32976 72.917 10.2851 71.1793 13.7472C70.3715 15.3575 44.5297 16.1261 52.2816 10.1826Z" fill="#2D2D2D"/>
<path d="M37.7213 63.9885C55.3904 75.2166 69.1564 63.5712 75.0416 62.7515C79.2162 62.1732 94.8353 64.1129 93.7967 61.1412C91.1562 53.5654 77.4784 50.2643 77.0236 48.4052C76.8675 47.7537 76.5282 47.1755 75.958 46.9047C71.1249 44.6064 71.281 42.9155 71.7494 39.4607C71.9463 38.0041 72.3468 36.5842 72.9373 35.2667C79.3519 20.9131 75.2113 12.7957 73.5482 8.76997C71.6068 4.07083 70.1067 1.39921 64.4388 0.725818C43.3486 -1.79942 39.4115 26.4686 50.0415 38.2091C51.2429 39.5339 51.8878 41.3638 51.6163 43.201C51.1343 46.4582 48.8604 46.9706 47.8558 47.622C44.5636 49.7666 48.5617 51.5526 46.2538 52.3724C42.9549 53.5435 37.348 56.0175 34.6804 58.7989C32.61 60.9582 34.0694 61.6682 37.7281 63.9885H37.7213ZM54.6709 11.4343C64.3369 4.68568 74.4239 13.2568 71.5118 31.8191C71.0095 35.0397 69.7877 38.3628 65.2533 42.1324C64.6492 42.6374 63.9433 42.9961 63.1898 43.1571C50.9918 45.8726 43.7423 19.0612 54.6709 11.427V11.4343Z" fill="#5C4FA1"/>
<path d="M53.4288 69.0755C48.6637 69.0755 43.369 67.8166 37.6264 64.1641L37.0223 63.7835C34.9248 62.4587 33.6554 61.6535 33.5401 60.6288C33.4722 60.0432 33.7844 59.4284 34.5379 58.6379C37.7758 55.2636 44.8081 52.6505 46.186 52.1601C46.5119 52.043 46.7155 51.9039 46.7834 51.7429C46.8784 51.5233 46.7494 51.2013 46.6069 50.8353C46.2539 49.9423 45.7788 48.7199 47.7541 47.4317C47.9441 47.3073 48.1681 47.1901 48.4125 47.073C49.5257 46.5021 51.0462 45.7262 51.4264 43.1644C51.6775 41.4809 51.1073 39.6803 49.9059 38.3555C43.9053 31.724 42.3644 19.5443 46.4033 10.6218C48.3718 6.274 53.3338 -0.818616 64.466 0.513538C70.3715 1.22353 71.831 4.07815 73.7384 8.68213C73.8266 8.8944 73.9217 9.12862 74.0235 9.36284C75.8427 13.6667 79.2298 21.6816 73.1275 35.3545C72.5505 36.65 72.1568 38.0407 71.96 39.49C71.512 42.7911 71.2879 44.4453 76.0531 46.7144C76.6165 46.9852 77.0374 47.5634 77.2274 48.3539C77.3564 48.881 79.2095 49.7666 81.1644 50.7035C85.563 52.8042 92.2153 55.9736 93.9869 61.068C94.0887 61.3681 94.0616 61.6535 93.9055 61.8951C93.0434 63.1979 88.3936 63.154 81.9179 62.9491C79.1009 62.8612 76.44 62.7734 75.0756 62.9637C73.7316 63.1467 71.9124 63.9372 69.8014 64.8522C65.5318 66.6967 59.9928 69.0902 53.4356 69.0902L53.4288 69.0755ZM61.7984 0.762399C52.7228 0.762399 48.5075 6.90347 46.7427 10.7975C42.7717 19.5736 44.2786 31.541 50.1706 38.0554C51.4603 39.4754 52.0644 41.4077 51.7997 43.223C51.3924 46.0117 49.6954 46.8754 48.5686 47.4463C48.3243 47.5708 48.1138 47.6806 47.9441 47.7904C46.2607 48.8883 46.6137 49.7959 46.9531 50.6669C47.1296 51.1061 47.2925 51.5233 47.1296 51.9112C47.0142 52.1894 46.7495 52.3943 46.3015 52.5554C42.5409 53.8948 37.2667 56.3688 34.8026 58.938C34.151 59.6187 33.8727 60.1384 33.9202 60.5776C34.0084 61.3974 35.2167 62.1586 37.2056 63.4175L37.8097 63.7981C51.2974 72.3693 62.3346 67.597 69.6385 64.4423C71.8582 63.4834 73.6162 62.7222 75.0077 62.5319C76.4061 62.3343 79.0805 62.4221 81.9111 62.5099C86.7441 62.6636 92.765 62.8539 93.5728 61.6316C93.6543 61.5071 93.6679 61.3681 93.6068 61.1997C91.8894 56.2664 85.3255 53.1409 80.9879 51.0695C78.3678 49.8252 76.9966 49.1372 76.8269 48.4418C76.7115 47.9734 76.4536 47.3585 75.8698 47.0804C71.0368 44.7747 71.0504 43.062 71.5459 39.4095C71.7495 37.9163 72.15 36.489 72.7473 35.1495C78.7751 21.6597 75.4354 13.7619 73.6434 9.51655C73.5415 9.275 73.4465 9.04809 73.3583 8.82851C71.512 4.35628 70.0933 1.58951 64.405 0.901472C63.4886 0.791679 62.6197 0.740441 61.7916 0.740441L61.7984 0.762399ZM61.459 43.5597C56.4562 43.5597 52.7772 38.7141 50.9037 33.7881C47.9916 26.1319 48.2903 15.6357 54.5692 11.244C58.6488 8.39667 62.9387 8.1478 66.3531 10.5706C71.2472 14.04 73.2497 21.9963 71.7088 31.8484C71.2269 34.9446 70.1204 38.3482 65.3756 42.2934C64.7376 42.8204 63.9977 43.1937 63.2374 43.362C62.6265 43.5011 62.0359 43.5597 61.459 43.5597ZM54.6778 11.427L54.7864 11.6026C48.684 15.8699 48.4193 26.1392 51.2703 33.6344C53.0894 38.4214 56.6531 43.1424 61.4725 43.1424C62.0224 43.1424 62.5858 43.0839 63.1627 42.9522C63.8687 42.7984 64.5543 42.4544 65.1448 41.964C69.7878 38.1066 70.8603 34.7909 71.3355 31.7826C72.8492 22.1061 70.9146 14.3109 66.1495 10.9292C62.8709 8.60894 58.7302 8.85047 54.7932 11.6026L54.6846 11.427H54.6778Z" fill="#5C4FA1"/>
<path d="M68.179 12.4444C68.1179 12.4444 68.0568 12.4151 68.0228 12.3565C67.9617 12.2614 67.9753 12.1296 68.0636 12.0638C69.3533 11.039 69.8284 9.23112 70.2425 7.3134C70.2696 7.20361 70.3715 7.1304 70.4801 7.15968C70.5819 7.18896 70.6498 7.29875 70.6226 7.41587C70.1882 9.4141 69.6859 11.2952 68.2943 12.4078C68.2604 12.4371 68.2197 12.4517 68.179 12.4517V12.4444Z" fill="#46409A"/>
<path d="M53.0555 12.7738C53.0555 12.7738 53.0148 12.7738 52.9944 12.7665C51.5554 12.276 50.6186 10.512 50.9444 8.92371C50.9648 8.80659 51.0734 8.74072 51.1752 8.76268C51.2839 8.78463 51.3449 8.90174 51.3246 9.01154C51.0463 10.3949 51.8608 11.932 53.1166 12.3566C53.2184 12.3932 53.2727 12.5103 53.2456 12.6201C53.2184 12.7079 53.1437 12.7665 53.0623 12.7665L53.0555 12.7738Z" fill="#46409A"/>
<path d="M67.1949 45.3163C67.1338 45.3163 67.0727 45.2871 67.032 45.2212C66.9709 45.126 66.998 44.9943 67.0863 44.9284C69.272 43.3401 70.9215 40.9685 71.7224 38.2603C71.7564 38.1505 71.865 38.0847 71.9668 38.1212C72.0687 38.1578 72.123 38.2749 72.0958 38.3847C71.2677 41.1808 69.5639 43.6255 67.3035 45.2724C67.2696 45.2944 67.2288 45.309 67.1949 45.309V45.3163Z" fill="#46409A"/>
<path d="M56.5987 46.751C56.558 46.751 56.524 46.7364 56.4901 46.7144C54.508 45.2212 51.9421 42.8204 50.9579 39.8926C50.9239 39.7828 50.9715 39.6657 51.0733 39.6218C51.1751 39.5779 51.2837 39.6364 51.3244 39.7462C52.268 42.5716 54.7727 44.9065 56.7141 46.3704C56.8023 46.4363 56.8227 46.568 56.7616 46.6632C56.7209 46.7217 56.6598 46.751 56.5987 46.751Z" fill="#46409A"/>
<path d="M65.878 55.6003C65.7829 55.6003 65.7015 55.5271 65.6879 55.4246C65.6676 55.3075 65.7354 55.1977 65.844 55.1758C70.3037 54.2974 76.1278 51.0622 76.3247 48.6834C76.3314 48.5663 76.4265 48.4784 76.5351 48.4931C76.6437 48.5004 76.7252 48.6028 76.7116 48.72C76.4876 51.516 70.1069 54.7659 65.9187 55.593C65.9051 55.593 65.8916 55.593 65.8848 55.593L65.878 55.6003Z" fill="#46409A"/>
<path d="M55.0376 57.7303C55.0376 57.7303 55.0173 57.7303 55.0037 57.7303C51.9219 57.1667 48.6162 55.0147 46.5798 52.2626C46.5119 52.1748 46.5255 52.0357 46.6137 51.9698C46.6952 51.8966 46.8242 51.9113 46.8853 52.0064C48.8673 54.6854 52.0781 56.7714 55.0715 57.3277C55.1802 57.3497 55.248 57.4595 55.2345 57.5693C55.2209 57.6717 55.1327 57.7449 55.0444 57.7449L55.0376 57.7303Z" fill="#46409A"/>
<path d="M53.7275 53.5435C53.68 53.5435 53.6325 53.5215 53.5917 53.4849C53.3134 53.1995 53.0555 52.9286 52.8111 52.6798C50.2588 50.0594 49.485 49.2689 50.7272 45.309C50.7611 45.1992 50.8698 45.1407 50.9716 45.1773C51.0734 45.2139 51.1277 45.331 51.0938 45.4408C49.933 49.1445 50.5982 49.8252 53.0758 52.3724C53.3202 52.6212 53.5782 52.8921 53.8565 53.1775C53.9311 53.258 53.9379 53.3898 53.8565 53.4776C53.8157 53.5215 53.7682 53.5435 53.7139 53.5435H53.7275Z" fill="#46409A"/>
<path d="M59.6669 65.7818C59.4158 65.7818 59.151 65.7671 58.8727 65.7305C58.7641 65.7159 58.6894 65.6134 58.703 65.4963C58.7166 65.3792 58.8116 65.2987 58.9202 65.3133C60.9159 65.5622 62.3074 64.7716 63.923 63.8494C66.2173 62.5392 69.075 60.8996 74.7837 61.8438C74.8923 61.8585 74.967 61.9683 74.9466 62.0854C74.933 62.2025 74.8312 62.283 74.7226 62.261C69.1429 61.3461 66.4685 62.8759 64.1062 64.2227C62.6536 65.0571 61.3707 65.7891 59.6669 65.7891V65.7818Z" fill="#46409A"/>
<path d="M86.1467 60.6434C86.1467 60.6434 86.1331 60.6434 86.1196 60.6434C86.011 60.6288 85.9363 60.519 85.9499 60.4092C86.1331 58.8721 85.1489 56.9032 82.5355 56.1932C82.4337 56.1639 82.3658 56.0468 82.393 55.937C82.4201 55.8272 82.5219 55.754 82.6305 55.7833C85.4679 56.5518 86.5404 58.7477 86.3368 60.4604C86.3232 60.5629 86.2418 60.6434 86.1399 60.6434H86.1467Z" fill="#46409A"/>
<path d="M51.1413 64.4569C43.9053 64.2886 39.0112 62.7003 37.7079 60.1092C37.2531 59.2089 37.2802 58.2207 37.7893 57.335C38.7396 55.6735 41.0747 54.6634 43.7424 54.7586C43.851 54.7586 43.9324 54.861 43.9324 54.9782C43.9324 55.0953 43.8306 55.1977 43.7288 55.1831C41.2376 55.0953 38.984 56.0468 38.1219 57.5546C37.6875 58.3159 37.6604 59.1283 38.0541 59.9042C38.6378 61.068 41.0883 63.7982 51.148 64.0324C51.2566 64.0324 51.3381 64.1349 51.3381 64.2447C51.3381 64.3618 51.2499 64.4496 51.1413 64.4496V64.4569Z" fill="#46409A"/>
<path d="M69.365 72.3522L60.1394 119.154C60.011 119.806 59.4152 120.223 58.811 120.085L30.473 113.589L40.1644 64.4246L68.5024 70.9197C69.1066 71.0582 69.4935 71.7007 69.365 72.3522Z" fill="#E0DFDF"/>
<path d="M30.961 113.697L40.6523 64.5327L37.2728 63.7581L27.5814 112.923L30.961 113.697Z" fill="#A1B1D0"/>
<path d="M47.9509 96.5165C45.6837 95.9968 44.2379 93.596 44.7198 91.1512C45.2018 88.7065 47.4283 87.1475 49.6954 87.6672C51.9626 88.1869 53.4084 90.5876 52.9265 93.0324C52.4445 95.4771 50.2181 97.0362 47.9509 96.5165Z" fill="white"/>
<path d="M59.8569 102.335C58.7436 99.4077 58.5196 94.467 58.6622 94.5036C55.5737 93.7277 53.6255 98.8733 50.9579 93.7131C49.8921 91.4733 41.0406 84.1391 42.6019 87.5061C43.1789 88.7578 44.7469 90.9024 44.0138 90.4046C38.8685 86.9206 33.282 81.7164 33.9133 84.1904C34.1916 85.2737 41.3257 91.5685 40.6266 91.0707C40.4636 90.9536 32.1348 84.732 31.938 84.7466C29.2567 84.9516 34.497 88.7212 38.9771 92.6737C39.5473 93.1787 30.9945 87.8135 30.9877 87.8135C29.2364 88.6333 31.9515 90.068 39.0993 95.4405C40.0632 96.1651 30.6686 90.1338 32.1077 93.4276C40.7623 100.249 46.0027 101.999 47.9169 102.445C48.7518 102.965 59.8569 102.335 59.8569 102.335Z" fill="#F69787"/>
<path d="M39.554 95.3819C40.6333 96.0992 41.8008 96.6555 43.0159 97.0361C43.6879 97.2484 43.1245 98.3536 39.3029 95.8284C39.0313 95.6454 39.2825 95.2062 39.554 95.3892V95.3819Z" fill="#EC7957"/>
<path d="M40.0156 92.908C41.3189 93.9181 42.7647 94.6866 44.2988 95.1917C44.6043 95.2868 44.4617 95.7845 44.163 95.6894C39.235 94.0864 39.3096 92.3663 40.0156 92.9153V92.908Z" fill="#EC7957"/>
<path d="M41.5295 91.3635C42.3576 92.3297 43.5319 92.9592 44.747 93.0909C45.066 93.1275 45.0117 93.6399 44.6994 93.6106C43.369 93.4715 42.0861 92.7762 41.1765 91.7222C40.9593 91.4733 41.3123 91.122 41.5295 91.3708V91.3635Z" fill="#EC7957"/>
<path d="M44.4822 91.2171C44.3057 90.9317 44.7129 90.6462 44.8826 90.9317C45.5071 91.9637 46.8511 92.864 48.134 93.1056C48.4531 93.1641 48.3648 93.6765 48.0526 93.6179C46.6203 93.3471 45.1609 92.3443 44.4754 91.2171H44.4822Z" fill="#EC7957"/>
<path d="M53.2457 103.653C53.2729 104.195 53.5987 104.67 54.0806 104.839C67.1882 109.465 90.0908 115.013 94.3672 113.791C96.9127 113.066 100.184 110.899 100.395 107.891C101.325 94.2474 66.0071 92.5273 55.8387 93.1787C55.4314 93.208 55.0649 93.4495 54.8612 93.8301C53.1167 97.0288 53.0828 99.942 53.2525 103.653H53.2457Z" fill="#FCB32B"/>
<path d="M92.6497 114.274C85.5291 114.274 65.1992 109.091 53.9855 105.139C53.3949 104.934 52.9808 104.341 52.9537 103.668C52.784 100.022 52.7976 96.9702 54.6032 93.6691C54.8611 93.1933 55.3159 92.8932 55.8182 92.864C64.4796 92.3077 90.6812 93.4275 98.4738 101.947C100.089 103.719 100.836 105.724 100.687 107.913C100.476 110.994 97.3062 113.278 94.4417 114.091C94.0141 114.215 93.4032 114.274 92.6565 114.274H92.6497ZM60.244 93.3763C58.513 93.3763 57.0197 93.4202 55.8454 93.4934C55.5399 93.5154 55.2616 93.6984 55.1055 93.9911C53.3813 97.1459 53.3677 99.9785 53.5374 103.638C53.5578 104.048 53.809 104.414 54.1687 104.539C66.5228 108.894 85.9636 113.651 92.6226 113.651C93.3285 113.651 93.8919 113.6 94.2856 113.483C96.5121 112.846 99.8925 110.826 100.096 107.869C100.232 105.871 99.5463 104.026 98.0529 102.394C91.4482 95.1696 71.1929 93.3763 60.2508 93.3763H60.244Z" fill="#FCB32B"/>
<path d="M76.9628 101.567C76.7863 101.56 76.6641 101.413 76.6709 101.237C76.766 98.9099 74.6278 97.7461 72.5642 96.6262C71.5324 96.0626 70.555 95.5356 69.8898 94.8695C69.7676 94.7524 69.7608 94.5548 69.8762 94.423C69.9848 94.2913 70.1748 94.284 70.2902 94.4084C70.8943 95.0086 71.8379 95.521 72.8289 96.0626C74.9603 97.2191 77.3701 98.5293 77.2615 101.267C77.2547 101.435 77.1257 101.567 76.9696 101.567H76.9628Z" fill="#E59A24"/>
<path d="M91.4143 112.209C89.3304 112.209 86.9343 111.58 84.3549 110.907C83.6761 110.731 82.9769 110.548 82.2777 110.372C82.1216 110.336 82.0198 110.167 82.0605 109.992C82.0945 109.823 82.2573 109.714 82.4135 109.757C83.1194 109.933 83.8118 110.116 84.4974 110.292C89.3033 111.551 93.4507 112.641 95.8808 109.677C95.9894 109.545 96.1727 109.531 96.2949 109.648C96.417 109.765 96.4306 109.962 96.322 110.094C95.0323 111.661 93.3625 112.209 91.4211 112.209H91.4143Z" fill="#E59A24"/>
</svg>
