<svg width="21" height="22" viewBox="0 0 21 22" fill="none" xmlns="http://www.w3.org/2000/svg">
<path d="M18.3018 0.460419H2.75759C1.75899 0.460419 0.949463 1.35726 0.949463 2.46357V19.6844C0.949463 20.7907 1.75899 21.6875 2.75759 21.6875H18.3018C19.3004 21.6875 20.1099 20.7907 20.1099 19.6844V2.46357C20.1099 1.35726 19.3004 0.460419 18.3018 0.460419Z" fill="#675FA6"/>
<path d="M15.9447 6.7111C15.9163 6.56428 15.8785 6.41745 15.8501 6.27062C15.7365 5.75672 15.5093 5.30575 15.1969 4.89673C14.9697 4.61356 14.7141 4.36186 14.4206 4.17308C14.0135 3.91089 13.5591 4.02625 13.2562 4.42478C12.726 5.13795 12.1865 5.85111 11.6658 6.57476C11.3439 7.01525 11.3913 7.62353 11.7983 8.01158C12.0823 8.29475 12.3853 8.55694 12.6882 8.82962C12.7261 8.86108 12.7734 8.89255 12.8018 8.91352C12.0918 11.0216 10.8895 12.6576 9.16662 13.8323C8.95835 13.6435 8.7406 13.4337 8.52287 13.2345C8.40927 13.1296 8.29568 13.0247 8.18208 12.9303C7.83182 12.6367 7.4342 12.6052 7.07447 12.8674C6.96087 12.9513 6.86621 13.0771 6.78101 13.1925C6.29821 13.8427 5.82489 14.493 5.34209 15.1327C5.19063 15.332 5.09597 15.5627 5.05811 15.8249L5.0865 16.1081C5.1717 16.2654 5.22849 16.4647 5.34209 16.5905C5.62609 16.9052 5.93848 17.1778 6.30768 17.3666C6.74314 17.5869 7.19754 17.7127 7.67088 17.6708C7.98327 17.6393 8.29568 17.5659 8.59862 17.4715C9.37488 17.2303 10.0943 16.8213 10.757 16.3178C11.4197 15.8249 12.0255 15.2481 12.5746 14.6083C13.3225 13.7484 13.9851 12.8149 14.591 11.8186C15.0643 11.0425 15.4714 10.2245 15.7459 9.32254C15.8784 8.87157 15.9731 8.41011 16.0015 7.92768C16.011 7.7389 16.0204 7.53963 16.0204 7.35085L15.9637 6.69013L15.9447 6.7111Z" fill="white"/>
</svg>
