<svg width="49" height="34" viewBox="0 0 49 34" fill="none" xmlns="http://www.w3.org/2000/svg">
<path d="M0.218704 4.92922V24.8454C0.218704 27.4778 2.14989 29.6173 4.52601 29.6173H37.167L47.0217 33.5292C48.0346 33.9277 49.0002 32.8265 48.6121 31.7253L44.8823 21.0593V4.92922C44.8823 2.29681 42.9511 0.157318 40.5749 0.157318H4.51656C2.14044 0.157318 0.209229 2.29681 0.209229 4.92922H0.218704Z" fill="#5C4DA0"/>
<path d="M28.5713 15.4589C28.5713 17.3676 29.9629 18.9093 31.6858 18.9093C33.4087 18.9093 34.8003 17.3676 34.8003 15.4589C34.8003 13.5501 33.4087 12.0084 31.6858 12.0084C29.9629 12.0084 28.5713 13.5501 28.5713 15.4589Z" fill="#4A429A"/>
<path d="M18.7166 15.4589C18.7166 17.3676 20.1081 18.9093 21.8311 18.9093C23.554 18.9093 24.9456 17.3676 24.9456 15.4589C24.9456 13.5501 23.554 12.0084 21.8311 12.0084C20.1081 12.0084 18.7166 13.5501 18.7166 15.4589Z" fill="#4A429A"/>
<path d="M8.86182 15.4589C8.86182 17.3676 10.2534 18.9093 11.9763 18.9093C13.6992 18.9093 15.0908 17.3676 15.0908 15.4589C15.0908 13.5501 13.6992 12.0084 11.9763 12.0084C10.2534 12.0084 8.86182 13.5501 8.86182 15.4589Z" fill="#4A429A"/>
</svg>
