<svg width="71" height="59" viewBox="0 0 71 59" fill="none" xmlns="http://www.w3.org/2000/svg">
<path d="M6.30616 0.142761H64.933C67.9812 0.142761 70.452 2.88004 70.452 6.25708V50.0852C70.452 54.8991 66.9304 58.8005 62.5853 58.8005H8.65387C4.30869 58.8005 0.787109 54.8991 0.787109 50.0852V6.25708C0.787109 2.88004 3.2579 0.142761 6.30616 0.142761Z" fill="white"/>
<path d="M6.30616 0.142761H64.933C67.9812 0.142761 70.452 2.88004 70.452 6.25708V7.14854H0.787109V6.25708C0.787109 2.88004 3.2579 0.142761 6.30616 0.142761Z" fill="#493293"/>
<path d="M5.49193 3.64566C5.49193 4.14907 5.12272 4.55808 4.66833 4.55808C4.21393 4.55808 3.84473 4.14907 3.84473 3.64566C3.84473 3.14225 4.21393 2.73323 4.66833 2.73323C5.12272 2.73323 5.49193 3.14225 5.49193 3.64566Z" fill="#010101"/>
<path d="M8.82408 4.55808C9.27894 4.55808 9.64768 4.14958 9.64768 3.64566C9.64768 3.14173 9.27894 2.73323 8.82408 2.73323C8.36922 2.73323 8.00049 3.14173 8.00049 3.64566C8.00049 4.14958 8.36922 4.55808 8.82408 4.55808Z" fill="white"/>
<path d="M13.3302 4.55808C13.7851 4.55808 14.1538 4.14958 14.1538 3.64566C14.1538 3.14173 13.7851 2.73323 13.3302 2.73323C12.8753 2.73323 12.5066 3.14173 12.5066 3.64566C12.5066 4.14958 12.8753 4.55808 13.3302 4.55808Z" fill="#C7B7DA"/>
<path d="M7.84922 49.6342H3.77856V54.1439H7.84922V49.6342Z" fill="#493293"/>
<path d="M5.31226 52.6547V51.113" stroke="white" stroke-width="0.64" stroke-miterlimit="10"/>
<path d="M6.30615 52.6547V51.113" stroke="white" stroke-width="0.64" stroke-miterlimit="10"/>
<path d="M65.1507 50.7879H9.1272V53.2735H65.1507V50.7879Z" fill="#E5DBED"/>
<path d="M32.4056 50.7879H9.1272V53.2735H32.4056V50.7879Z" fill="#493293"/>
<path d="M68.9563 14.1648V34.3851" stroke="#9A89C1" stroke-linecap="round" stroke-linejoin="round"/>
<path d="M68.9563 10.0222V12.0358" stroke="#9A89C1" stroke-linecap="round" stroke-linejoin="round"/>
<path d="M11.21 57.479H33.0968" stroke="#9A89C1" stroke-linecap="round" stroke-linejoin="round"/>
<path d="M40.4426 40.7755C45.7901 38.3531 48.3525 31.5867 46.1659 25.6625C43.9792 19.7383 37.8717 16.8995 32.5242 19.322C27.1768 21.7445 24.6144 28.5108 26.801 34.435C28.9876 40.3592 35.0952 43.198 40.4426 40.7755Z" fill="#493293"/>
<path d="M33.2859 34.5215V25.5859L40.8308 29.2356L33.2859 34.5215Z" fill="white"/>
<path d="M29.0259 25.1664C30.2755 22.0411 33.4089 19.9855 36.4761 20.2687" stroke="#9A89C1" stroke-linecap="round" stroke-linejoin="round"/>
</svg>
