<svg width="148" height="322" viewBox="0 0 148 322" fill="none" xmlns="http://www.w3.org/2000/svg">
<path fill-rule="evenodd" clip-rule="evenodd" d="M73.8466 313.985C75.1029 313.985 76.3494 313.945 77.586 313.875H140.603V239.658C140.603 215.887 128.247 194.884 109.698 182.879L109.648 182.849C108.966 182.409 108.273 181.98 107.571 181.56C85.52 167.538 85.52 154.374 107.551 140.352C108.253 139.932 108.956 139.503 109.638 139.063L109.678 139.033C128.227 127.028 140.583 106.024 140.583 82.2541V8.03674H77.5662C76.3296 7.96683 75.0832 7.92688 73.8268 7.92688C72.5704 7.92688 71.3239 7.96683 70.0873 8.03674H7.0708V82.2541C7.0708 106.024 19.4268 127.028 37.9756 139.033L38.0251 139.063C38.7077 139.503 39.4101 139.932 40.1124 140.352C62.1534 154.374 62.1534 167.538 40.0927 181.56C39.3903 181.98 38.7077 182.399 38.0251 182.839L37.9756 182.869C19.4268 194.874 7.0708 215.877 7.0708 239.648V313.865H70.0873C71.3239 313.935 72.5704 313.975 73.8268 313.975L73.8466 313.985Z" fill="white"/>
<path fill-rule="evenodd" clip-rule="evenodd" d="M46.5728 286.469H64.904C76.706 286.469 77.1907 275.693 85.4313 275.693H122.45C132.471 275.693 134.39 285.161 134.39 285.161V298.145H77.2402C76.1124 298.215 74.9747 298.255 73.8469 298.255C72.7192 298.255 71.5815 298.225 70.4537 298.155H46.5728V286.469Z" fill="#E59A24"/>
<path fill-rule="evenodd" clip-rule="evenodd" d="M22.2462 98.464C16.4986 89.0257 13.3032 78.0494 13.3032 66.5937C13.3032 12.1517 49.8271 70.369 86.9742 73.3353C94.3542 73.9246 100.686 73.1056 106.087 71.4277C107.482 75.3328 108.412 78.2392 108.412 79.0382C108.412 82.3041 76.7254 106.454 71.2349 107.762C65.7346 109.071 37.6096 110.699 25.9758 101.56C24.7788 100.621 23.5323 99.5726 22.2561 98.464H22.2462Z" fill="#E59A24"/>
<path fill-rule="evenodd" clip-rule="evenodd" d="M84.8179 162.224C84.165 152.986 90.6447 143.717 104.247 135.058L104.326 135.008L104.405 134.958C105.039 134.579 105.672 134.189 106.295 133.79L106.354 133.75L106.394 133.72C123.736 122.464 134.38 103.148 134.38 82.2541C134.38 27.8121 97.8564 86.0294 60.7093 88.9957C23.8491 91.932 13.2837 59.942 13.2837 59.942V82.2541C13.2837 103.178 23.9579 122.514 41.2899 133.73L41.3295 133.76C41.9725 134.169 42.6156 134.569 43.2685 134.958L43.3476 135.008L43.4268 135.058C57.0391 143.717 63.509 152.986 62.856 162.224H62.9055V199.538C62.9055 205.61 67.8321 210.584 73.8468 210.584C79.8616 210.584 84.7882 205.61 84.7882 199.538V162.224H84.808H84.8179ZM73.8567 246.329C79.8715 246.329 84.7981 241.356 84.7981 235.283V227.014C84.7981 220.941 79.8715 215.967 73.8567 215.967C67.842 215.967 62.9154 220.941 62.9154 227.014V235.283C62.9154 241.356 67.842 246.329 73.8567 246.329ZM73.8567 255.798C79.8715 255.798 84.7981 260.771 84.7981 266.844V267.443C84.7981 273.515 79.8715 278.489 73.8567 278.489C67.842 278.489 62.9154 273.515 62.9154 267.443V266.844C62.9154 260.771 67.842 255.798 73.8567 255.798Z" fill="#F8B218"/>
<path fill-rule="evenodd" clip-rule="evenodd" d="M134.39 307.613V285.161C134.39 291.363 129.82 295.937 123.033 295.937H82.7799C70.9779 295.937 70.4931 285.161 62.2525 285.161H25.234C15.2126 285.161 13.2935 294.629 13.2935 294.629V307.613H70.4436C71.5714 307.683 72.7091 307.723 73.8368 307.723C74.9646 307.723 76.1023 307.693 77.23 307.623H134.38L134.39 307.613Z" fill="#F8B218"/>
<path fill-rule="evenodd" clip-rule="evenodd" d="M9.02974 0.536133H138.654C143.254 0.536133 147.013 4.33139 147.013 8.9756C147.013 13.6198 143.254 17.4151 138.654 17.4151H9.02974C4.42964 17.4151 0.67041 13.6198 0.67041 8.9756C0.67041 4.33139 4.42964 0.536133 9.02974 0.536133Z" fill="#372F8F"/>
<path fill-rule="evenodd" clip-rule="evenodd" d="M9.02974 321.376H138.654C143.254 321.376 147.013 317.581 147.013 312.936C147.013 308.292 143.254 304.497 138.654 304.497H9.02974C4.42964 304.497 0.67041 308.292 0.67041 312.936C0.67041 317.581 4.42964 321.376 9.02974 321.376Z" fill="#2D2D7E"/>
<path fill-rule="evenodd" clip-rule="evenodd" d="M101.19 0.536133H138.654C143.254 0.536133 147.013 4.33139 147.013 8.9756C147.013 13.6198 143.254 17.4151 138.654 17.4151H101.19C96.5903 17.4151 92.8311 13.6198 92.8311 8.9756C92.8311 4.33139 96.5903 0.536133 101.19 0.536133Z" fill="#5C4FA1"/>
<path fill-rule="evenodd" clip-rule="evenodd" d="M101.19 321.376H138.654C143.254 321.376 147.013 317.581 147.013 312.936C147.013 308.292 143.254 304.497 138.654 304.497H101.19C96.5903 304.497 92.8311 308.292 92.8311 312.936C92.8311 317.581 96.5903 321.376 101.19 321.376Z" fill="#3F3592"/>
</svg>
