<svg width="65" height="139" viewBox="0 0 65 139" fill="none" xmlns="http://www.w3.org/2000/svg">
<path d="M64.9961 131.449V3.83456C64.9961 1.88385 63.5666 0.300201 61.8058 0.300201H3.51032C1.74953 0.300201 0.320068 1.88385 0.320068 3.83456V131.449C0.320068 135.392 3.20739 138.602 6.77631 138.602H58.5493C62.1088 138.602 65.0055 135.403 65.0055 131.449H64.9961Z" fill="white"/>
<path d="M55.3117 97.2171H12.2291C11.4433 97.2171 10.8091 96.5144 10.8091 95.6439C10.8091 94.7734 11.4433 94.0708 12.2291 94.0708H55.3117C56.0974 94.0708 56.7317 94.7734 56.7317 95.6439C56.7317 96.5144 56.0974 97.2171 55.3117 97.2171Z" fill="#E8D3E7"/>
<path d="M55.3117 107.201H12.2291C11.4433 107.201 10.8091 106.499 10.8091 105.628C10.8091 104.758 11.4433 104.055 12.2291 104.055H55.3117C56.0974 104.055 56.7317 104.758 56.7317 105.628C56.7317 106.499 56.0974 107.201 55.3117 107.201Z" fill="#E8D3E7"/>
<path d="M55.3117 117.186H12.2291C11.4433 117.186 10.8091 116.483 10.8091 115.613C10.8091 114.742 11.4433 114.039 12.2291 114.039H55.3117C56.0974 114.039 56.7317 114.742 56.7317 115.613C56.7317 116.483 56.0974 117.186 55.3117 117.186Z" fill="#E8D3E7"/>
<path d="M55.3117 127.17H12.2291C11.4433 127.17 10.8091 126.467 10.8091 125.597C10.8091 124.726 11.4433 124.024 12.2291 124.024H55.3117C56.0974 124.024 56.7317 124.726 56.7317 125.597C56.7317 126.467 56.0974 127.17 55.3117 127.17Z" fill="#E8D3E7"/>
<path d="M64.9961 3.83456V13.6301H0.320068V3.83456C0.320068 1.88385 1.74953 0.300201 3.51032 0.300201H61.8058C63.5666 0.300201 64.9961 1.88385 64.9961 3.83456Z" fill="#28100C"/>
<path d="M49.3382 6.32015C49.3382 7.61014 48.401 8.64843 47.2366 8.64843C46.0722 8.64843 45.135 7.61014 45.135 6.32015C45.135 5.03017 46.0722 3.99188 47.2366 3.99188C48.401 3.99188 49.3382 5.03017 49.3382 6.32015Z" fill="#675FA6"/>
<path d="M56.1541 6.32015C56.1541 7.61014 55.2169 8.64843 54.0525 8.64843C52.8881 8.64843 51.9509 7.61014 51.9509 6.32015C51.9509 5.03017 52.8881 3.99188 54.0525 3.99188C55.2169 3.99188 56.1541 5.03017 56.1541 6.32015Z" fill="#5C4DA0"/>
<path d="M62.6766 6.32015C62.6766 7.61014 61.7394 8.64843 60.575 8.64843C59.4106 8.64843 58.4734 7.61014 58.4734 6.32015C58.4734 5.03017 59.4106 3.99188 60.575 3.99188C61.7394 3.99188 62.6766 5.03017 62.6766 6.32015Z" fill="#3E3D98"/>
<path d="M20.3988 68.25H13.1284V87.7257H20.3988V68.25Z" fill="#5C4DA0"/>
<path d="M31.1244 54.4167H23.854V87.7152H31.1244V54.4167Z" fill="#3E3D98"/>
<path d="M43.005 44.2122H35.7346V87.7257H43.005V44.2122Z" fill="#675FA6"/>
<path d="M54.649 32.2353H47.3787V87.7152H54.649V32.2353Z" fill="#5C4DA0"/>
<path d="M41.2444 23.7088L46.2806 25.7539L45.7032 19.2095L41.2444 23.7088Z" fill="#E8D3E7"/>
<path d="M11.1215 58.7901C10.9037 58.7901 10.6955 58.6433 10.6103 58.4021C10.5061 58.0875 10.6481 57.7414 10.9321 57.626C11.1499 57.5316 33.0462 48.2395 43.7245 23.2683C43.8571 22.9641 44.1789 22.8383 44.4535 22.9851C44.728 23.1319 44.8416 23.4885 44.7091 23.7927C33.8319 49.2253 11.538 58.6748 11.3203 58.7691C11.254 58.7901 11.1972 58.8111 11.1309 58.8111L11.1215 58.7901Z" fill="#E8D3E7"/>
</svg>
