<svg width="150" height="268" viewBox="0 0 150 268" fill="none" xmlns="http://www.w3.org/2000/svg">
<path fill-rule="evenodd" clip-rule="evenodd" d="M69.771 230.722C90.9612 219.047 119.531 198.672 142.66 165.484C175.435 118.452 87.1327 161.868 21.0396 213.913L59.0671 229.623L69.771 230.732V230.722Z" fill="#F8B218"/>
<path fill-rule="evenodd" clip-rule="evenodd" d="M131.462 126.692C122.588 146.697 95.8483 190.313 71.0077 235.266L37.046 267.906L19.0017 246.203C28.6768 188.555 47.3839 125.883 70.6218 88.2699C111.38 22.2723 162.624 56.4996 131.472 126.702L131.462 126.692Z" fill="#E59A24"/>
<path fill-rule="evenodd" clip-rule="evenodd" d="M36.1458 266.827C52.2413 172.605 115.495 75.5858 115.723 75.2263C116.168 74.5271 117.078 74.3773 117.731 74.8867C118.394 75.3961 118.562 76.3748 118.107 77.064C117.879 77.4136 55.6444 172.894 39.2423 265.769L37.0263 267.896L36.136 266.817L36.1458 266.827Z" fill="white"/>
<path fill-rule="evenodd" clip-rule="evenodd" d="M1.01664 68.8342C2.13452 91.7456 10.939 142.982 18.3981 196.685C32.515 213.823 52.0036 225.329 73.1641 229.753C83.2349 171.786 86.8457 108.545 78.7634 63.4709C62.9351 -24.759 -3.2669 -18.387 1.01664 68.8342Z" fill="#FBC351"/>
<path fill-rule="evenodd" clip-rule="evenodd" d="M49.2931 221.394C58.068 127.141 37.6098 26.3073 37.5307 25.8878C37.3427 24.949 36.4722 24.2998 35.6016 24.4496C34.7212 24.5994 34.1672 25.4783 34.3453 26.4271C34.4244 26.8466 54.6451 126.512 46.1967 219.756C47.2157 220.315 48.2445 220.865 49.2931 221.394Z" fill="#FEFFFE"/>
</svg>
