<svg width="633" height="106" viewBox="0 0 633 106" fill="none" xmlns="http://www.w3.org/2000/svg">
<path d="M143.615 44.3414C140.751 40.6817 136.522 38.2223 132.062 38.2004C126.788 38.1711 121.215 41.0111 116.477 38.5151C110.13 35.1701 109.615 24.4104 103.166 21.2996C98.6724 19.133 93.5814 21.7607 88.7484 22.7488C80.5349 24.4323 71.5816 20.8531 66.3685 13.7971C64.3524 11.0742 62.8659 7.89021 60.5851 5.42353C56.3155 0.826868 49.5682 -0.593119 43.7713 1.2148C37.9744 3.02273 33.1685 7.74382 30.2633 13.453C28.0165 17.8667 26.367 23.3491 22.043 25.2375C17.0878 27.4041 11.1891 23.554 6.2203 25.6767C2.64983 27.2064 0.660958 31.525 0.477683 35.6605C0.348712 38.6029 0.959631 41.4942 1.77419 44.3268H143.609L143.615 44.3414Z" fill="#FDFEFE"/>
<path d="M632.403 105.079C631.453 102.502 629.111 100.424 626.776 99.6185C623.355 98.44 619.601 98.7182 616.411 96.7785C612.84 94.6119 609.969 89.7298 606.005 90.2056C602.828 90.5862 600.534 94.407 597.398 95.1755C590.915 96.7565 586.605 85.0673 580 85.0599C576.063 85.0599 572.778 89.3272 568.841 89.4809C563.736 89.6786 560.369 83.3252 557.254 78.3333C552.638 70.9333 544.628 64.7629 537.786 68.7447C533.238 71.3944 530.91 77.5428 528.432 82.9519C525.954 88.361 522.201 93.9751 517.171 93.9824C511.883 93.9898 506.561 87.7096 501.959 90.9229C499.794 92.4307 498.748 95.7025 498.762 98.7767C498.769 100.936 499.217 103.029 499.78 105.086H632.397L632.403 105.079Z" fill="#FDFEFE"/>
</svg>
