<svg width="96" height="212" viewBox="0 0 96 212" fill="none" xmlns="http://www.w3.org/2000/svg">
<path fill-rule="evenodd" clip-rule="evenodd" d="M48.217 206.844C49.0365 206.844 49.8495 206.818 50.656 206.772H91.7566V157.989C91.7566 142.365 83.6978 128.56 71.5999 120.669L71.5676 120.649C71.1224 120.36 70.6708 120.078 70.2127 119.802C55.8307 110.585 55.8307 101.933 70.1997 92.7162C70.6579 92.4405 71.116 92.1582 71.5612 91.8693L71.587 91.8496C83.6849 83.9588 91.7437 70.1532 91.7437 54.5291V5.74647H50.6431C49.8365 5.70051 49.0236 5.67426 48.2041 5.67426C47.3847 5.67426 46.5717 5.70051 45.7652 5.74647H4.66455V54.5291C4.66455 70.1532 12.7234 83.9588 24.8213 91.8496L24.8535 91.8693C25.2987 92.1582 25.7569 92.4405 26.215 92.7162C40.5905 101.933 40.5905 110.585 26.2021 119.802C25.744 120.078 25.2987 120.354 24.8535 120.643L24.8213 120.662C12.7234 128.553 4.66455 142.359 4.66455 157.983V206.765H45.7652C46.5717 206.811 47.3847 206.838 48.2041 206.838L48.217 206.844Z" fill="white"/>
<path fill-rule="evenodd" clip-rule="evenodd" d="M30.4282 188.758H42.3842C50.0817 188.758 50.3979 181.675 55.7726 181.675H79.9167C86.4528 181.675 87.7046 187.898 87.7046 187.898V196.433H50.4301C49.6946 196.479 48.9525 196.505 48.217 196.505C47.4814 196.505 46.7394 196.485 46.0039 196.439H30.4282V188.758Z" fill="#E59A24"/>
<path fill-rule="evenodd" clip-rule="evenodd" d="M14.5623 65.1837C10.8136 58.98 8.72949 51.7654 8.72949 44.2356C8.72949 8.45118 32.5511 46.7171 56.7792 48.6668C61.5925 49.0541 65.722 48.5158 69.2449 47.4129C70.1546 49.9797 70.7611 51.8901 70.7611 52.4153C70.7611 54.5619 50.0947 70.4355 46.5137 71.2955C42.9263 72.1554 24.5826 73.2255 16.9948 67.2188C16.2141 66.6017 15.4011 65.9124 14.5688 65.1837H14.5623Z" fill="#E59A24"/>
<path fill-rule="evenodd" clip-rule="evenodd" d="M55.3726 107.093C54.9467 101.021 59.1729 94.9285 68.0447 89.2369L68.0963 89.2041L68.148 89.1713C68.5609 88.9218 68.9738 88.6658 69.3803 88.4032L69.419 88.3769L69.4449 88.3572C80.7556 80.9588 87.6982 68.2626 87.6982 54.5291C87.6982 18.7447 63.8766 57.0106 39.6485 58.9603C15.6075 60.8904 8.71655 39.8635 8.71655 39.8635V54.5291C8.71655 68.2823 15.6785 80.9916 26.9828 88.3638L27.0086 88.3835C27.428 88.6527 27.8474 88.9152 28.2732 89.1713L28.3249 89.2041L28.3765 89.2369C37.2547 94.9285 41.4745 101.021 41.0486 107.093H41.0809V131.619C41.0809 135.61 44.2941 138.88 48.217 138.88C52.14 138.88 55.3532 135.61 55.3532 131.619V107.093H55.3661H55.3726ZM48.2235 162.375C52.1464 162.375 55.3596 159.105 55.3596 155.114V149.679C55.3596 145.687 52.1464 142.418 48.2235 142.418C44.3005 142.418 41.0873 145.687 41.0873 149.679V155.114C41.0873 159.105 44.3005 162.375 48.2235 162.375ZM48.2235 168.598C52.1464 168.598 55.3596 171.867 55.3596 175.859V176.253C55.3596 180.244 52.1464 183.513 48.2235 183.513C44.3005 183.513 41.0873 180.244 41.0873 176.253V175.859C41.0873 171.867 44.3005 168.598 48.2235 168.598Z" fill="#F8B218"/>
<path fill-rule="evenodd" clip-rule="evenodd" d="M87.7048 202.656V187.898C87.7048 191.975 84.7238 194.982 80.2976 194.982H54.0436C46.3461 194.982 46.0299 187.898 40.6552 187.898H16.511C9.97488 187.898 8.72314 194.122 8.72314 194.122V202.656H45.9976C46.7332 202.702 47.4752 202.728 48.2107 202.728C48.9463 202.728 49.6883 202.708 50.4239 202.662H87.6983L87.7048 202.656Z" fill="#F8B218"/>
<path fill-rule="evenodd" clip-rule="evenodd" d="M5.94211 0.816345H90.4855C93.4858 0.816345 95.9377 3.31095 95.9377 6.36355C95.9377 9.41616 93.4858 11.9108 90.4855 11.9108H5.94211C2.94183 11.9108 0.48999 9.41616 0.48999 6.36355C0.48999 3.31095 2.94183 0.816345 5.94211 0.816345Z" fill="#372F8F"/>
<path fill-rule="evenodd" clip-rule="evenodd" d="M5.94211 211.702H90.4855C93.4858 211.702 95.9377 209.208 95.9377 206.155C95.9377 203.102 93.4858 200.608 90.4855 200.608H5.94211C2.94183 200.608 0.48999 203.102 0.48999 206.155C0.48999 209.208 2.94183 211.702 5.94211 211.702Z" fill="#2D2D7E"/>
<path fill-rule="evenodd" clip-rule="evenodd" d="M66.051 0.816345H90.4856C93.4858 0.816345 95.9377 3.31095 95.9377 6.36355C95.9377 9.41616 93.4858 11.9108 90.4856 11.9108H66.051C63.0507 11.9108 60.5989 9.41616 60.5989 6.36355C60.5989 3.31095 63.0507 0.816345 66.051 0.816345Z" fill="#5C4FA1"/>
<path fill-rule="evenodd" clip-rule="evenodd" d="M66.051 211.702H90.4856C93.4858 211.702 95.9377 209.208 95.9377 206.155C95.9377 203.102 93.4858 200.608 90.4856 200.608H66.051C63.0507 200.608 60.5989 203.102 60.5989 206.155C60.5989 209.208 63.0507 211.702 66.051 211.702Z" fill="#3F3592"/>
</svg>
