<svg width="490" height="240" viewBox="0 0 490 240" fill="none" xmlns="http://www.w3.org/2000/svg">
<path d="M316.42 65.6757C329.67 51.6954 347.563 97.4204 353.754 114.878L366.149 99.5358C357.474 88.3808 326.175 45.2396 351.853 34.3115C369.529 26.787 369.129 79.107 368.511 96.608L385.25 75.8937C380.926 65.134 360.243 10.0327 388.827 7.63917C407.976 6.0362 392.792 57.0386 387.578 73.0025L405.39 50.9634C412.002 33.7406 431.083 -11.5526 443.986 2.83757C462.151 23.0834 422.794 46.8645 408.2 54.6891L391.203 75.718C406.177 66.1148 446.328 42.363 448.684 62.1477C452.288 92.4578 399.342 82.4301 387.823 79.9048L369.685 102.346C382.291 98.8404 435.406 85.2847 431.992 106.614C427.071 137.348 377.322 109.249 368.396 103.935L355.478 119.921C355.553 120.148 355.627 120.36 355.682 120.536C369.909 122.848 421.321 132.554 410.725 150.406C395.568 175.93 361.391 132.54 353.679 122.153L325.061 157.565L321.756 154.454L350.788 118.53C336.343 110.237 297.76 85.3432 316.407 65.6757H316.42Z" fill="#F7B21A"/>
<path d="M384.931 232.275C370.351 232.275 356.143 227.957 350.883 215.009C339.309 186.521 370.337 161.452 390.497 151.131C398.12 147.23 406.11 143.929 413.828 140.737C420.874 137.824 428.164 134.816 435.115 131.361C453.592 122.197 470.208 109.607 484.497 93.951C485.386 92.9702 486.717 92.6993 487.891 93.241C489.072 93.7973 489.799 95.0416 489.744 96.425C488.902 118.303 487.484 139.552 479.454 158.963C473.365 173.675 463.298 187.678 447.788 203.034C439.798 210.946 428.965 220.732 416.088 226.229C408.357 229.531 396.525 232.268 384.931 232.268V232.275ZM436.303 134.135C429.263 137.627 421.932 140.657 414.846 143.585C407.175 146.754 399.24 150.033 391.712 153.891C372.475 163.743 342.778 187.443 353.476 213.786C362.327 235.584 400.584 229.574 415.043 223.404C427.492 218.09 438.054 208.531 445.867 200.794C461.085 185.731 470.935 172.05 476.861 157.726C484.687 138.812 486.086 117.879 486.914 96.3079C486.914 96.2566 486.92 96.1249 486.764 96.0517C486.622 95.9785 486.547 96.0663 486.513 96.1029C471.98 112.023 455.085 124.825 436.296 134.143L436.303 134.135Z" fill="#F7B21A"/>
<path d="M132.595 147.047C119.345 133.067 101.452 178.792 95.2616 196.249L82.8667 180.907C91.5418 169.752 122.841 126.611 97.1622 115.683C79.4863 108.158 79.8868 160.478 80.5045 177.979L63.7654 157.265C68.0893 146.505 88.7723 91.4038 60.1881 89.0103C41.0393 87.4073 56.224 138.41 61.4371 154.374L43.6255 132.335C37.014 115.112 17.9331 69.8185 5.02914 84.2087C-13.1355 104.454 26.2212 128.236 40.8153 136.06L57.8124 157.089C42.8381 147.486 2.68729 123.734 0.331863 143.519C-3.27255 173.829 49.6736 163.801 61.1928 161.276L79.3302 183.718C66.725 180.212 13.6091 166.656 17.0235 187.985C21.9448 218.72 71.6938 190.62 80.6199 185.306L93.5374 201.292C93.4628 201.519 93.3881 201.731 93.3338 201.907C79.1062 204.22 27.6942 213.925 38.2902 231.778C53.4477 257.301 87.6251 213.903 95.3362 203.524L123.954 238.936L127.26 235.825L98.2279 199.901C112.673 191.608 151.255 166.714 132.609 147.047H132.595Z" fill="#5C4FA1"/>
<path d="M84.8556 124.488C81.3054 102.83 74.0627 81.8811 63.6228 62.9894C62.849 61.5914 64.0979 59.9079 65.5438 60.3836C84.3261 66.5906 103.292 73.4856 118.571 86.69C131.964 98.2695 141.698 114.05 149.721 130.41C155.647 142.487 160.82 155.259 162.354 168.822C164.492 187.765 159.062 228.535 136.946 232.305C109.238 237.026 95.2615 198.657 91.2838 176.025C88.2903 158.978 87.6522 141.572 84.8556 124.488Z" fill="#443D98"/>
</svg>
