<svg width="65" height="13" viewBox="0 0 65 13" fill="none" xmlns="http://www.w3.org/2000/svg">
<path d="M8.96205 10.816H2.52707C2.46598 10.816 2.41846 10.7647 2.41846 10.6989V1.87883C2.41846 1.81296 2.46598 1.76172 2.52707 1.76172C2.58816 1.76172 2.63568 1.81296 2.63568 1.87883V10.5817H8.96205C9.02315 10.5817 9.07066 10.633 9.07066 10.6989C9.07066 10.7647 9.02315 10.816 8.96205 10.816Z" fill="#F8B218" stroke="#F8B218" stroke-width="3" stroke-miterlimit="10"/>
<path d="M63.1097 10.816H56.6748C56.6137 10.816 56.5662 10.7647 56.5662 10.6989C56.5662 10.633 56.6137 10.5817 56.6748 10.5817H63.0011V1.87883C63.0011 1.81296 63.0487 1.76172 63.1097 1.76172C63.1708 1.76172 63.2184 1.81296 63.2184 1.87883V10.6989C63.2184 10.7647 63.1708 10.816 63.1097 10.816Z" fill="#F8B218" stroke="#F8B218" stroke-width="3" stroke-miterlimit="10"/>
</svg>
