<svg width="44" height="52" viewBox="0 0 44 52" fill="none" xmlns="http://www.w3.org/2000/svg">
<path d="M43.3194 28.2613C43.3194 34.3756 41.2272 39.955 37.8003 44.1606C33.8811 48.9745 28.2106 51.9949 21.8964 51.9949C10.0631 51.9949 0.473389 41.3709 0.473389 28.2613C0.473389 25.0101 1.06032 21.9162 2.13005 19.0845L21.8964 28.2613L20.8835 4.55905C21.2148 4.53808 21.5556 4.52759 21.8964 4.52759C33.7297 4.52759 43.3194 15.1516 43.3194 28.2613Z" fill="#5C4DA0"/>
<path d="M18.7534 0.647125C12.354 0.972244 6.69296 4.41221 2.9631 9.63509C1.76084 11.3131 0.766852 13.1799 0.00952148 15.1831L19.7664 24.3493L18.7534 0.647125Z" fill="#675FA6"/>
</svg>
