<svg width="455" height="482" viewBox="0 0 455 482" fill="none" xmlns="http://www.w3.org/2000/svg">
<path d="M288.146 0.845337H188.358C183.413 0.845337 179.405 4.89211 179.405 9.88405V59.4822C179.405 64.4741 183.413 68.5209 188.358 68.5209H288.146C293.09 68.5209 297.099 64.4741 297.099 59.4822V9.88405C297.099 4.89211 293.09 0.845337 288.146 0.845337Z" fill="#E59A24"/>
<path d="M172.233 16.2261H304.251C310.79 16.2261 316.102 21.5894 316.102 28.1911V93.8093C316.102 100.411 310.79 105.774 304.251 105.774H172.223C165.684 105.774 160.371 100.411 160.371 93.8093V28.1911C160.371 21.5894 165.684 16.2261 172.223 16.2261H172.233Z" fill="#2D2D7E"/>
<path fill-rule="evenodd" clip-rule="evenodd" d="M86.7695 383.288H140.487C144.019 383.288 146.136 386.215 145.176 389.78L122.314 474.884C121.354 478.459 117.674 481.376 114.143 481.376H103.31C102.845 481.376 102.43 481.326 102.054 481.236C101.569 481.326 101.064 481.376 100.55 481.376H86.7794C82.2783 481.376 78.5981 477.66 78.5981 473.116V391.538C78.5981 386.994 82.2783 383.278 86.7794 383.278L86.7695 383.288Z" fill="#372F8F"/>
<path fill-rule="evenodd" clip-rule="evenodd" d="M379.386 360.766H365.605L325.668 383.288C322.582 385.026 320.02 386.214 320.979 389.78L343.841 474.884C344.801 478.459 348.481 481.376 352.013 481.376H362.845C363.31 481.376 363.726 481.326 364.102 481.236C364.586 481.326 365.091 481.376 365.605 481.376H379.386C383.887 481.376 387.557 477.66 387.557 473.116V369.016C387.557 364.472 383.877 360.756 379.386 360.756V360.766Z" fill="#372F8F"/>
<path fill-rule="evenodd" clip-rule="evenodd" d="M69.3091 383.288H123.026C126.558 383.288 128.675 386.214 127.716 389.78L104.854 474.884C103.894 478.459 100.214 481.376 96.6822 481.376H85.8497C85.3848 481.376 84.9692 481.326 84.5933 481.236C84.1086 481.326 83.604 481.376 83.0896 481.376H69.3091C64.8178 481.376 61.1377 477.66 61.1377 473.116V391.538C61.1377 386.993 64.8178 383.278 69.3091 383.278V383.288Z" fill="#372F8F"/>
<path fill-rule="evenodd" clip-rule="evenodd" d="M361.935 383.288H308.218C304.676 383.288 302.569 386.214 303.529 389.78L326.391 474.884C327.35 478.459 331.03 481.376 334.562 481.376H345.395C345.86 481.376 346.275 481.326 346.651 481.236C347.136 481.326 347.64 481.376 348.155 481.376H361.935C366.436 481.376 370.107 477.66 370.107 473.116V391.538C370.107 386.993 366.427 383.278 361.935 383.278V383.288Z" fill="#372F8F"/>
<path d="M265.511 0.845337H165.723C160.779 0.845337 156.771 4.89211 156.771 9.88405V59.4822C156.771 64.4741 160.779 68.5209 165.723 68.5209H265.511C270.456 68.5209 274.464 64.4741 274.464 59.4822V9.88405C274.464 4.89211 270.456 0.845337 265.511 0.845337Z" fill="#F8B218"/>
<path d="M149.608 16.2261H281.636C288.175 16.2261 293.488 21.5894 293.488 28.1911V93.8093C293.488 100.411 288.175 105.774 281.636 105.774H149.618C143.079 105.774 137.767 100.411 137.767 93.8093V28.1911C137.767 21.5894 143.079 16.2261 149.618 16.2261H149.608Z" fill="#372F8F"/>
<path fill-rule="evenodd" clip-rule="evenodd" d="M241.482 32.6356C358.898 32.6356 454.076 128.726 454.076 247.268C454.076 365.81 358.898 461.9 241.482 461.9C237.218 461.9 232.994 461.76 228.799 461.51H215.622V460.322C110.413 447.438 28.8975 356.971 28.8975 247.278C28.8975 137.585 110.413 47.1176 215.622 34.2336V32.6456H241.492L241.482 32.6356Z" fill="#3F3592"/>
<path d="M218.187 461.898C335.59 460.414 429.597 363.124 428.157 244.595C426.717 126.066 330.376 31.1821 212.973 32.6663C95.5693 34.1506 1.56221 131.441 3.00202 249.97C4.44182 368.499 100.783 463.383 218.187 461.898Z" fill="#5C4FA1"/>
<path fill-rule="evenodd" clip-rule="evenodd" d="M215.622 433.875C317.428 433.875 400.457 350.05 400.457 247.268C400.457 144.486 317.428 60.6606 215.622 60.6606C113.816 60.6606 30.7866 144.486 30.7866 247.268C30.7866 350.05 113.816 433.875 215.622 433.875Z" fill="#C7C3D1"/>
<path d="M215.622 418.155C309.104 418.155 384.886 341.646 384.886 247.268C384.886 152.89 309.104 76.3811 215.622 76.3811C122.14 76.3811 46.3579 152.89 46.3579 247.268C46.3579 341.646 122.14 418.155 215.622 418.155Z" fill="white"/>
<path fill-rule="evenodd" clip-rule="evenodd" d="M215.622 114.753C212.882 114.753 210.656 112.506 210.656 109.739V101.01C210.656 98.2438 212.882 95.9966 215.622 95.9966C218.363 95.9966 220.588 98.2438 220.588 101.01V109.739C220.588 112.506 218.363 114.753 215.622 114.753ZM215.622 398.529C212.882 398.529 210.656 396.282 210.656 393.515V384.786C210.656 382.02 212.882 379.772 215.622 379.772C218.363 379.772 220.588 382.02 220.588 384.786V393.515C220.588 396.282 218.363 398.529 215.622 398.529ZM281.25 132.511C278.886 131.133 278.065 128.057 279.43 125.67L283.753 118.109C285.119 115.722 288.165 114.903 290.53 116.281C292.894 117.66 293.715 120.736 292.35 123.123L288.027 130.683C286.662 133.07 283.615 133.899 281.25 132.511ZM140.715 378.264C138.35 376.886 137.529 373.81 138.904 371.423L143.227 363.862C144.593 361.475 147.64 360.646 150.004 362.025C152.368 363.403 153.189 366.479 151.824 368.866L147.501 376.427C146.126 378.814 143.089 379.643 140.715 378.254V378.264ZM329.299 181.01C327.934 178.623 328.755 175.547 331.12 174.169L338.608 169.804C340.973 168.426 344.02 169.245 345.385 171.642C346.75 174.029 345.939 177.105 343.565 178.484L336.076 182.848C333.712 184.226 330.665 183.397 329.299 181.01ZM85.8794 322.893C84.5142 320.506 85.3254 317.43 87.6997 316.052L95.1885 311.687C97.5528 310.309 100.6 311.128 101.965 313.525C103.33 315.912 102.519 318.988 100.145 320.367L92.6559 324.731C90.2916 326.109 87.2446 325.28 85.8794 322.893ZM346.879 247.258C346.879 244.501 349.105 242.254 351.845 242.254H360.491C363.231 242.254 365.457 244.501 365.457 247.268C365.457 250.034 363.231 252.282 360.491 252.282H351.845C349.105 252.282 346.879 250.034 346.879 247.268V247.258ZM65.8071 247.258C65.8071 244.501 68.0329 242.254 70.7732 242.254H79.4195C82.1598 242.254 84.3856 244.501 84.3856 247.268C84.3856 250.034 82.1598 252.282 79.4195 252.282H70.7732C68.0329 252.282 65.8071 250.034 65.8071 247.268V247.258ZM329.299 313.515C330.665 311.128 333.712 310.299 336.076 311.687L343.565 316.052C345.929 317.43 346.75 320.506 345.385 322.893C344.02 325.28 340.973 326.109 338.608 324.731L331.12 320.367C328.755 318.988 327.934 315.912 329.299 313.525V313.515ZM85.8794 171.632C87.2446 169.245 90.2916 168.426 92.6559 169.804L100.145 174.169C102.509 175.547 103.33 178.623 101.965 181.01C100.6 183.397 97.5528 184.226 95.1885 182.848L87.6997 178.484C85.3254 177.105 84.5142 174.029 85.8794 171.632ZM281.26 362.025C283.625 360.646 286.672 361.475 288.037 363.862L292.36 371.423C293.725 373.81 292.904 376.886 290.54 378.264C288.175 379.643 285.128 378.824 283.763 376.437L279.44 368.876C278.075 366.489 278.896 363.413 281.26 362.035V362.025ZM140.725 116.271C143.089 114.893 146.136 115.722 147.501 118.109L151.824 125.67C153.189 128.057 152.378 131.133 150.004 132.511C147.64 133.889 144.593 133.06 143.227 130.673L138.904 123.113C137.539 120.726 138.35 117.65 140.725 116.271Z" fill="#0B0C14"/>
<path fill-rule="evenodd" clip-rule="evenodd" d="M215.622 253.18C218.847 253.18 221.489 250.524 221.489 247.268V146.643C221.489 143.387 218.857 140.731 215.622 140.731C212.397 140.731 209.766 143.397 209.766 146.643V247.268C209.766 250.524 212.397 253.18 215.622 253.18Z" fill="#0B0C14"/>
<path fill-rule="evenodd" clip-rule="evenodd" d="M211.477 243.083C209.201 245.38 209.201 249.145 211.477 251.452L263.136 303.607C265.412 305.905 269.151 305.905 271.427 303.607C273.702 301.31 273.702 297.545 271.427 295.238L219.767 243.083C217.492 240.786 213.752 240.786 211.477 243.083Z" fill="#F8B218"/>
</svg>
