<svg width="683" height="491" viewBox="0 0 683 491" fill="none" xmlns="http://www.w3.org/2000/svg">
<path d="M52.6354 30.955C90.8381 -1.68276 142.997 -7.65549 187.546 10.4896C246.737 34.6001 290.302 95.6596 347.79 124.982C388.165 145.571 434.526 149.26 476.863 135.244C497.464 128.422 517.502 117.494 538.878 116.762C557.816 116.11 576.524 123.693 592.618 135.514C639.991 170.297 663.769 244.48 647.804 307.692C639.258 341.537 620.904 370.925 599.528 395.577C555.359 446.506 496.772 479.605 435.538 488.228C401.36 493.037 366.687 490.431 332.632 484.517C258.419 471.634 185.306 442.459 124.201 390.995C51.0538 329.379 -21.4484 221.914 5.94103 109.896C13.6114 78.5392 30.2419 50.0809 52.6354 30.9477V30.955Z" fill="#7775B7"/>
<path d="M626.096 121.439C623.686 114.807 621.691 106.39 625.743 100.995C627.264 98.9753 629.436 97.7676 631.656 97.1234C642.367 94.0053 652.868 102.884 660.335 112.487C667.279 121.417 673.205 131.452 677.895 142.241C680.291 147.745 682.396 153.564 682.898 159.727C683.4 165.89 682.11 172.493 678.486 176.95C654.049 206.953 632.776 139.818 626.103 121.446L626.096 121.439Z" fill="#7775B7"/>
</svg>
