<svg width="121" height="292" viewBox="0 0 121 292" fill="none" xmlns="http://www.w3.org/2000/svg">
<g opacity="0.06">
<path d="M0.518311 285.927C0.518311 288.957 27.4887 291.412 60.7545 291.412C94.0202 291.412 120.991 288.957 120.991 285.927C120.991 282.896 94.0202 280.441 60.7545 280.441C27.4887 280.441 0.518311 282.896 0.518311 285.927Z" fill="black"/>
</g>
<path d="M99.4351 232.439H24.3363C23.8605 232.439 23.4749 232.867 23.4749 233.394V238.228C23.4749 238.756 23.8605 239.183 24.3363 239.183H99.4351C99.9109 239.183 100.297 238.756 100.297 238.228V233.394C100.297 232.867 99.9109 232.439 99.4351 232.439Z" fill="#3D2027"/>
<path d="M96.9171 157.746H26.6936C25.5277 157.746 24.5825 158.793 24.5825 160.085V169.649C24.5825 170.941 25.5277 171.988 26.6936 171.988H96.9171C98.083 171.988 99.0281 170.941 99.0281 169.649V160.085C99.0281 158.793 98.083 157.746 96.9171 157.746Z" fill="#8C5D55"/>
<path d="M62.5058 120.703H69.3312C69.3312 120.703 69.6625 119.948 70.2495 118.574C70.5334 117.924 70.8648 117.137 71.253 116.225C72.228 113.939 73.4966 110.876 74.9733 107.258C74.9828 107.227 75.0017 107.195 75.0112 107.164C84.2128 84.4997 100.723 40.4933 93.9729 31.7361C86.3049 21.7937 77.1506 36.6863 70.4956 64.8667C70.0412 66.807 69.5963 68.7996 69.1608 70.8552C66.7752 82.2134 64.7872 95.3755 63.4146 109.702C63.2063 111.852 63.017 114.023 62.8371 116.215C62.7141 117.693 62.6005 119.193 62.4963 120.703H62.5058Z" fill="#5C4DA0"/>
<path d="M62.8467 116.225L64.9009 120.714H69.3313C69.3313 120.714 69.6626 119.959 70.2495 118.585L70.4957 64.8772C67.135 79.0986 64.4181 96.7179 62.8467 116.225Z" fill="#4A429A"/>
<path d="M64.6548 120.703H65.7718L87.2706 42.6748C87.3558 42.3601 87.1948 42.035 86.9203 41.9406C86.6363 41.8462 86.3428 42.0245 86.2576 42.3391L64.6643 120.703H64.6548Z" fill="white"/>
<path d="M45.0587 104.867C45.5604 106.125 46.0527 107.331 46.5166 108.475C47.7757 111.558 48.8832 114.19 49.7352 116.215C50.9375 119.057 51.657 120.703 51.657 120.703H58.4824C58.3782 119.204 58.2646 117.704 58.1416 116.215C57.9712 114.127 57.7913 112.051 57.5925 110.006C56.2672 96.0152 54.3455 83.1258 52.0451 71.9355C51.6853 70.205 51.3256 68.506 50.947 66.8594C44.2635 37.389 34.8631 21.5525 27.0153 31.7256C20.4833 40.1892 35.7151 81.6366 45.0492 104.856L45.0587 104.867Z" fill="#5C4DA0"/>
<path d="M58.1415 116.225L56.0872 120.714H51.6569C51.6569 120.714 51.3255 119.959 50.7386 118.585L50.4924 64.8772C53.8531 79.0986 56.57 96.7179 58.1415 116.225Z" fill="#4A429A"/>
<path d="M56.3335 120.703H55.2164L33.7177 42.6748C33.6325 42.3601 33.7934 42.035 34.0679 41.9406C34.3519 41.8462 34.6454 42.0245 34.7306 42.3391L56.324 120.703H56.3335Z" fill="white"/>
<path d="M52.0547 71.9459C53.0108 86.8699 54.3361 100.819 55.2828 109.943C55.9738 116.613 56.4661 120.703 56.4661 120.703H62.5058C63.2158 116.959 63.8595 113.247 64.4654 109.586C66.6995 95.9628 68.2426 82.9161 69.1609 70.8657C72.6919 24.6779 67.1539 -6.72232 56.9962 1.63638C49.7069 7.63535 50.1235 41.7623 52.0547 71.9564V71.9459Z" fill="#5C4DA0"/>
<path d="M46.5166 108.475C47.7757 111.558 48.8832 114.19 49.7352 116.215C50.9375 119.057 51.657 120.703 51.657 120.703H69.3312C69.3312 120.703 69.6625 119.948 70.2494 118.574C70.5334 117.924 70.8648 117.137 71.2529 116.225C72.228 113.939 73.4965 110.876 74.9733 107.258C72.8054 107.95 69.0377 108.999 64.4748 109.586C64.134 109.628 63.7837 109.67 63.424 109.712C61.5875 109.911 59.6278 110.027 57.602 110.016C56.8352 110.016 56.0684 109.995 55.2826 109.953C52.4143 109.796 49.4418 109.345 46.5166 108.485V108.475Z" fill="#4A429A"/>
<path d="M60.0066 16.057L60.726 120.714H61.7957L61.0763 16.057C61.0763 15.7319 60.8302 15.4802 60.5367 15.4697C60.2433 15.4697 60.0066 15.7424 60.0066 16.0675V16.057Z" fill="white"/>
<path d="M29.6566 119.896L30.5369 122.497L31.0954 124.143L32.6953 128.852L33.2539 130.499L34.9011 135.334L35.4595 136.98L42.5217 157.746H81.0792L88.1414 136.98L88.6999 135.334L90.3471 130.499L90.9056 128.852L92.5055 124.143L93.064 122.497L93.9444 119.896C94.5503 118.113 93.367 116.215 91.644 116.215H31.9475C30.234 116.215 29.0507 118.113 29.6471 119.896H29.6566Z" fill="#FBB416"/>
<path d="M30.5464 122.497L31.0954 124.143H92.5054L93.064 122.497H30.5464Z" fill="#F8A81B"/>
<path d="M32.7048 128.852L33.2634 130.499H90.3471L90.9056 128.852H32.7048Z" fill="#F8A81B"/>
<path d="M34.9104 135.334L35.4689 136.98H88.1412L88.6998 135.334H34.9104Z" fill="#F8A81B"/>
<path d="M72.1333 171.988L74.2727 179.623L104.036 285.927H109.858L90.9813 181.794L89.2016 171.988H72.1333Z" fill="#6E4945"/>
<path d="M89.2016 171.988H72.1333L74.2727 179.623L90.9813 181.794L89.2016 171.988Z" fill="#3D2027"/>
<path d="M13.5728 285.927H19.3948L50.0477 176.477L51.2973 171.988H34.2384L33.8029 174.369L13.5728 285.927Z" fill="#6E4945"/>
<path d="M33.803 174.369L50.0477 176.477L51.2973 171.988H34.2385L33.803 174.369Z" fill="#3D2027"/>
<path d="M25.8132 224.521H97.9394C99.236 224.521 100.287 223.357 100.287 221.92V220.378C100.287 218.942 99.236 217.777 97.9394 217.777H25.8132C24.5165 217.777 23.4654 218.942 23.4654 220.378V221.92C23.4654 223.357 24.5165 224.521 25.8132 224.521Z" fill="#8C5D55"/>
</svg>
