<svg width="46" height="40" viewBox="0 0 46 40" fill="none" xmlns="http://www.w3.org/2000/svg">
<path d="M0.915283 39.3504H35.8755L40.9875 0.619354H6.03676L0.915283 39.3504Z" fill="#8C5D55"/>
<path d="M40.9875 0.619354L45.8344 39.3504H35.8755L40.9875 0.619354Z" fill="#3D2027"/>
<path d="M33.7455 36.5922L38.138 3.37762H8.15722L3.77417 36.5922H33.7455Z" fill="#DFDBC8"/>
<path d="M33.3197 36.0363L37.5607 3.93347H8.58337L4.34229 36.0363H33.3197Z" fill="white"/>
<path d="M11.1865 7.85587L7.98682 32.1034H30.7351L33.9348 7.85587H11.1865Z" fill="#E5C09F"/>
<path d="M28.6811 22.0261C30.2357 17.8682 28.4534 13.1013 24.7003 11.379C20.9471 9.65673 16.6444 11.6313 15.0898 15.7892C13.5352 19.9472 15.3174 24.7141 19.0706 26.4363C22.8237 28.1586 27.1265 26.1841 28.6811 22.0261Z" fill="#F2D6BA"/>
<path d="M22.5939 19.5392C22.5939 19.5392 17.9836 13.5507 10.3914 13.9597L7.99634 32.1139L22.6033 19.5496L22.5939 19.5392Z" fill="#00443C"/>
<path d="M32.884 15.837C32.884 15.837 26.371 14.3687 19.6023 19.9901C12.8337 25.6115 7.98682 32.1139 7.98682 32.1139H30.7351L32.884 15.837Z" fill="#006D61"/>
</svg>
