<svg width="77" height="89" viewBox="0 0 77 89" fill="none" xmlns="http://www.w3.org/2000/svg">
<path d="M57.6956 67.692C68.1876 56.0684 68.1876 37.2228 57.6956 25.5992C47.2037 13.9756 30.1929 13.9756 19.7009 25.5992C9.20901 37.2228 9.20901 56.0684 19.7009 67.692C30.1929 79.3156 47.2037 79.3156 57.6956 67.692Z" fill="#F2D6BA"/>
<path d="M57.6964 63.8124C68.1883 52.1888 68.1883 33.3432 57.6964 21.7196C47.2044 10.096 30.1936 10.096 19.7017 21.7196C9.20974 33.3432 9.20974 52.1888 19.7017 63.8124C30.1936 75.436 47.2044 75.436 57.6964 63.8124Z" fill="#FBB416"/>
<path d="M60.2731 46.6121C62.1919 33.4138 54.0898 20.9912 42.1765 18.8653C30.2632 16.7395 19.05 25.7155 17.1312 38.9138C15.2123 52.112 23.3144 64.5347 35.2277 66.6605C47.141 68.7864 58.3542 59.8104 60.2731 46.6121Z" fill="white"/>
<path d="M16.8602 42.7694C16.8602 43.4092 16.8792 44.0489 16.9265 44.6782C17.8069 32.2188 27.2451 22.3918 38.6998 22.3918C50.1544 22.3918 59.5926 32.2293 60.473 44.6782C60.5203 44.0489 60.5393 43.4092 60.5393 42.7694C60.5393 29.4186 50.7413 18.5638 38.6903 18.5638C26.6487 18.5638 16.8413 29.4186 16.8413 42.7694H16.8602Z" fill="#F2D6BA"/>
<path d="M38.6995 45.2865C38.8699 45.2865 39.0309 45.2026 39.135 45.0452L49.8512 29.062C50.0311 28.7893 49.9838 28.4117 49.7376 28.2125C49.4915 28.0132 49.1507 28.0656 48.9708 28.3383L38.5102 43.9335L26.6296 38.1548C26.3551 38.0185 26.0332 38.1548 25.9101 38.4694C25.7871 38.7736 25.9101 39.1302 26.1941 39.2665L38.4723 45.234C38.5481 45.2655 38.6143 45.2865 38.6901 45.2865H38.6995Z" fill="#28100C"/>
</svg>
