<svg width="518" height="296" viewBox="0 0 518 296" fill="none" xmlns="http://www.w3.org/2000/svg">
<path d="M242.387 76.5835C265.381 72.9757 287.183 63.0124 305.993 47.9101C334.09 25.351 392.878 -13.0235 448.958 6.09562C526.31 32.4617 526.66 108.749 506.506 150.186C486.361 191.623 343.471 312.966 158.228 293.658C-7.53226 276.374 -39.8324 78.6076 48.5764 42.8235C125.256 11.7799 151.412 90.8677 242.387 76.5835Z" fill="#7775B7"/>
<g opacity="0.06">
<path d="M434.162 228.456C434.162 228.456 445.73 222.593 450.245 232.777C454.761 242.96 438.242 253.406 429.258 250.407C420.265 247.407 421.846 232.399 434.162 228.456Z" fill="black"/>
</g>
<g opacity="0.06">
<path d="M251.503 44.8372C251.503 44.8372 264.094 40.4638 267.549 51.5913C271.004 62.7187 252.791 71.0984 243.892 66.7145C234.993 62.3412 238.373 47.1235 251.503 44.8267V44.8372Z" fill="black"/>
</g>
</svg>
