<svg width="21" height="22" viewBox="0 0 21 22" fill="none" xmlns="http://www.w3.org/2000/svg">
<path d="M18.5219 0.0828552H2.30555C1.41152 0.0828552 0.686768 0.885787 0.686768 1.87625V19.8417C0.686768 20.8322 1.41152 21.6351 2.30555 21.6351H18.5219C19.4159 21.6351 20.1407 20.8322 20.1407 19.8417V1.87625C20.1407 0.885787 19.4159 0.0828552 18.5219 0.0828552Z" fill="#5C4DA0"/>
<path d="M16.6191 10.4552C16.6191 13.14 15.256 14.5349 13.6372 14.5349C12.681 14.5349 11.99 14.1259 11.6302 13.3078C11.2705 14.0839 10.6646 14.5349 9.69904 14.5349C8.32638 14.5349 7.01052 13.203 7.01052 11.032C7.01052 8.86105 8.28851 7.5396 9.69904 7.5396C10.3712 7.5396 10.8918 7.78082 11.261 8.23179V7.66545H13.7034V11.6927C13.7034 12.28 13.9212 12.4688 14.1957 12.4688C14.5554 12.4688 14.8394 12.0703 14.8394 10.4971C14.8394 7.94862 13.126 6.15522 10.5132 6.15522C7.90039 6.15522 6.15853 8.17935 6.15853 10.8537C6.15853 13.5281 7.87198 15.5837 10.4658 15.5837C11.3084 15.5837 12.1698 15.4054 13.0313 14.9649L13.5614 16.6954C12.8041 17.1044 11.5924 17.3666 10.4658 17.3666C6.64131 17.3666 4.18945 14.5349 4.18945 10.8537C4.18945 7.17253 6.64133 4.37231 10.5132 4.37231C14.1673 4.37231 16.6191 7.08863 16.6191 10.4657V10.4552ZM11.3084 11.032C11.3084 10.193 10.9108 9.75251 10.3901 9.75251C9.86945 9.75251 9.49077 10.193 9.49077 11.032C9.49077 11.871 9.86945 12.322 10.3901 12.322C10.9108 12.322 11.3084 11.8815 11.3084 11.032Z" fill="white"/>
</svg>
