<svg width="98" height="177" viewBox="0 0 98 177" fill="none" xmlns="http://www.w3.org/2000/svg">
<path fill-rule="evenodd" clip-rule="evenodd" d="M45.0208 152.427C58.8415 144.753 77.4755 131.361 92.5608 109.546C113.937 78.6329 56.3445 107.17 13.2372 141.379L38.0395 151.705L45.0208 152.434V152.427Z" fill="#F8B218"/>
<path fill-rule="evenodd" clip-rule="evenodd" d="M85.2569 84.0489C79.4693 97.1981 62.0289 125.866 45.8274 155.414L23.6769 176.868L11.9081 162.603C18.2184 124.711 30.4195 83.5171 45.5758 58.7943C72.1589 15.4145 105.581 37.9119 85.2634 84.0555L85.2569 84.0489Z" fill="#E59A24"/>
<path fill-rule="evenodd" clip-rule="evenodd" d="M23.0898 176.159C33.5876 114.227 74.8431 50.4571 74.9915 50.2207C75.2818 49.7612 75.8754 49.6627 76.3013 49.9975C76.7336 50.3323 76.8433 50.9757 76.5465 51.4287C76.3981 51.6584 35.8071 114.417 25.1093 175.463L23.6641 176.861L23.0834 176.152L23.0898 176.159Z" fill="white"/>
<path fill-rule="evenodd" clip-rule="evenodd" d="M0.17786 46.0193C0.90696 61.0788 6.6494 94.756 11.5144 130.055C20.7217 141.32 33.4326 148.882 47.2339 151.79C53.8023 113.689 56.1573 72.1207 50.8858 42.494C40.5623 -15.4989 -2.61595 -11.3106 0.17786 46.0193Z" fill="#FBC351"/>
<path fill-rule="evenodd" clip-rule="evenodd" d="M31.6647 146.296C37.3878 84.3442 24.0446 18.0666 23.993 17.7909C23.8704 17.1738 23.3026 16.7471 22.7348 16.8456C22.1605 16.944 21.7992 17.5217 21.9154 18.1454C21.967 18.4211 35.1553 83.9307 29.6451 145.219C30.3097 145.587 30.9807 145.948 31.6647 146.296Z" fill="#FEFFFE"/>
</svg>
