<svg width="113" height="283" viewBox="0 0 113 283" fill="none" xmlns="http://www.w3.org/2000/svg">
<path opacity="0.1" d="M55.3517 282.504C85.489 282.504 109.92 278.011 109.92 272.469C109.92 266.927 85.489 262.434 55.3517 262.434C25.2143 262.434 0.783203 266.927 0.783203 272.469C0.783203 278.011 25.2143 282.504 55.3517 282.504Z" fill="#161819"/>
<path opacity="0.3" d="M90.303 139.48C89.3323 139.48 88.5381 140.33 88.5381 141.384V220.544H65.7509V141.384C65.7509 140.337 64.9635 139.48 63.9861 139.48C63.0086 139.48 62.2212 140.33 62.2212 141.384V262.463C62.2212 263.51 63.0086 264.366 63.9861 264.366C64.9635 264.366 65.7509 263.517 65.7509 262.463V224.343H88.5381V262.463C88.5381 263.51 89.3255 264.366 90.303 264.366C91.2805 264.366 92.0679 263.517 92.0679 262.463V141.384C92.0679 140.337 91.2805 139.48 90.303 139.48Z" fill="#231E56"/>
<path d="M57.9787 77.4475L56.8316 120.735L46.2627 118.839L52.4126 79.6361L57.9787 77.4475Z" fill="#F9AE83"/>
<path d="M70.5703 146.573C70.5703 146.573 57.0011 175.595 49.7923 189.729C49.7923 189.729 48.6519 207.406 46.473 219.849C44.5724 230.711 41.8233 242.583 41.8233 242.583L33.603 243.506C33.603 243.506 32.8224 191.596 34.4719 184.064C36.1214 176.532 48.0478 120.435 80.5757 124.351L70.5703 146.558V146.573Z" fill="#090B0A"/>
<path d="M19.3822 266.028L44.8235 259.887C46.0249 259.594 46.8056 258.394 46.7037 257.12C46.6902 256.944 46.6562 256.761 46.6087 256.586L42.5834 242.422C42.5834 242.422 41.4159 242.151 39.8547 242.13C38.9315 242.115 38.0423 241.61 37.5875 240.739C37.5535 240.673 37.5264 240.607 37.4925 240.541C36.3317 237.906 32.4422 237.921 32.32 240.797C32.3065 241.171 32.2997 241.529 32.2997 241.873C32.2997 241.961 32.2997 242.042 32.2997 242.13C32.3132 242.737 32.3404 243.293 32.3811 243.776C32.3811 243.784 32.3811 243.798 32.3811 243.806C32.4897 245.035 32.6594 245.797 32.6594 245.797C32.4219 246.338 32.1911 246.873 31.9671 247.392C31.8517 247.656 31.743 247.912 31.6344 248.168C31.3969 248.717 31.1661 249.251 30.9353 249.771C30.8335 250.013 30.7249 250.247 30.6162 250.481C30.3651 251.045 30.1072 251.579 29.8492 252.084C29.7338 252.311 29.6116 252.538 29.4895 252.758C28.4848 254.558 27.3716 255.898 25.8579 256.512C23.1834 257.588 18.7441 259.001 17.4747 263.898C17.4476 264 17.434 264.103 17.4204 264.205C17.3186 265.34 18.2893 266.306 19.3754 266.042L19.3822 266.028Z" fill="#DE9E26"/>
<path d="M19.3822 266.028L44.8235 259.887C46.025 259.594 46.8056 258.393 46.7038 257.12L17.4273 264.191C17.3255 265.325 18.2961 266.291 19.3822 266.028Z" fill="#BE812B"/>
<path d="M31.6343 248.161C32.028 248.556 32.7407 248.973 34.0644 249.208C34.2884 249.251 34.5327 249.281 34.7907 249.31L34.8586 248.541C34.6006 248.512 34.363 248.483 34.1526 248.439C32.6389 248.168 32.1298 247.67 31.9669 247.385C31.8515 247.648 31.7429 247.905 31.6343 248.161Z" fill="white"/>
<path d="M34.0371 249.112C34.1322 249.581 34.5666 249.881 35.001 249.771C35.4355 249.669 35.7138 249.2 35.6119 248.732C35.5169 248.263 35.0825 247.963 34.6481 248.073C34.2136 248.175 33.9353 248.644 34.0371 249.112Z" fill="white"/>
<path d="M30.623 250.474C31.0303 250.767 31.6548 251.059 32.6119 251.235C32.8766 251.286 33.1685 251.33 33.4875 251.367L33.5554 250.598C33.2567 250.569 32.992 250.525 32.7476 250.481C31.777 250.298 31.2339 250.013 30.9352 249.764C30.8334 250.005 30.7248 250.24 30.6162 250.474H30.623Z" fill="white"/>
<path d="M32.5982 251.206C32.6932 251.674 33.1276 251.974 33.5621 251.864C33.9965 251.762 34.2748 251.294 34.173 250.825C34.078 250.357 33.6435 250.057 33.2091 250.166C32.7747 250.269 32.4964 250.737 32.5982 251.206Z" fill="white"/>
<path d="M29.4893 252.75C29.8965 253.036 30.5007 253.299 31.4102 253.475C31.6818 253.526 31.9737 253.577 32.2995 253.607L32.3673 252.838C32.0687 252.809 31.7972 252.765 31.5596 252.721C30.6907 252.552 30.1613 252.311 29.849 252.084C29.7336 252.311 29.6114 252.538 29.4893 252.757V252.75Z" fill="white"/>
<path d="M31.4102 253.445C31.5052 253.914 31.9397 254.214 32.3741 254.104C32.8085 254.002 33.0868 253.533 32.985 253.065C32.89 252.596 32.4555 252.296 32.0211 252.406C31.5867 252.509 31.3084 252.977 31.4102 253.445Z" fill="white"/>
<path d="M32.3812 243.769C33.542 243.469 34.6756 243.359 34.6756 243.359L34.3769 241.99C33.6234 241.881 32.8971 241.976 32.293 242.122C32.3065 242.73 32.3337 243.286 32.3744 243.769H32.3812Z" fill="white"/>
<path d="M45.1964 121.877H38.8564V266.752H45.1964V121.877Z" fill="#F8F4EE"/>
<path d="M43.0855 271.115C58.2648 271.115 70.57 268.834 70.57 266.02C70.57 263.207 58.2648 260.926 43.0855 260.926C27.9063 260.926 15.6011 263.207 15.6011 266.02C15.6011 268.834 27.9063 271.115 43.0855 271.115Z" fill="#F8F4EE"/>
<path d="M102.182 121.284C102.182 121.284 107.755 147.334 94.0158 183.617C94.0158 183.617 93.0858 205.722 88.823 214.725C84.5534 223.728 71.3101 252.779 71.3101 252.779L62.3975 250.43L77.8808 181.275L81.4173 129.109C81.4173 129.109 92.4681 120.794 102.189 121.284H102.182Z" fill="#090B0A"/>
<path d="M78.7159 154.098C78.7159 154.098 60.4155 156.44 54.1299 138.639C54.1299 138.639 92.2375 129.833 103.302 135.374C103.302 135.374 89.3119 150.958 78.7159 154.098Z" fill="#090B0A"/>
<path d="M38.2594 257.471L64.9429 267.909C66.2055 268.399 67.5766 267.792 68.1672 266.562C68.2486 266.386 68.3233 266.203 68.3708 266.006L72.3689 250.466C72.3689 250.466 71.4458 249.478 70.0203 248.476C69.1786 247.883 68.6423 246.851 68.6899 245.767C68.6899 245.687 68.7034 245.606 68.7102 245.526C69.0768 242.378 65.4995 239.934 63.8229 242.495C63.6057 242.825 63.402 243.154 63.2188 243.469C63.1712 243.55 63.1237 243.63 63.083 243.703C62.764 244.267 62.4924 244.801 62.2684 245.27C62.2684 245.277 62.2617 245.292 62.2549 245.299C61.6915 246.492 61.4335 247.304 61.4335 247.304C60.9176 247.648 60.4153 247.992 59.9266 248.329C59.6822 248.497 59.4379 248.666 59.2003 248.827C58.6844 249.178 58.1821 249.53 57.6933 249.859C57.4626 250.013 57.2386 250.166 57.0146 250.313C56.4783 250.664 55.9488 251.001 55.4398 251.294C55.209 251.433 54.9782 251.564 54.7474 251.681C52.8467 252.706 51.1022 253.226 49.3781 252.831C46.3439 252.128 41.4973 250.62 37.6756 254.309C37.5942 254.382 37.5263 254.47 37.4652 254.558C36.7593 255.532 37.1258 257.039 38.2594 257.479V257.471Z" fill="#DE9E26"/>
<path d="M38.2594 257.471L64.9429 267.909C66.2055 268.399 67.5766 267.792 68.1672 266.562L37.4652 254.551C36.7593 255.524 37.1258 257.032 38.2594 257.471Z" fill="#BE812B"/>
<path d="M59.207 248.827C59.3496 249.434 59.784 250.276 60.8701 251.323C61.0534 251.506 61.257 251.689 61.481 251.879L61.9629 251.22C61.7389 251.03 61.5421 250.854 61.3656 250.679C60.1234 249.471 59.9333 248.695 59.9333 248.329C59.689 248.497 59.4446 248.666 59.207 248.827Z" fill="white"/>
<path d="M60.8973 251.22C60.7344 251.711 60.9652 252.26 61.4268 252.435C61.8816 252.611 62.3907 252.362 62.5536 251.864C62.7165 251.374 62.4857 250.825 62.0241 250.649C61.5693 250.474 61.0602 250.723 60.8973 251.22Z" fill="white"/>
<path d="M57.0283 250.305C57.2387 250.832 57.6596 251.491 58.4402 252.26C58.6574 252.479 58.895 252.699 59.1733 252.933L59.6552 252.267C59.3973 252.047 59.1733 251.842 58.9764 251.652C58.1822 250.869 57.8428 250.269 57.7003 249.852C57.4695 250.005 57.2455 250.159 57.0215 250.305H57.0283Z" fill="white"/>
<path d="M58.4471 252.223C58.2842 252.714 58.515 253.262 58.9766 253.438C59.4314 253.614 59.9405 253.365 60.1034 252.867C60.2663 252.377 60.0355 251.828 59.5739 251.652C59.1191 251.477 58.61 251.725 58.4471 252.223Z" fill="white"/>
<path d="M54.7544 251.674C54.9716 252.194 55.3857 252.816 56.1256 253.555C56.3428 253.775 56.5871 254.002 56.8655 254.236L57.3474 253.57C57.0895 253.35 56.8655 253.145 56.6686 252.948C55.9559 252.245 55.6097 251.689 55.4468 251.286C55.216 251.425 54.9852 251.557 54.7544 251.674Z" fill="white"/>
<path d="M56.1322 253.526C55.9693 254.016 56.2001 254.565 56.6616 254.741C57.1164 254.917 57.6255 254.668 57.7884 254.17C57.9513 253.68 57.7206 253.131 57.259 252.955C56.8042 252.779 56.2951 253.028 56.1322 253.526Z" fill="white"/>
<path d="M62.2822 245.27C63.5108 245.731 64.6105 246.346 64.6105 246.346L65.0789 244.896C64.4476 244.318 63.7281 243.945 63.0968 243.703C62.7777 244.267 62.5062 244.801 62.2822 245.27Z" fill="white"/>
<path d="M85.9245 53.7103C85.9245 53.7103 103.261 54.5081 107.931 65.8094L111.257 85.2355L109.648 85.5941L100.709 87.5777L103.573 129.021C103.573 129.021 77.6568 140.593 56.5258 132.49C56.5258 132.49 52.9757 76.9278 57.6187 63.6575C57.6187 63.6575 58.0124 54.896 72.654 53.7688C72.654 53.7688 77.8672 61.3738 85.9313 53.7103H85.9245Z" fill="#F8F4EE"/>
<path d="M56.9263 84.8841L50.2944 82.0588C50.2944 82.0588 53.1929 61.7691 61.2027 57.8239C69.2125 53.8713 56.9263 84.8841 56.9263 84.8841Z" fill="#F8F4EE"/>
<path d="M11.8476 118.839L0.572754 80.712L45.2036 78.5601L54.1298 118.298L11.8476 118.839Z" fill="#C2C0C0"/>
<path d="M110.558 85.3453L101.476 87.3874C101.476 87.3874 103.567 96.266 103.655 98.9596C103.655 98.9596 96.3034 101.214 91.6401 104.288C86.9768 107.355 81.7568 109.522 81.7568 109.522C82.7615 111.461 83.1009 113.379 83.257 115.282C83.257 115.282 109.106 113.657 111.685 104.808C113.552 98.4033 111.794 93.5065 110.551 85.3453H110.558Z" fill="#F9AE83"/>
<path d="M83.9631 116.556H4.32666V124.915H83.9631V116.556Z" fill="#FCB32B"/>
<path d="M64.5971 12.0256C64.5971 12.0256 61.2302 13.8262 61.6647 19.9893C62.0923 26.1523 64.1762 27.0746 64.1762 27.0746C64.1762 27.0746 68.9549 14.1922 64.5971 12.0256Z" fill="#101010"/>
<path d="M75.7156 42.021L75.2472 49.6772L75.03 53.1833C78.7227 56.9602 85.8365 53.3736 85.8365 53.3736L87.8253 42.1967C86.1012 40.5791 81.1324 41.0768 78.1186 41.5599C76.6999 41.7868 75.7156 42.0137 75.7156 42.0137V42.021Z" fill="#F9AE83"/>
<path d="M75.7157 42.021L75.2473 49.6772C80.155 49.1209 84.9609 42.5187 84.9609 42.5187L78.1186 41.5672C76.6999 41.7941 75.7157 42.021 75.7157 42.021Z" fill="#F58A69"/>
<path d="M64.8753 15.173C64.8753 15.173 57.7004 10.3494 60.7007 3.90824C63.7009 -2.53294 72.4438 1.77095 80.5894 3.19094C93.7037 5.47463 96.9959 13.4163 95.7809 21.0652C94.5726 28.7214 93.473 39.0493 89.8007 42.4675C86.1284 45.8857 84.54 40.1545 83.4132 35.1187C82.2864 30.0829 73.6385 13.9799 64.8753 15.173Z" fill="#101010"/>
<path d="M63.4432 21.6288C63.416 21.8924 63.3957 22.1558 63.3685 22.4193C62.9612 27.2136 63.0631 33.1278 63.2735 37.9514C63.5043 43.0677 67.6042 46.9764 72.3422 46.5811C78.0509 46.1053 85.1239 45.1757 88.5111 43.3678C89.5429 42.8189 90.2285 42.1894 90.4321 41.4647C90.9073 39.7813 91.3281 37.4463 91.6947 34.8992C92.8011 27.1771 93.3713 17.4421 93.3713 17.4421C87.6966 7.59732 68.6496 8.62205 65.0655 14.807C64.2442 16.2197 63.7351 18.6791 63.4432 21.6215V21.6288Z" fill="#F9AE83"/>
<path d="M65.9819 36.0556C65.9819 36.0556 66.043 36.2972 66.1924 36.6485C66.4299 37.2048 66.8915 38.0319 67.6993 38.654C68.4595 39.2396 69.5388 39.6348 71.0254 39.4299C72.349 39.2542 73.2518 38.6906 73.8628 37.9807C74.7316 36.9852 75.0235 35.7116 75.1253 34.8332C75.1932 34.2257 75.166 33.8012 75.166 33.8012C71.4055 36.1581 65.9819 36.0556 65.9819 36.0556Z" fill="#921A1D"/>
<path d="M67.6992 38.6541C68.4595 39.2396 69.5388 39.6349 71.0253 39.4299C72.349 39.2543 73.2518 38.6907 73.8627 37.9807C73.1024 37.5269 71.8467 37.1243 70.3262 37.4317C69.0297 37.6952 68.3441 38.2149 67.6992 38.6541Z" fill="#F15D67"/>
<path d="M65.9819 36.0556C65.9819 36.0556 66.043 36.2972 66.1924 36.6485C69.9936 37.461 73.7202 35.6384 75.1253 34.8332C75.1932 34.2257 75.166 33.8012 75.166 33.8012C71.4055 36.1581 65.9819 36.0556 65.9819 36.0556Z" fill="white"/>
<path d="M74.0052 27.4186C73.8898 28.4287 74.2156 29.2997 74.7247 29.3656C75.2338 29.4314 75.7497 28.6702 75.8583 27.6675C75.9669 26.6647 75.6479 25.7863 75.1388 25.7205C74.6297 25.6546 74.1138 26.4158 73.9984 27.4186H74.0052Z" fill="#101010"/>
<path d="M64.4886 26.1596C64.3732 27.1697 64.699 28.0407 65.2081 28.1066C65.7172 28.1725 66.2331 27.4113 66.3485 26.4085C66.4639 25.4057 66.1381 24.5274 65.629 24.4615C65.1199 24.3956 64.604 25.1569 64.4954 26.1596H64.4886Z" fill="#101010"/>
<path d="M92.5296 27.8138C92.5296 27.8138 89.7873 25.3252 86.8549 28.7287L84.8999 28.4726C84.8999 28.4726 85.5041 24.1614 84.8253 21.6947C84.1465 19.2207 80.3995 18.7888 80.1552 15.9489C80.1552 15.9489 70.9032 18.5693 64.8687 15.173C58.8342 11.7841 79.0894 2.92744 87.6083 9.66872C96.1272 16.41 94.7832 20.6407 92.5296 27.8138Z" fill="#101010"/>
<path d="M79.2521 25.5521C79.2521 25.5521 78.5801 23.4514 76.9238 22.7268C75.3829 22.0607 74.2018 22.3461 73.5909 22.6096C73.3262 22.7194 73.1837 23.0342 73.2447 23.3343C73.3262 23.6856 73.6656 23.8906 73.9846 23.7808C75.0028 23.4221 77.1886 23.0854 79.2453 25.5521H79.2521Z" fill="#101010"/>
<path d="M63.4428 21.6289C63.4157 21.8924 63.3953 22.1559 63.3682 22.4194C65.2077 21.746 66.64 22.4193 67.3595 22.8951C67.4342 22.9464 67.5156 22.9756 67.5971 22.9829C67.8279 23.0122 68.0654 22.8878 68.1808 22.6536C68.3098 22.3828 68.2419 22.0461 68.0111 21.8631C67.4817 21.4532 66.3956 20.8603 64.7529 21.1092C64.2642 21.1823 63.823 21.38 63.4428 21.6215V21.6289Z" fill="#101010"/>
<path d="M88.5109 43.3678C89.5427 42.8189 90.2283 42.1894 90.4319 41.4648C90.9071 39.7813 91.3279 37.4464 91.6945 34.8992L86.3591 37.8929C86.3591 37.8929 85.8636 41.6624 88.5177 43.3605L88.5109 43.3678Z" fill="#101010"/>
<path d="M86.8546 28.7287C86.8546 28.7287 90.2893 25.2227 92.5293 27.8138C95.0001 30.6684 91.9252 38.8443 86.3523 37.9074L86.8546 28.7287Z" fill="#F9AE83"/>
<path d="M86.4202 36.0556C86.6646 36.0849 86.9021 35.9165 86.9632 35.653C87.9068 31.437 90.3301 31.093 90.4319 31.0783C90.7034 31.0417 90.9003 30.7855 90.8731 30.4927C90.846 30.2 90.6016 29.9877 90.3301 30.017C90.2011 30.0316 87.1126 30.4122 85.9926 35.4041C85.9315 35.6896 86.0944 35.9824 86.3591 36.0483C86.3795 36.0483 86.3998 36.0556 86.4134 36.0556H86.4202Z" fill="#F58A69"/>
<path d="M89.8753 33.7646C89.9907 33.7792 90.1128 33.7499 90.2214 33.6694C90.4454 33.501 90.4997 33.1717 90.3436 32.9301C90.3097 32.8716 89.468 31.5907 87.8049 31.759C87.5334 31.7883 87.3298 32.0518 87.3569 32.3446C87.3841 32.6373 87.6285 32.8569 87.9 32.8277C88.9657 32.7179 89.5087 33.5084 89.5291 33.545C89.6105 33.6694 89.7395 33.7499 89.8753 33.7646Z" fill="#F58A69"/>
<path d="M70.2581 41.7941C72.79 42.1308 74.2427 40.5279 74.3105 40.4473C74.5006 40.2351 74.4938 39.8911 74.2902 39.6934C74.0933 39.4885 73.7811 39.4958 73.591 39.7081C73.5231 39.7813 72.0705 41.3476 69.5115 40.5352C69.2535 40.4547 68.9752 40.6157 68.8938 40.8938C68.8191 41.1793 68.9684 41.4721 69.2264 41.5599C69.5861 41.677 69.9323 41.7502 70.2581 41.7941Z" fill="#F58A69"/>
<path d="M68.853 32.6886C69.0024 32.7106 69.1585 32.6594 69.2671 32.5349C69.4572 32.3227 69.4572 31.986 69.2603 31.781L68.0724 30.5221L69.2468 30.3537C69.4436 30.3244 69.6065 30.1781 69.6608 29.9731L70.55 26.6574C70.6247 26.3719 70.4754 26.0791 70.2106 25.9913C69.9459 25.9108 69.6744 26.0718 69.5929 26.3573L68.7987 29.3363L66.9321 29.5998C66.742 29.6291 66.5859 29.7682 66.5248 29.9585C66.4637 30.1561 66.5112 30.3684 66.647 30.5074L68.568 32.5349C68.6494 32.6228 68.7512 32.6667 68.853 32.6813V32.6886Z" fill="#F58A69"/>
<path d="M81.9739 109.763C81.9739 109.763 79.7881 108.255 77.6975 107.75C75.6068 107.245 73.4075 106.813 72.111 106.528C70.5565 106.184 70.862 107.78 72.111 108.577C74.0048 109.785 75.152 109.705 75.152 109.705C75.152 109.705 66.6331 109.653 64.522 110.598C62.5942 111.461 67.2847 111.739 71.1606 112.208C71.1606 112.208 62.9268 113.701 62.377 115.114C61.6575 116.966 71.6222 115.128 71.6222 115.128C71.6222 115.128 64.4609 117.661 64.8546 118.547C65.3026 119.527 72.9323 117.903 72.9323 117.903C72.9323 117.903 68.1536 120.113 68.6152 120.596C69.5247 121.548 80.3651 119.169 83.6166 114.982C83.6166 114.982 82.9649 110.576 81.9807 109.771L81.9739 109.763Z" fill="#F9AE83"/>
</svg>
