<svg width="296" height="317" viewBox="0 0 296 317" fill="none" xmlns="http://www.w3.org/2000/svg">
<path d="M187.782 0.852661H122.699C119.474 0.852661 116.859 3.51258 116.859 6.79375V39.3943C116.859 42.6754 119.474 45.3354 122.699 45.3354H187.782C191.007 45.3354 193.621 42.6754 193.621 39.3943V6.79375C193.621 3.51258 191.007 0.852661 187.782 0.852661Z" fill="#E59A24"/>
<path d="M112.182 10.9623H198.286C202.551 10.9623 206.016 14.4876 206.016 18.8269V61.9573C206.016 66.2966 202.551 69.8218 198.286 69.8218H112.175C107.91 69.8218 104.445 66.2966 104.445 61.9573V18.8269C104.445 14.4876 107.91 10.9623 112.175 10.9623H112.182Z" fill="#2D2D7E"/>
<path fill-rule="evenodd" clip-rule="evenodd" d="M56.4409 252.23H91.4764C93.7799 252.23 95.1606 254.153 94.5348 256.497L79.6237 312.435C78.9978 314.785 76.5976 316.702 74.2941 316.702H67.229C66.9257 316.702 66.6547 316.669 66.4096 316.61C66.0934 316.669 65.7643 316.702 65.4288 316.702H56.4473C53.5116 316.702 51.1113 314.26 51.1113 311.273V257.652C51.1113 254.665 53.5116 252.223 56.4473 252.223L56.4409 252.23Z" fill="#372F8F"/>
<path fill-rule="evenodd" clip-rule="evenodd" d="M247.291 237.426H238.303L212.256 252.23C210.242 253.372 208.571 254.153 209.197 256.497L224.108 312.435C224.734 314.785 227.134 316.702 229.438 316.702H236.503C236.806 316.702 237.077 316.669 237.322 316.61C237.639 316.669 237.968 316.702 238.303 316.702H247.291C250.227 316.702 252.621 314.26 252.621 311.273V242.849C252.621 239.862 250.22 237.42 247.291 237.42V237.426Z" fill="#372F8F"/>
<path fill-rule="evenodd" clip-rule="evenodd" d="M45.0527 252.23H80.0882C82.3917 252.23 83.7724 254.153 83.1466 256.497L68.2355 312.435C67.6096 314.785 65.2094 316.702 62.906 316.702H55.8408C55.5376 316.702 55.2666 316.669 55.0214 316.61C54.7052 316.669 54.3761 316.702 54.0406 316.702H45.0527C42.1234 316.702 39.7231 314.26 39.7231 311.273V257.652C39.7231 254.665 42.1234 252.223 45.0527 252.223V252.23Z" fill="#372F8F"/>
<path fill-rule="evenodd" clip-rule="evenodd" d="M235.909 252.23H200.874C198.564 252.23 197.19 254.153 197.815 256.497L212.726 312.435C213.352 314.785 215.753 316.702 218.056 316.702H225.121C225.424 316.702 225.695 316.669 225.941 316.61C226.257 316.669 226.586 316.702 226.921 316.702H235.909C238.845 316.702 241.239 314.26 241.239 311.273V257.652C241.239 254.665 238.839 252.223 235.909 252.223V252.23Z" fill="#372F8F"/>
<path d="M173.019 0.852661H107.936C104.711 0.852661 102.097 3.51258 102.097 6.79375V39.3943C102.097 42.6754 104.711 45.3354 107.936 45.3354H173.019C176.244 45.3354 178.859 42.6754 178.859 39.3943V6.79375C178.859 3.51258 176.244 0.852661 173.019 0.852661Z" fill="#F8B218"/>
<path d="M97.4252 10.9623H183.537C187.801 10.9623 191.266 14.4876 191.266 18.8269V61.9573C191.266 66.2966 187.801 69.8218 183.537 69.8218H97.4317C93.1667 69.8218 89.7019 66.2966 89.7019 61.9573V18.8269C89.7019 14.4876 93.1667 10.9623 97.4317 10.9623H97.4252Z" fill="#372F8F"/>
<path fill-rule="evenodd" clip-rule="evenodd" d="M157.347 21.7482C233.928 21.7482 296.005 84.9076 296.005 162.825C296.005 240.742 233.928 303.901 157.347 303.901C154.566 303.901 151.811 303.809 149.075 303.645H140.481V302.864C71.8616 294.395 18.6953 234.932 18.6953 162.831C18.6953 90.7306 71.8616 31.2671 140.481 22.7986V21.7548H157.354L157.347 21.7482Z" fill="#3F3592"/>
<path d="M142.216 303.931C218.789 302.973 280.089 239.039 279.132 161.131C278.176 83.2224 215.326 20.842 138.753 21.8001C62.1802 22.7582 0.880659 86.692 1.8369 164.6C2.79315 242.508 65.6431 304.889 142.216 303.931Z" fill="#5C4FA1"/>
<path fill-rule="evenodd" clip-rule="evenodd" d="M140.481 285.48C206.881 285.48 261.034 230.382 261.034 162.825C261.034 95.2668 206.881 40.1689 140.481 40.1689C74.0812 40.1689 19.9277 95.2668 19.9277 162.825C19.9277 230.382 74.0812 285.48 140.481 285.48Z" fill="#C7C3D1"/>
<path d="M140.481 275.147C201.452 275.147 250.878 224.859 250.878 162.825C250.878 100.79 201.452 50.5018 140.481 50.5018C79.5102 50.5018 30.0835 100.79 30.0835 162.825C30.0835 224.859 79.5102 275.147 140.481 275.147Z" fill="white"/>
<path fill-rule="evenodd" clip-rule="evenodd" d="M140.481 75.7235C138.694 75.7235 137.242 74.2465 137.242 72.428V66.6905C137.242 64.872 138.694 63.395 140.481 63.395C142.268 63.395 143.72 64.872 143.72 66.6905V72.428C143.72 74.2465 142.268 75.7235 140.481 75.7235ZM140.481 262.248C138.694 262.248 137.242 260.771 137.242 258.952V253.214C137.242 251.396 138.694 249.919 140.481 249.919C142.268 249.919 143.72 251.396 143.72 253.214V258.952C143.72 260.771 142.268 262.248 140.481 262.248ZM183.285 87.3957C181.743 86.4897 181.207 84.4678 182.098 82.8988L184.917 77.9293C185.808 76.3603 187.795 75.822 189.337 76.728C190.879 77.6339 191.415 79.6558 190.524 81.2248L187.705 86.1943C186.814 87.7633 184.827 88.3082 183.285 87.3957ZM91.6247 248.928C90.0827 248.022 89.5472 246 90.444 244.431L93.2636 239.461C94.154 237.892 96.1413 237.348 97.6834 238.253C99.2255 239.159 99.761 241.181 98.8706 242.75L96.051 247.72C95.1541 249.289 93.1733 249.834 91.6247 248.921V248.928ZM214.623 119.274C213.733 117.705 214.269 115.683 215.811 114.777L220.695 111.908C222.237 111.002 224.224 111.541 225.115 113.116C226.005 114.685 225.476 116.707 223.927 117.613L219.043 120.482C217.501 121.388 215.514 120.843 214.623 119.274ZM55.8601 212.533C54.9697 210.964 55.4988 208.942 57.0473 208.036L61.9317 205.167C63.4737 204.261 65.461 204.8 66.3514 206.375C67.2418 207.944 66.7127 209.966 65.1642 210.872L60.2799 213.741C58.7378 214.647 56.7505 214.102 55.8601 212.533ZM226.089 162.818C226.089 161.006 227.541 159.529 229.328 159.529H234.967C236.755 159.529 238.206 161.006 238.206 162.825C238.206 164.643 236.755 166.12 234.967 166.12H229.328C227.541 166.12 226.089 164.643 226.089 162.825V162.818ZM42.7686 162.818C42.7686 161.006 44.2203 159.529 46.0075 159.529H51.6468C53.4341 159.529 54.8858 161.006 54.8858 162.825C54.8858 164.643 53.4341 166.12 51.6468 166.12H46.0075C44.2203 166.12 42.7686 164.643 42.7686 162.825V162.818ZM214.623 206.368C215.514 204.8 217.501 204.255 219.043 205.167L223.927 208.036C225.47 208.942 226.005 210.964 225.115 212.533C224.224 214.102 222.237 214.647 220.695 213.741L215.811 210.872C214.269 209.966 213.733 207.944 214.623 206.375V206.368ZM55.8601 113.11C56.7505 111.541 58.7378 111.002 60.2799 111.908L65.1642 114.777C66.7063 115.683 67.2418 117.705 66.3514 119.274C65.461 120.843 63.4737 121.388 61.9317 120.482L57.0473 117.613C55.4988 116.707 54.9697 114.685 55.8601 113.11ZM183.291 238.253C184.834 237.348 186.821 237.892 187.711 239.461L190.531 244.431C191.421 246 190.886 248.022 189.344 248.928C187.802 249.834 185.814 249.295 184.924 247.726L182.104 242.757C181.214 241.188 181.749 239.166 183.291 238.26V238.253ZM91.6312 76.7214C93.1733 75.8154 95.1605 76.3603 96.051 77.9293L98.8706 82.8988C99.761 84.4678 99.2319 86.4897 97.6834 87.3957C96.1413 88.3016 94.154 87.7567 93.2636 86.1877L90.444 81.2182C89.5536 79.6493 90.0827 77.6273 91.6312 76.7214Z" fill="#0B0C14"/>
<path fill-rule="evenodd" clip-rule="evenodd" d="M140.481 166.711C142.584 166.711 144.307 164.965 144.307 162.825V96.6848C144.307 94.5447 142.591 92.7985 140.481 92.7985C138.377 92.7985 136.661 94.5512 136.661 96.6848V162.825C136.661 164.965 138.377 166.711 140.481 166.711Z" fill="#0B0C14"/>
<path fill-rule="evenodd" clip-rule="evenodd" d="M137.777 160.074C136.293 161.584 136.293 164.059 137.777 165.575L171.471 199.856C172.955 201.366 175.394 201.366 176.878 199.856C178.362 198.346 178.362 195.871 176.878 194.355L143.184 160.074C141.7 158.564 139.261 158.564 137.777 160.074Z" fill="#F8B218"/>
</svg>
