<svg width="161" height="160" viewBox="0 0 161 160" fill="none" xmlns="http://www.w3.org/2000/svg">
<path fill-rule="evenodd" clip-rule="evenodd" d="M24.5657 129.321C35.9216 135.754 64.0791 147.045 91.9462 159.696H120.91L121.665 146.218C96.3724 121.692 64.9179 98.0395 40.2317 88.2515C-3.06919 71.0781 -15.5994 106.567 24.5657 129.327V129.321Z" fill="#E59A24"/>
<path fill-rule="evenodd" clip-rule="evenodd" d="M117.69 159.696C76.1511 121.436 14.0033 98.5581 13.771 98.4728C13.3065 98.3021 12.8161 98.5581 12.6741 99.0439C12.5386 99.5363 12.8032 100.068 13.2677 100.245C13.4936 100.331 73.9186 122.572 115.09 159.696H117.69Z" fill="white"/>
<path fill-rule="evenodd" clip-rule="evenodd" d="M37.1733 159.696C42.4642 152.409 65.8986 149.395 99.805 159.696H37.1733Z" fill="#0D2E35"/>
<path fill-rule="evenodd" clip-rule="evenodd" d="M106.961 159.696C97.9598 151.995 88.7137 142.056 82.5196 130.115C66.5374 99.3065 61.5757 89.5972 53.7814 86.9976C47.0582 84.7525 105.218 59.2616 160.224 119.099C158.301 132.82 150.907 147.544 132.24 159.696H106.954H106.961Z" fill="#F8B218"/>
<path fill-rule="evenodd" clip-rule="evenodd" d="M61.4725 82.1462C93.1013 93.93 124.691 118.528 150.526 142.883C150.074 143.5 149.603 144.111 149.119 144.721C122.646 119.749 90.1269 94.5273 57.8335 83.3804C58.8852 82.9603 60.1047 82.5467 61.4725 82.1528V82.1462Z" fill="white"/>
<path fill-rule="evenodd" clip-rule="evenodd" d="M105.948 21.0088C115.239 30.4883 131.911 51.7581 150.991 75.4568C150.991 75.4568 170.399 107.112 154.52 136.568C119.781 114.143 85.4877 85.875 66.0149 60.0559C27.579 9.10036 62.5307 -23.2835 105.954 21.0022L105.948 21.0088Z" fill="#FBC351"/>
<path fill-rule="evenodd" clip-rule="evenodd" d="M160.288 118.673C107.954 78.0565 66.2923 20.1291 66.1181 19.8863C65.7181 19.3348 65.7955 18.5602 66.2923 18.1597C66.7891 17.7593 67.5182 17.884 67.9183 18.442C68.0925 18.6849 109.077 75.6734 160.572 115.961C160.501 116.861 160.404 117.767 160.288 118.679V118.673Z" fill="white"/>
<path fill-rule="evenodd" clip-rule="evenodd" d="M134.77 157.976C128.162 149.96 119.504 140.993 109.161 133.693C84.0487 115.961 59.0915 125.913 56.7042 135.511C55.7299 139.424 56.5945 148.66 61.0207 159.702H132.221C133.092 159.131 133.937 158.56 134.763 157.982L134.77 157.976Z" fill="#FBC351"/>
<path fill-rule="evenodd" clip-rule="evenodd" d="M116.303 159.696C114.071 154.011 110.045 144.255 106.76 138.977C106.483 138.524 106.031 138.36 105.754 138.61C105.476 138.859 105.483 139.424 105.76 139.877C108.857 144.859 112.677 154.063 114.897 159.702H116.297L116.303 159.696ZM113.219 159.696H107.451C105.58 158.56 103.67 157.444 101.715 156.354C100.895 157.024 99.5598 158.159 97.9209 159.696H95.211C97.1209 157.798 98.7662 156.334 99.9147 155.356C93.185 151.693 85.9779 148.332 78.3578 145.516C76.3641 146.671 72.183 149.441 69.1827 153.787C68.9634 154.109 68.5182 154.043 68.1956 153.643C67.8729 153.242 67.7891 152.652 68.0084 152.33C70.499 148.726 73.7703 146.166 76.035 144.675C71.1571 142.962 66.1179 141.465 60.9175 140.264C60.1367 140.087 59.427 139.115 59.3302 138.098C59.2399 137.08 59.7948 136.404 60.5755 136.581C71.2475 139.049 81.2871 142.713 90.5847 147.058C85.0875 135.596 79.9192 128.618 79.9063 128.598C79.5966 128.178 79.5386 127.594 79.7837 127.299C80.0289 127.003 80.4741 127.102 80.7838 127.522C80.8032 127.548 86.5586 135.321 92.4365 147.938C99.8695 151.516 106.812 155.527 113.206 159.696H113.219Z" fill="white"/>
</svg>
