<svg width="50" height="61" viewBox="0 0 50 61" fill="none" xmlns="http://www.w3.org/2000/svg">
<path d="M6.51998 48.6657C6.47925 48.8048 12.6224 51.2422 20.2385 54.1188C27.8614 56.9954 34.0723 59.2132 34.1199 59.0741C34.1606 58.935 28.0243 56.4976 20.4014 53.6211C12.7785 50.7445 6.5675 48.5267 6.52677 48.6657H6.51998Z" stroke="#E59A24" stroke-width="3" stroke-miterlimit="10"/>
<path d="M4.03564 33.1191C4.05601 33.2655 13.8578 31.7869 25.9336 29.8253C38.0094 27.8637 47.7773 26.1582 47.7637 26.0118C47.7433 25.8654 37.9415 27.344 25.8657 29.3056C13.7967 31.2672 4.02208 32.9727 4.04244 33.1191H4.03564Z" stroke="#E59A24" stroke-width="3" stroke-miterlimit="10"/>
<path d="M1.85672 17.1698C1.94496 17.2796 5.3797 13.9712 9.52715 9.78442C13.6746 5.59765 16.9599 2.12087 16.8717 2.01108C16.7834 1.90129 13.3487 5.20971 9.2013 9.39648C5.05385 13.5832 1.76847 17.06 1.85672 17.1698Z" stroke="#E59A24" stroke-width="3" stroke-miterlimit="10"/>
</svg>
