<svg width="65" height="13" viewBox="0 0 65 13" fill="none" xmlns="http://www.w3.org/2000/svg">
<path d="M2.52707 11.075C2.46598 11.075 2.41846 11.0238 2.41846 10.9579V1.78655C2.41846 1.72067 2.46598 1.66943 2.52707 1.66943H8.96205C9.02315 1.66943 9.07066 1.72067 9.07066 1.78655C9.07066 1.85242 9.02315 1.90366 8.96205 1.90366H2.63568V10.9579C2.63568 11.0238 2.58816 11.075 2.52707 11.075Z" fill="#F8B218" stroke="#F8B218" stroke-width="3" stroke-miterlimit="10"/>
<path d="M63.1097 11.075C63.0487 11.075 63.0011 11.0238 63.0011 10.9579V1.90366H56.6748C56.6137 1.90366 56.5662 1.85242 56.5662 1.78655C56.5662 1.72067 56.6137 1.66943 56.6748 1.66943H63.1097C63.1708 1.66943 63.2184 1.72067 63.2184 1.78655V10.9579C63.2184 11.0238 63.1708 11.075 63.1097 11.075Z" fill="#F8B218" stroke="#F8B218" stroke-width="3" stroke-miterlimit="10"/>
</svg>
