<svg width="17" height="46" viewBox="0 0 17 46" fill="none" xmlns="http://www.w3.org/2000/svg">
<path d="M3.88406 5.92142H0.939941V9.18309H3.88406V5.92142Z" fill="#3E3D98"/>
<path d="M16.4085 7.138H5.86263C5.84694 7.138 5.83423 7.15209 5.83423 7.16946V7.92458C5.83423 7.94195 5.84694 7.95604 5.86263 7.95604H16.4085C16.4241 7.95604 16.4368 7.94195 16.4368 7.92458V7.16946C16.4368 7.15209 16.4241 7.138 16.4085 7.138Z" fill="#E8D3E7"/>
<path d="M3.88406 0.111237H0.939941V3.37291H3.88406V0.111237Z" fill="#3E3D98"/>
<path d="M16.4085 1.32782H5.86263C5.84694 1.32782 5.83423 1.34191 5.83423 1.35928V2.1144C5.83423 2.13177 5.84694 2.14586 5.86263 2.14586H16.4085C16.4241 2.14586 16.4368 2.13177 16.4368 2.1144V1.35928C16.4368 1.34191 16.4241 1.32782 16.4085 1.32782Z" fill="#E8D3E7"/>
<path d="M3.88406 11.7211H0.939941V14.9828H3.88406V11.7211Z" fill="#675FA6"/>
<path d="M16.4085 12.9482H5.86263C5.84694 12.9482 5.83423 12.9623 5.83423 12.9796V13.7348C5.83423 13.7521 5.84694 13.7662 5.86263 13.7662H16.4085C16.4241 13.7662 16.4368 13.7521 16.4368 13.7348V12.9796C16.4368 12.9623 16.4241 12.9482 16.4085 12.9482Z" fill="#E8D3E7"/>
<path d="M16.0676 25.1978H1.30914C1.11034 25.1978 0.939941 25.0195 0.939941 24.7888C0.939941 24.5686 1.10087 24.3798 1.30914 24.3798H16.0676C16.2664 24.3798 16.4368 24.5581 16.4368 24.7888C16.4368 25.0091 16.2759 25.1978 16.0676 25.1978Z" fill="#E8D3E7"/>
<path d="M16.0676 28.5434H1.30914C1.11034 28.5434 0.939941 28.3651 0.939941 28.1344C0.939941 27.9142 1.10087 27.7254 1.30914 27.7254H16.0676C16.2664 27.7254 16.4368 27.9037 16.4368 28.1344C16.4368 28.3546 16.2759 28.5434 16.0676 28.5434Z" fill="#E8D3E7"/>
<path d="M16.0676 31.8995H1.30914C1.11034 31.8995 0.939941 31.7212 0.939941 31.4904C0.939941 31.2702 1.10087 31.0814 1.30914 31.0814H16.0676C16.2664 31.0814 16.4368 31.2597 16.4368 31.4904C16.4368 31.7107 16.2759 31.8995 16.0676 31.8995Z" fill="#E8D3E7"/>
<path d="M16.0676 35.245H1.30914C1.11034 35.245 0.939941 35.0668 0.939941 34.836C0.939941 34.6158 1.10087 34.427 1.30914 34.427H16.0676C16.2664 34.427 16.4368 34.6053 16.4368 34.836C16.4368 35.0563 16.2759 35.245 16.0676 35.245Z" fill="#E8D3E7"/>
<path d="M16.0676 38.6011H1.30914C1.11034 38.6011 0.939941 38.4228 0.939941 38.1921C0.939941 37.9719 1.10087 37.7831 1.30914 37.7831H16.0676C16.2664 37.7831 16.4368 37.9614 16.4368 38.1921C16.4368 38.4123 16.2759 38.6011 16.0676 38.6011Z" fill="#E8D3E7"/>
<path d="M16.0676 41.9467H1.30914C1.11034 41.9467 0.939941 41.7684 0.939941 41.5377C0.939941 41.3174 1.10087 41.1287 1.30914 41.1287H16.0676C16.2664 41.1287 16.4368 41.307 16.4368 41.5377C16.4368 41.7579 16.2759 41.9467 16.0676 41.9467Z" fill="#E8D3E7"/>
<path d="M16.0676 45.3028H1.30914C1.11034 45.3028 0.939941 45.1245 0.939941 44.8937C0.939941 44.6735 1.10087 44.4847 1.30914 44.4847H16.0676C16.2664 44.4847 16.4368 44.663 16.4368 44.8937C16.4368 45.114 16.2759 45.3028 16.0676 45.3028Z" fill="#E8D3E7"/>
</svg>
