<svg width="539" height="144" viewBox="0 0 539 144" fill="none" xmlns="http://www.w3.org/2000/svg">
<path d="M75.6196 104.319C65.2611 97.4313 58.799 110.87 58.7583 110.95C58.7175 110.87 52.2622 97.4313 41.897 104.319C29.9977 112.231 41.6254 137.213 58.7515 143.274C75.8775 137.213 87.5121 112.224 75.606 104.319H75.6196Z" fill="#5C4FA1"/>
<path d="M6.83702 32.1778C11.1338 32.7487 15.4917 32.778 19.7952 32.2583C20.8338 32.1338 21.8995 31.9655 22.7819 31.3726C23.6644 30.7797 24.316 29.7477 24.092 28.6497C24.8726 28.6424 25.5107 28.0056 26.0673 27.4127C26.2913 27.1712 26.5289 26.9223 26.6647 26.6076C26.8276 26.2489 26.8547 25.839 26.8344 25.4365C26.7733 24.1775 26.2302 23.0137 25.212 22.3915C26.142 22.0914 26.9158 21.2717 27.1941 20.2689C27.4724 19.2661 27.2552 18.1169 26.6375 17.3191C26.2234 16.7848 25.7279 16.5213 25.1306 16.2651C25.5514 15.8552 26.142 15.6576 26.4746 15.1599C26.9362 14.4718 26.685 13.4398 26.1013 12.8615C25.5175 12.2906 24.7029 12.0856 23.9223 12.0051C22.4901 11.8661 21.051 12.071 19.6188 12.1296C18.1865 12.1881 16.6321 11.9027 15.3559 11.1853C15.0776 9.1432 15.5324 7.01322 15.0233 5.02231C14.3988 2.57759 12.2335 0.689156 9.8916 0.542765C9.4436 0.513487 8.94129 0.572034 8.6494 0.94533C8.43898 1.22347 8.39825 1.60409 8.39825 1.95543C8.39146 3.60232 8.96844 5.18334 9.31462 6.78632C9.6676 8.3893 9.75584 10.2119 8.88698 11.566C8.54758 12.093 8.07921 12.5248 7.80091 13.0957C7.42078 13.8789 7.45472 14.8232 7.25108 15.6869C7.04745 16.5506 6.42974 17.4509 5.6084 17.363L6.82344 32.1778H6.83702Z" fill="white"/>
<path d="M6.1378 13.0665H0.999308C0.601925 13.0665 0.279785 13.4139 0.279785 13.8424V33.1293C0.279785 33.5578 0.601925 33.9052 0.999308 33.9052H6.1378C6.53518 33.9052 6.85732 33.5578 6.85732 33.1293V13.8424C6.85732 13.4139 6.53518 13.0665 6.1378 13.0665Z" fill="white"/>
<path d="M3.40206 16.5287C3.84443 16.5287 4.20303 16.142 4.20303 15.665C4.20303 15.188 3.84443 14.8013 3.40206 14.8013C2.95969 14.8013 2.60107 15.188 2.60107 15.665C2.60107 16.142 2.95969 16.5287 3.40206 16.5287Z" fill="white"/>
<path d="M532.796 63.3589H483.209C479.931 63.3589 477.27 66.2281 477.27 69.7635V104.231C477.27 107.766 479.931 110.636 483.209 110.636H497.973L502.637 119.339L508.006 129.374L513.375 119.339L518.039 110.636H532.802C536.081 110.636 538.742 107.766 538.742 104.231V69.7635C538.742 66.2281 536.081 63.3589 532.802 63.3589H532.796Z" fill="#FCB32B"/>
<path d="M504.042 102.387C508.339 102.958 512.696 102.987 517 102.467C518.039 102.343 519.104 102.174 519.987 101.581C520.869 100.989 521.521 99.9565 521.297 98.8586C522.077 98.8513 522.722 98.2145 523.272 97.6216C523.496 97.3801 523.734 97.1312 523.869 96.8165C524.032 96.4578 524.06 96.0479 524.039 95.6453C523.978 94.3864 523.435 93.2226 522.417 92.6004C523.347 92.3003 524.121 91.4805 524.399 90.4777C524.677 89.475 524.46 88.3258 523.842 87.528C523.428 86.9937 522.933 86.7375 522.335 86.474C522.756 86.0641 523.347 85.8664 523.679 85.3687C524.141 84.6807 523.89 83.6486 523.306 83.0704C522.722 82.4995 521.908 82.2945 521.127 82.214C519.695 82.0749 518.256 82.2799 516.824 82.3384C515.391 82.397 513.837 82.1115 512.561 81.3942C512.282 79.3521 512.737 77.2221 512.228 75.2312C511.604 72.7865 509.438 70.898 507.096 70.7516C506.648 70.7223 506.146 70.7809 505.854 71.1542C505.644 71.4323 505.603 71.813 505.603 72.1643C505.596 73.8112 506.173 75.3922 506.519 76.9952C506.872 78.5982 506.961 80.4207 506.092 81.7748C505.752 82.3018 505.284 82.7337 505.006 83.3046C504.626 84.0878 504.66 85.032 504.456 85.8957C504.259 86.7594 503.635 87.6597 502.813 87.5719L504.028 102.387H504.042Z" fill="white"/>
<path d="M503.349 83.2826H498.211C497.814 83.2826 497.491 83.63 497.491 84.0585V103.345C497.491 103.774 497.814 104.121 498.211 104.121H503.349C503.747 104.121 504.069 103.774 504.069 103.345V84.0585C504.069 83.63 503.747 83.2826 503.349 83.2826Z" fill="white"/>
<path d="M501.415 85.8737C501.415 86.3495 501.055 86.7374 500.614 86.7374C500.173 86.7374 499.813 86.3495 499.813 85.8737C499.813 85.398 500.173 85.01 500.614 85.01C501.055 85.01 501.415 85.398 501.415 85.8737Z" fill="white"/>
</svg>
