<svg width="289" height="487" viewBox="0 0 289 487" fill="none" xmlns="http://www.w3.org/2000/svg">
<path d="M14.8133 0.317505H274.209C281.845 0.317505 288.049 7.00755 288.049 15.242V472.076C288.049 480.31 281.845 487 274.209 487H14.8133C7.17687 487 0.972656 480.31 0.972656 472.076V15.242C0.972656 7.00755 7.17687 0.317505 14.8133 0.317505Z" fill="#14202E"/>
<path d="M177.806 12.0215H111.216V17.3428H177.806V12.0215Z" fill="#2E3D4C"/>
<path d="M176.075 459.874H112.94V473.7H176.075V459.874Z" fill="#2E3D4C"/>
<path d="M281.146 31.6963H7.87598V450.988H281.146V31.6963Z" fill="white"/>
<path d="M281.146 31.6963H7.87598V47.6528H281.146V31.6963Z" fill="#5C4FA1"/>
<path d="M32.1702 394.51C38.2322 394.51 43.1464 389.211 43.1464 382.675C43.1464 376.138 38.2322 370.839 32.1702 370.839C26.1083 370.839 21.1941 376.138 21.1941 382.675C21.1941 389.211 26.1083 394.51 32.1702 394.51Z" fill="#FCB32B"/>
<path d="M62.5057 394.51C68.5676 394.51 73.4818 389.211 73.4818 382.675C73.4818 376.138 68.5676 370.839 62.5057 370.839C56.4437 370.839 51.5295 376.138 51.5295 382.675C51.5295 389.211 56.4437 394.51 62.5057 394.51Z" fill="#FCB32B"/>
<path d="M138.096 373.496H79.6453V379.615H138.096V373.496Z" fill="#FCB32B"/>
<path d="M265.853 402.218H23.1694V408.337H265.853V402.218Z" fill="#FCB32B"/>
<path d="M265.853 414.72H23.1694V420.839H265.853V414.72Z" fill="#FCB32B"/>
<path d="M81.6206 427.221H23.1694V433.341H81.6206V427.221Z" fill="#FCB32B"/>
<path d="M42.838 106.751C44.2357 100.391 40.5869 94.0126 34.6883 92.5055C28.7896 90.9984 22.8748 94.933 21.4772 101.294C20.0795 107.654 23.7283 114.032 29.627 115.539C35.5256 117.046 41.4404 113.112 42.838 106.751Z" fill="#5C4FA1"/>
<path d="M106.037 94.3295H47.5857V100.449H106.037V94.3295Z" fill="#D6D6D6"/>
<path d="M173.855 384.937H79.6453V391.056H173.855V384.937Z" fill="#FCB32B"/>
<path d="M281.146 119.992H7.87598V311.47H281.146V119.992Z" fill="#5C4FA1"/>
<path d="M205.365 328.591C196.581 328.591 187.703 324.199 180.732 320.752C171.602 316.235 165.73 303.975 167.644 293.428C168.968 286.116 173.984 279.931 180.121 278.035C180.779 277.83 181.451 277.669 182.123 277.515C183.162 277.274 184.139 277.039 185.069 276.644C188.47 275.195 191.131 271.455 192.19 266.624C193.106 262.466 192.841 258.031 192.59 253.734L192.549 253.017C192.122 245.639 191.918 237.829 194.416 230.663C196.717 224.053 202.419 217.107 209.961 216.492C210.863 216.419 211.773 216.441 212.655 216.456C213.904 216.485 215.085 216.507 216.246 216.287C221.67 215.255 225.125 209.151 227.901 204.247C230.684 199.328 235.157 192.821 241.538 192.923C245.489 193.004 249.344 195.932 251.143 200.221C252.684 203.895 252.799 208.426 251.476 212.979C251.109 214.245 250.634 215.533 250.179 216.778C248.74 220.723 247.376 224.456 248.747 227.925C249.358 229.477 250.464 230.736 251.632 232.061C252.059 232.544 252.487 233.034 252.888 233.532C258.623 240.676 259.418 252.087 254.741 260.073C251.645 265.357 246.649 269.032 241.816 272.589C235.721 277.076 229.965 281.314 228.023 288.407C227.019 292.088 227.27 295.916 227.528 299.964C227.752 303.434 227.989 307.02 227.351 310.504C226.068 317.546 221.174 323.753 214.57 326.695C211.569 328.035 208.474 328.583 205.365 328.583V328.591ZM211.44 218.037C210.979 218.037 210.524 218.051 210.069 218.088C203.179 218.644 197.939 225.093 195.801 231.227C193.411 238.092 193.615 245.705 194.029 252.914L194.07 253.632C194.328 258.038 194.593 262.598 193.629 266.982C192.461 272.318 189.461 276.483 185.612 278.115C184.574 278.555 183.487 278.818 182.435 279.06C181.797 279.213 181.152 279.36 180.528 279.557C174.907 281.292 170.312 286.987 169.09 293.721C167.332 303.426 172.939 315.138 181.342 319.295C190.533 323.84 203.132 330.069 213.993 325.224C220.142 322.486 224.697 316.726 225.885 310.197C226.482 306.918 226.252 303.441 226.034 300.074C225.77 296.063 225.498 291.913 226.584 287.953C228.675 280.311 234.92 275.715 240.961 271.264C245.665 267.802 250.539 264.216 253.465 259.216C257.809 251.802 257.069 241.203 251.747 234.572C251.36 234.088 250.946 233.62 250.539 233.152C249.331 231.783 248.089 230.363 247.369 228.54C245.76 224.463 247.301 220.255 248.788 216.178C249.236 214.955 249.697 213.696 250.05 212.481C251.265 208.309 251.17 204.181 249.779 200.865C248.211 197.125 244.885 194.57 241.497 194.504C235.863 194.439 231.743 200.477 229.143 205.059C226.211 210.241 222.566 216.683 216.484 217.839C215.18 218.088 213.877 218.059 212.608 218.029C212.207 218.022 211.814 218.015 211.42 218.015L211.44 218.037Z" fill="#F9F9FA"/>
<path d="M254.938 183.423C252.182 183.423 249.942 181.007 249.942 178.035C249.942 175.064 252.182 172.648 254.938 172.648C257.693 172.648 259.934 175.064 259.934 178.035C259.934 181.007 257.693 183.423 254.938 183.423ZM254.938 174.244C253.003 174.244 251.421 175.942 251.421 178.035C251.421 180.129 252.996 181.827 254.938 181.827C256.879 181.827 258.454 180.129 258.454 178.035C258.454 175.942 256.879 174.244 254.938 174.244Z" fill="#F9F9FA"/>
<path d="M232.931 155.096C232.931 156.201 232.103 157.094 231.078 157.094C230.053 157.094 229.231 156.201 229.231 155.096C229.231 153.991 230.06 153.098 231.078 153.098C232.096 153.098 232.931 153.991 232.931 155.096Z" fill="#F9F9FA"/>
<path d="M34.0775 272.779C35.4046 272.779 36.4804 271.619 36.4804 270.188C36.4804 268.757 35.4046 267.597 34.0775 267.597C32.7504 267.597 31.6746 268.757 31.6746 270.188C31.6746 271.619 32.7504 272.779 34.0775 272.779Z" fill="#F9F9FA"/>
<path d="M254.571 284.344C252.019 284.344 249.948 282.105 249.948 279.36C249.948 276.615 252.025 274.375 254.571 274.375C257.116 274.375 259.193 276.615 259.193 279.36C259.193 282.105 257.116 284.344 254.571 284.344ZM254.571 275.963C252.84 275.963 251.428 277.486 251.428 279.352C251.428 281.219 252.84 282.741 254.571 282.741C256.302 282.741 257.714 281.219 257.714 279.352C257.714 277.486 256.302 275.963 254.571 275.963Z" fill="#F9F9FA"/>
<path d="M103.573 269.456C103.573 269.456 89.2704 294.987 85.0754 317.063H181.505C181.505 317.063 174.106 278.767 165.723 269.727L103.573 269.464V269.456Z" fill="#483F99"/>
<path d="M101.224 276.966C123.584 276.395 146.194 276.388 168.554 276.966C146.194 277.544 123.584 277.537 101.224 276.966Z" fill="white"/>
<path d="M111.033 277.566C109.302 283.876 105.31 291.883 98.6718 292.945C97.7215 293.033 96.7712 292.974 95.8616 292.725C103.702 293.245 108.039 284.073 111.033 277.566Z" fill="white"/>
<path d="M139.888 276.769C140.112 286.679 140.221 297.541 140.248 307.489V307.65L140.14 307.767L132.394 316.17L131.722 316.894V315.869C131.763 302.907 131.811 289.936 132.116 276.974C132.272 283.459 132.347 289.936 132.408 296.421C132.483 302.907 132.469 309.384 132.503 315.869L131.838 315.569L139.63 307.218L139.522 307.489C139.549 297.534 139.658 286.694 139.882 276.769H139.888Z" fill="white"/>
<path d="M161.712 276.966C161.983 284.886 164.474 291.861 172.993 291.129C164.427 293.435 160.571 284.959 161.712 276.966Z" fill="white"/>
</svg>
