<svg width="16" height="22" viewBox="0 0 16 22" fill="none" xmlns="http://www.w3.org/2000/svg">
<path fill-rule="evenodd" clip-rule="evenodd" d="M11.224 19.852C10.947 17.5049 11.7483 15.7371 12.4606 14.6984C13.1729 13.6597 14.7458 12.1815 15.6559 9.44495C16.5661 6.70837 15.3196 6.93808 14.172 8.15655C13.0245 9.37503 11.2141 10.6834 11.2141 10.6834C11.2141 10.6834 9.76979 5.37004 9.36419 3.12284C8.96848 0.875647 7.48456 0.0167174 6.82175 1.1553C6.15894 2.29388 6.57444 2.57353 6.05012 2.45368C5.52581 2.33383 4.98172 2.32384 4.63547 3.18277L4.28922 4.04169C4.28922 4.04169 3.29995 3.53233 2.77564 4.21148C2.25133 4.88065 2.24142 6.22897 2.24142 6.22897C2.24142 6.22897 0.846565 6.0492 0.708067 6.6884C0.569569 7.3276 1.09388 11.6922 2.00401 13.9893C2.91414 16.2864 4.72452 19.5823 4.80366 21.2402C4.8828 22.8982 11.2339 19.8619 11.2339 19.8619L11.224 19.852Z" fill="#F4AC83"/>
<path fill-rule="evenodd" clip-rule="evenodd" d="M11.2241 19.8519C11.0163 18.0542 11.4417 16.586 11.966 15.5373C9.26533 17.395 6.08976 16.7458 3.91336 14.2689C3.16152 13.4 2.16238 12.1815 1.15332 10.9131C1.37096 12.0217 1.64795 13.1503 1.9843 13.9892C2.89443 16.2864 4.70479 19.5823 4.78393 21.2402C4.86307 22.8981 11.2142 19.8619 11.2142 19.8619L11.2241 19.8519Z" fill="#EC7862"/>
</svg>
