<svg width="55" height="35" viewBox="0 0 55 35" fill="none" xmlns="http://www.w3.org/2000/svg">
<path d="M4.95595 24.9325H3.84834V23.0971L45.8991 23.1601C47.2907 23.1601 48.5592 23.7893 49.468 24.8066C50.3768 25.8135 50.9448 27.2188 50.9448 28.7605C50.9448 31.8544 48.6823 34.3504 45.8897 34.3504L3.83887 34.2875V32.6934H4.95595V24.943V24.9325Z" fill="#4A429A"/>
<path d="M4.6626 24.9325V32.6829L43.2391 32.7353C45.1229 32.7353 46.6471 31.0049 46.6566 28.8654C46.6566 27.7956 46.2779 26.8203 45.6625 26.1176C45.0472 25.4149 44.1952 24.9849 43.2486 24.9744L4.6626 24.922V24.9325Z" fill="white"/>
<path d="M4.6626 26.8937V28.0788L42.2451 28.1312C42.5386 28.1312 42.7752 27.869 42.7752 27.5439C42.7752 27.2188 42.5386 26.9461 42.2451 26.9461L4.6626 26.8937Z" fill="#E5C09F"/>
<path d="M4.6626 29.8093V30.9944L42.2451 31.0468C42.5386 31.0468 42.7752 30.7846 42.7752 30.4595C42.7752 30.1344 42.5386 29.8617 42.2451 29.8617L4.6626 29.8093Z" fill="#E5C09F"/>
<path d="M8.71425 13.7526H7.60664V11.9172L49.6574 11.9802C51.049 11.9802 52.3176 12.6094 53.2264 13.6267C54.1352 14.644 54.7031 16.0389 54.7031 17.5806C54.7031 20.6745 52.4406 23.1705 49.6479 23.1705L7.59717 23.1076V21.5135H8.71425V13.7631V13.7526Z" fill="#FBB416"/>
<path d="M8.4209 13.7421V21.4925L46.9974 21.5449C48.8813 21.5449 50.4054 19.8145 50.4148 17.675C50.4148 16.6052 50.0362 15.6299 49.4209 14.9272C48.8055 14.2245 47.9535 13.7945 47.0069 13.784L8.4209 13.7316V13.7421Z" fill="white"/>
<path d="M8.4209 15.7138V16.8989L46.0034 16.9513C46.2969 16.9513 46.5336 16.6891 46.5336 16.364C46.5336 16.0389 46.2969 15.7662 46.0034 15.7662L8.4209 15.7138Z" fill="#E5C09F"/>
<path d="M8.4209 18.6294V19.8145L46.0034 19.8669C46.2969 19.8669 46.5336 19.6047 46.5336 19.2796C46.5336 18.9545 46.2969 18.6818 46.0034 18.6818L8.4209 18.6294Z" fill="#E5C09F"/>
<path d="M1.37758 2.55172H0.269974V0.71637L42.3208 0.779295C43.7123 0.779295 44.9809 1.40856 45.8897 2.42587C46.7985 3.43269 47.3665 4.83804 47.3665 6.37973C47.3665 9.4736 45.1039 11.9697 42.3113 11.9697L0.260498 11.9068V10.3126H1.37758V2.56221V2.55172Z" fill="#5C4DA0"/>
<path d="M1.09351 2.55172V10.3021L39.67 10.3546C41.5539 10.3546 43.078 8.6241 43.0875 6.48461C43.0875 5.41486 42.7088 4.4395 42.0935 3.73683C41.4782 3.03415 40.6261 2.60416 39.6795 2.59367L1.09351 2.54123V2.55172Z" fill="white"/>
<path d="M1.09351 4.51291V5.69802L38.676 5.75046C38.9695 5.75046 39.2061 5.48826 39.2061 5.16315C39.2061 4.83803 38.9695 4.56535 38.676 4.56535L1.09351 4.51291Z" fill="#E5C09F"/>
<path d="M1.08423 7.4285V8.61361L38.6668 8.66605C38.9602 8.66605 39.1969 8.40385 39.1969 8.07874C39.1969 7.75362 38.9602 7.48094 38.6668 7.48094L1.08423 7.4285Z" fill="#E5C09F"/>
</svg>
