<svg width="9" height="10" viewBox="0 0 9 10" fill="none" xmlns="http://www.w3.org/2000/svg">
<path fill-rule="evenodd" clip-rule="evenodd" d="M3.68337 1.68124C3.68337 1.12324 4.12856 0.670288 4.677 0.670288C5.22544 0.670288 5.67063 1.12324 5.67063 1.68124V4.0577H8.00633C8.55477 4.0577 8.99999 4.51065 8.99999 5.06865C8.99999 5.62666 8.55477 6.07963 8.00633 6.07963H5.67063V8.45606C5.67063 9.01407 5.22544 9.46704 4.677 9.46704C4.12856 9.46704 3.68337 9.01407 3.68337 8.45606V6.07963H1.34767C0.799232 6.07963 0.354004 5.62666 0.354004 5.06865C0.354004 4.51065 0.799232 4.0577 1.34767 4.0577H3.68337V1.68124Z" fill="#7775B7"/>
</svg>
