<svg width="14" height="14" viewBox="0 0 14 14" fill="none" xmlns="http://www.w3.org/2000/svg">
<path fill-rule="evenodd" clip-rule="evenodd" d="M5.71551 2.11865C5.71551 1.26971 6.39809 0.580566 7.23897 0.580566C8.07985 0.580566 8.76242 1.26971 8.76242 2.11865V5.73414H12.3436C13.1845 5.73414 13.8671 6.42327 13.8671 7.27222C13.8671 8.12116 13.1845 8.8103 12.3436 8.8103H8.76242V12.4258C8.76242 13.2747 8.07985 13.9639 7.23897 13.9639C6.39809 13.9639 5.71551 13.2747 5.71551 12.4258V8.8103H2.13436C1.29348 8.8103 0.61084 8.12116 0.61084 7.27222C0.61084 6.42327 1.29348 5.73414 2.13436 5.73414H5.71551V2.11865Z" fill="white"/>
</svg>
