<svg width="14" height="15" viewBox="0 0 14 15" fill="none" xmlns="http://www.w3.org/2000/svg">
<path fill-rule="evenodd" clip-rule="evenodd" d="M5.48449 2.38816C5.48449 1.53922 6.16707 0.850098 7.00795 0.850098C7.84883 0.850098 8.53146 1.53922 8.53146 2.38816V6.00364H12.1126C12.9535 6.00364 13.6361 6.69282 13.6361 7.54176C13.6361 8.3907 12.9535 9.07982 12.1126 9.07982H8.53146V12.6953C8.53146 13.5442 7.84883 14.2334 7.00795 14.2334C6.16707 14.2334 5.48449 13.5442 5.48449 12.6953V9.07982H1.90334C1.06246 9.07982 0.379883 8.3907 0.379883 7.54176C0.379883 6.69282 1.06246 6.00364 1.90334 6.00364H5.48449V2.38816Z" fill="white"/>
</svg>
