<svg width="48" height="81" viewBox="0 0 48 81" fill="none" xmlns="http://www.w3.org/2000/svg">
<path fill-rule="evenodd" clip-rule="evenodd" d="M37.5788 74.3597C35.8432 77.7143 28.5199 79.4671 22.7839 79.9791C21.4096 80.1039 20.1256 80.1564 19.0351 80.1367C18.306 80.1235 17.6479 80.0316 17.0608 79.861C10.9053 79.303 6.39525 77.4451 3.69822 75.9943C2.04 75.6989 1.16895 75.0162 0.775365 74.1234C0.136595 72.666 0.749543 70.6506 1.26572 68.8519C2.18839 65.6155 6.00812 59.5103 6.66625 43.873C7.32437 28.2358 6.60817 1.37945 21.5192 0.86084C21.5192 0.86084 21.3321 1.22846 21.0289 1.90463L21.6418 1.98998C21.6418 1.98998 19.8029 6.58529 22.3967 8.40372C24.9905 10.2222 28.236 8.32495 29.7394 6.64438C29.9587 6.40148 30.191 6.30957 30.4427 6.33583C31.5008 5.08853 32.6622 3.83466 33.9269 2.57423C36.9917 3.42764 41.6631 6.51965 41.6631 6.51965C44.031 8.00984 46.9216 10.5635 47.1023 13.4454C47.3604 17.5353 41.8244 31.1703 38.3983 39.7176C32.6751 54.0287 40.521 68.7075 37.5917 74.3663L37.5788 74.3597Z" fill="white"/>
</svg>
