<svg width="149" height="77" viewBox="0 0 149 77" fill="none" xmlns="http://www.w3.org/2000/svg">
<path fill-rule="evenodd" clip-rule="evenodd" d="M9.27119 0.94043H140.092C142.506 0.94043 144.712 1.93918 146.305 3.54718C147.898 5.16516 148.887 7.38239 148.887 9.81935V67.8469C148.887 70.2939 147.898 72.5111 146.305 74.1191C144.712 75.7271 142.516 76.7259 140.092 76.7259H9.27119C6.85737 76.7259 4.6513 75.7271 3.05857 74.1191C1.46585 72.5111 0.476562 70.2839 0.476562 67.8469V9.81935C0.476562 7.3724 1.46585 5.15517 3.05857 3.54718C4.6513 1.93918 6.85737 0.94043 9.27119 0.94043ZM140.092 2.57839H9.27119C7.30254 2.57839 5.50205 3.39737 4.2061 4.70574C2.91016 6.0141 2.09898 7.83183 2.09898 9.81935V67.8469C2.09898 69.8345 2.91016 71.6522 4.2061 72.9606C5.50205 74.2689 7.30254 75.0879 9.27119 75.0879H140.092C142.061 75.0879 143.861 74.2689 145.157 72.9606C146.463 71.6522 147.265 69.8345 147.265 67.8469V9.81935C147.265 7.82184 146.453 6.0141 145.157 4.70574C143.861 3.38738 142.061 2.57839 140.092 2.57839Z" fill="white"/>
</svg>
