<svg width="10" height="10" viewBox="0 0 10 10" fill="none" xmlns="http://www.w3.org/2000/svg">
<path fill-rule="evenodd" clip-rule="evenodd" d="M4.20093 1.82128C4.20093 1.26328 4.64613 0.810303 5.19457 0.810303C5.74301 0.810303 6.18821 1.26328 6.18821 1.82128V4.19771H8.52391C9.07235 4.19771 9.51756 4.65069 9.51756 5.20869C9.51756 5.76669 9.07235 6.21967 8.52391 6.21967H6.18821V8.5961C6.18821 9.1541 5.74301 9.60707 5.19457 9.60707C4.64613 9.60707 4.20093 9.1541 4.20093 8.5961V6.21967H1.86522C1.31679 6.21967 0.871582 5.76669 0.871582 5.20869C0.871582 4.65069 1.31679 4.19771 1.86522 4.19771H4.20093V1.82128Z" fill="#7775B7"/>
</svg>
