<svg width="9" height="10" viewBox="0 0 9 10" fill="none" xmlns="http://www.w3.org/2000/svg">
<path fill-rule="evenodd" clip-rule="evenodd" d="M3.48826 1.3623C3.48826 0.804302 3.93345 0.351349 4.48189 0.351349C5.03033 0.351349 5.47556 0.804302 5.47556 1.3623V3.73874H7.81126C8.3597 3.73874 8.80489 4.19173 8.80489 4.74973C8.80489 5.30774 8.3597 5.76069 7.81126 5.76069H5.47556V8.13713C5.47556 8.69513 5.03033 9.14812 4.48189 9.14812C3.93345 9.14812 3.48826 8.69513 3.48826 8.13713V5.76069H1.15256C0.604125 5.76069 0.158936 5.30774 0.158936 4.74973C0.158936 4.19173 0.604125 3.73874 1.15256 3.73874H3.48826V1.3623Z" fill="white"/>
</svg>
