<svg width="32" height="34" viewBox="0 0 32 34" fill="none" xmlns="http://www.w3.org/2000/svg">
<path fill-rule="evenodd" clip-rule="evenodd" d="M28.8052 10.6694C28.7019 10.63 28.5987 10.5906 28.4954 10.5644C28.4696 9.47461 27.8051 8.45707 26.7469 8.03693C25.9533 7.72839 25.1016 7.82029 24.4176 8.22074C23.8756 7.06535 22.9078 6.10689 21.6367 5.61454C20.7012 5.24691 19.7333 5.18127 18.8171 5.36509C18.4751 4.10465 17.5718 3.02146 16.2814 2.51598C15.5265 2.22057 14.7393 2.16149 13.9973 2.30591C13.3779 1.83325 12.6875 1.43936 11.9326 1.14395C7.56443 -0.562883 2.6672 1.66257 0.98962 6.10033C-0.49439 10.0392 1.05415 14.4047 4.46738 16.5317C4.60933 18.1072 5.60296 19.5449 7.15794 20.1555C8.42258 20.6478 9.77109 20.4837 10.8486 19.8206C11.2745 20.2999 11.81 20.6938 12.4488 20.9432C13.6618 21.4159 14.9587 21.2715 16.0039 20.6544C16.6427 21.6456 17.5847 22.4465 18.759 22.9061C21.0367 23.7923 23.5272 23.1227 25.0822 21.4093H25.1983C23.4821 23.3656 25.1145 26.5429 25.1145 26.5429C23.7853 30.6525 26.2501 33.3506 26.2501 33.3506C26.5146 29.9172 28.2696 30.4621 28.2696 30.4621C34.5347 20.9498 30.2956 17.0438 30.2956 17.0438C30.3214 16.9847 30.3472 16.9256 30.3666 16.8665C30.6376 16.5383 30.8634 16.1575 31.0247 15.7308C31.7861 13.7089 30.7924 11.4375 28.8052 10.6628V10.6694Z" fill="#120F21"/>
</svg>
