<svg width="876" height="499" viewBox="0 0 876 499" fill="none" xmlns="http://www.w3.org/2000/svg">
<path fill-rule="evenodd" clip-rule="evenodd" d="M141.677 355.649H71.8445C32.8672 355.649 0.973145 387.849 0.973145 427.2C0.973145 466.55 32.8672 498.75 71.8445 498.75H760.545C823.66 498.75 875.3 446.615 875.3 382.885C875.3 319.164 823.66 267.019 760.545 267.019C733.854 267.019 712.021 244.977 712.021 218.031C712.021 191.084 733.854 169.042 760.545 169.042H818.942C846.691 169.042 869.394 146.12 869.394 118.105C869.394 90.0903 846.691 67.1689 818.942 67.1689H745.093C734.29 67.1689 725.456 58.25 725.456 47.3436C725.456 36.4372 734.29 27.5183 745.093 27.5183H758.111C765.57 27.5183 771.664 21.356 771.664 13.8354C771.664 6.30479 765.57 0.152466 758.111 0.152466H672.698C654.703 0.152466 652.705 21.6057 607.258 21.6057H476.328C466.603 21.6057 458.639 29.6457 458.639 39.4634C458.639 49.2812 466.593 57.3211 476.328 57.3211H493.313C507.41 57.3211 518.935 68.9666 518.935 83.1989C518.935 97.4311 507.401 109.077 493.313 109.077H467.751C398.719 109.077 388.975 127.294 376.876 163.519C364.787 199.743 301.998 202.66 301.998 202.66H132.081C110.842 202.66 93.4601 220.208 93.4601 241.651C93.4601 263.094 110.842 280.642 132.081 280.642H141.677C162.106 280.642 178.824 297.521 178.824 318.146C178.824 338.77 162.106 355.649 141.677 355.649ZM796.149 27.5283C788.66 27.5283 782.596 21.406 782.596 13.8454C782.596 6.28482 788.67 0.162455 796.149 0.162455C803.628 0.162455 809.702 6.2948 809.702 13.8454C809.702 21.396 803.638 27.5283 796.149 27.5283Z" fill="#7775B7"/>
</svg>
