<svg width="32" height="27" viewBox="0 0 32 27" fill="none" xmlns="http://www.w3.org/2000/svg">
<path fill-rule="evenodd" clip-rule="evenodd" d="M0.596253 0.452667C-0.126395 4.00419 1.43504 7.64763 4.46113 9.53171C4.60308 11.1072 5.59673 12.5449 7.15171 13.1554C8.41635 13.6478 9.76484 13.4837 10.8424 12.8206C11.2682 13.2999 11.8038 13.6938 12.4425 13.9432C13.6555 14.4159 14.9524 14.2715 15.9977 13.6544C16.6365 14.6456 17.5785 15.4465 18.7528 15.9061C21.0304 16.7923 23.521 16.1227 25.076 14.4093H25.1921C23.4758 16.3656 25.1082 19.5429 25.1082 19.5429C23.7791 23.6525 26.2438 26.3506 26.2438 26.3506C26.5084 22.9172 28.2634 23.4621 28.2634 23.4621C34.5285 13.9498 30.2894 10.0438 30.2894 10.0438C30.3152 9.98467 30.341 9.92559 30.3603 9.86651C30.6313 9.53827 30.8572 9.15752 31.0185 8.73081C31.3798 7.77236 31.3475 6.76139 30.9991 5.87515C30.9991 5.88172 30.9991 5.88827 30.9991 5.88827C31.1152 10.0109 21.2498 16.0308 17.3914 10.2932C17.3914 10.2932 13.1652 12.6894 11.4553 10.3064C8.4615 13.1489 5.18378 9.62361 5.86127 7.40473C5.86127 7.40473 0.0349104 7.01085 0.596253 0.446106V0.452667Z" fill="#0B0C14"/>
</svg>
