<svg width="20" height="66" viewBox="0 0 20 66" fill="none" xmlns="http://www.w3.org/2000/svg">
<path fill-rule="evenodd" clip-rule="evenodd" d="M9.12138 0.633499C9.12138 0.633499 8.19226 -1.44753 11.6571 2.65543C14.1348 5.58987 18.0641 26.4001 19.4256 35.5908C20.787 44.8011 19.7934 44.591 13.8573 52.2915C9.51499 57.924 4.11445 64.0817 1.99813 65.0336C1.99813 65.0336 1.58519 65.1977 1.4755 64.6135C1.36581 64.0292 1.4626 61.9613 0.778667 61.3574C0.0947317 60.7534 0.591548 60.2611 1.37872 59.7556C2.17234 59.2501 10.3602 45.4576 12.0507 41.906C13.7412 38.3611 3.11436 17.0913 2.56592 14.3932C2.01749 11.6951 3.02404 3.5745 9.12138 0.633499Z" fill="#0B0C14"/>
</svg>
