<svg width="98" height="51" viewBox="0 0 98 51" fill="none" xmlns="http://www.w3.org/2000/svg">
<path fill-rule="evenodd" clip-rule="evenodd" d="M6.28169 0.611084H91.6058C93.1802 0.611084 94.619 1.26756 95.6578 2.32448C96.6966 3.38797 97.3419 4.84534 97.3419 6.44714V44.5883C97.3419 46.1967 96.6966 47.654 95.6578 48.711C94.619 49.7679 93.1866 50.4244 91.6058 50.4244H6.28169C4.70735 50.4244 3.2685 49.7679 2.22969 48.711C1.19089 47.654 0.545654 46.1901 0.545654 44.5883V6.44714C0.545654 4.83878 1.19089 3.38141 2.22969 2.32448C3.2685 1.26756 4.70735 0.611084 6.28169 0.611084ZM91.6058 1.6877H6.28169C4.99769 1.6877 3.82337 2.22601 2.97813 3.08599C2.13289 3.94598 1.60383 5.14076 1.60383 6.44714V44.5883C1.60383 45.8947 2.13289 47.0895 2.97813 47.9494C3.82337 48.8094 4.99769 49.3477 6.28169 49.3477H91.6058C92.8898 49.3477 94.0641 48.8094 94.9094 47.9494C95.7611 47.0895 96.2837 45.8947 96.2837 44.5883V6.44714C96.2837 5.13419 95.7546 3.94598 94.9094 3.08599C94.0641 2.21945 92.8898 1.6877 91.6058 1.6877Z" fill="white"/>
</svg>
