<svg width="27" height="29" viewBox="0 0 27 29" fill="none" xmlns="http://www.w3.org/2000/svg">
<path fill-rule="evenodd" clip-rule="evenodd" d="M17.8659 10.5126C16.8206 9.44909 15.3689 8.78605 13.7687 8.78605C12.1686 8.78605 10.7233 9.44252 9.67154 10.5126C8.62628 11.5761 7.9746 13.0531 7.9746 14.6812C7.9746 16.3092 8.61983 17.7798 9.67154 18.8498C10.7233 19.9133 12.1686 20.5763 13.7687 20.5763C15.3689 20.5763 16.8141 19.9199 17.8659 18.8498C18.9111 17.7863 19.5628 16.3092 19.5628 14.6812C19.5628 13.0531 18.9176 11.5826 17.8659 10.5126ZM16.6141 4.66996C17.4142 4.90629 18.1756 5.24109 18.8853 5.65467C19.608 6.08138 20.279 6.59342 20.879 7.18425C20.9952 7.29585 21.1694 7.31555 21.3049 7.23678L23.9955 5.65467H24.0084C24.1632 5.56276 24.3374 5.54307 24.4987 5.58902C24.6665 5.63497 24.8149 5.74658 24.9052 5.90413L24.9181 5.92383L26.8086 9.25871C26.899 9.41626 26.9183 9.60665 26.8732 9.77733C26.828 9.94801 26.7248 10.099 26.5635 10.1909L26.5441 10.204L23.8729 11.773C23.7309 11.8583 23.6664 12.0225 23.7051 12.1735C23.8019 12.5805 23.8793 12.994 23.9309 13.4208C23.9826 13.8343 24.0084 14.261 24.0084 14.6877C24.0084 15.1145 23.9826 15.5412 23.9309 15.9548C23.8793 16.3815 23.8019 16.795 23.7051 17.2021C23.6664 17.3727 23.7438 17.5369 23.8922 17.6156L26.5635 19.1846C26.7183 19.2765 26.828 19.4275 26.8732 19.5982C26.9183 19.7689 26.899 19.9527 26.8086 20.1102L24.9052 23.4648C24.8149 23.6224 24.6665 23.734 24.4987 23.7799C24.331 23.8259 24.1503 23.8062 23.9955 23.7143L23.9761 23.7011L21.3049 22.1322C21.1629 22.0534 20.9952 22.0797 20.879 22.1847C20.279 22.769 19.6144 23.2876 18.8853 23.7143C18.1756 24.1344 17.4078 24.4626 16.6012 24.699C16.4464 24.7449 16.3431 24.8894 16.3431 25.0469V28.2046C16.3431 28.3884 16.2657 28.5591 16.1496 28.6838C16.0334 28.8085 15.8592 28.8807 15.6786 28.8807H11.8717C11.6911 28.8807 11.5233 28.8019 11.4007 28.6838C11.2781 28.5591 11.2072 28.3884 11.2072 28.2046V25.0469C11.2072 24.8762 11.091 24.7318 10.9362 24.6924C10.1361 24.4561 9.37474 24.1213 8.66499 23.7077C7.94234 23.281 7.27131 22.7689 6.67126 22.1781C6.54867 22.06 6.368 22.0468 6.23251 22.1387L3.56129 23.7077C3.40644 23.7996 3.21932 23.8193 3.05802 23.7734C2.89026 23.7274 2.74185 23.6224 2.65152 23.4583L2.63862 23.4386L0.74812 20.1037C0.657789 19.9461 0.638433 19.7557 0.683599 19.5916C0.728764 19.4209 0.831997 19.27 0.993303 19.178L3.68388 17.6025C3.82583 17.5172 3.89035 17.353 3.85164 17.2021C3.75485 16.795 3.67743 16.3815 3.62581 15.9548C3.57419 15.5412 3.54838 15.1145 3.54838 14.6877C3.54838 14.261 3.57419 13.8343 3.62581 13.4208C3.67743 12.994 3.75485 12.5805 3.85164 12.1735C3.89035 12.0028 3.81292 11.8387 3.66452 11.7599L0.993303 10.1909C0.838449 10.099 0.728764 9.94801 0.683599 9.77733C0.638433 9.60665 0.657789 9.42283 0.74812 9.26528L0.761022 9.24559L2.65152 5.91069C2.74185 5.75313 2.89026 5.64154 3.05802 5.59559C3.22577 5.54964 3.40644 5.56931 3.56129 5.66122L6.25186 7.24333C6.39381 7.32867 6.57447 7.29585 6.68416 7.18425C7.27776 6.59998 7.9488 6.08794 8.66499 5.66779C9.37474 5.24765 10.1426 4.91941 10.9491 4.68308C11.1039 4.63713 11.2072 4.4927 11.2072 4.33515V1.17751C11.2072 0.993698 11.2846 0.823007 11.4007 0.698277C11.5233 0.573547 11.6911 0.501343 11.8717 0.501343H15.6786C15.8592 0.501343 16.027 0.580112 16.1496 0.698277C16.2722 0.823007 16.3431 0.993698 16.3431 1.17751V4.33515C16.3431 4.50583 16.4593 4.65026 16.6141 4.68965V4.66996Z" fill="#7775B7"/>
</svg>
