<svg width="61" height="66" viewBox="0 0 61 66" fill="none" xmlns="http://www.w3.org/2000/svg">
<path fill-rule="evenodd" clip-rule="evenodd" d="M39.791 23.6185C38.5328 22.3449 37.0359 21.3077 35.3583 20.6053C33.7453 19.9291 31.9838 19.5483 30.1449 19.5483C28.306 19.5483 26.5381 19.9225 24.9315 20.6053C23.2604 21.3077 21.7506 22.3449 20.4988 23.6185C19.2407 24.8986 18.2277 26.4282 17.5373 28.1284C16.8727 29.7631 16.5049 31.5553 16.5049 33.4328C16.5049 35.3103 16.8727 37.1025 17.5373 38.7371C18.2277 40.4373 19.2407 41.9735 20.4988 43.2471C21.7506 44.5206 23.2539 45.5513 24.9315 46.2603C26.5381 46.9364 28.306 47.3172 30.1514 47.3172C31.9967 47.3172 33.7582 46.943 35.3648 46.2668C37.0359 45.5644 38.5457 44.5272 39.7974 43.2536C41.0556 41.9801 42.0686 40.4439 42.759 38.7436C43.4236 37.1025 43.7914 35.3103 43.7914 33.4393C43.7914 31.5684 43.4236 29.7696 42.759 28.135C42.0686 26.4348 41.0556 24.9052 39.7974 23.625L39.791 23.6185ZM34.8808 21.7935C36.3907 22.4303 37.7521 23.369 38.9006 24.531C40.0426 25.6929 40.9653 27.0847 41.5911 28.6208C42.1977 30.1044 42.5267 31.7325 42.5267 33.4393C42.5267 35.1462 42.1912 36.7808 41.5911 38.2578C40.9653 39.794 40.0426 41.1792 38.9006 42.3477C37.7585 43.5096 36.3907 44.4484 34.8808 45.0852C33.4226 45.6957 31.8225 46.0371 30.1449 46.0371C28.4673 46.0371 26.8672 45.6957 25.409 45.0852C23.8992 44.4484 22.5313 43.5096 21.3893 42.3477C20.2472 41.1857 19.3245 39.8006 18.6987 38.2578C18.0986 36.7742 17.7631 35.1462 17.7631 33.4393C17.7631 31.7325 18.0986 30.1044 18.6987 28.6208C19.3245 27.0847 20.2472 25.6995 21.3893 24.531C22.5313 23.369 23.8992 22.4303 25.409 21.7935C26.8672 21.183 28.4673 20.8416 30.1449 20.8416C31.8225 20.8416 33.4226 21.183 34.8808 21.7935ZM36.3907 11.5787C37.2424 11.8282 38.0811 12.1367 38.907 12.4912C39.7394 12.8523 40.5459 13.2659 41.3202 13.7189C42.1073 14.1849 42.8687 14.697 43.5978 15.255C44.3269 15.813 45.0237 16.417 45.6754 17.0603C45.9077 17.2835 46.198 17.4214 46.4948 17.4542C46.7981 17.4936 47.1143 17.4279 47.3852 17.2704C49.3854 16.0953 51.4953 14.9268 53.4568 13.6992C53.5536 13.6466 53.6503 13.6204 53.7536 13.6072C53.8697 13.5941 53.9794 13.6072 54.0891 13.6335C54.1988 13.6663 54.3085 13.7188 54.3988 13.7845C54.4827 13.8501 54.5601 13.942 54.6182 14.0405C56.0764 16.2922 57.5475 19.1938 58.896 21.5768C58.9541 21.6819 58.9863 21.7869 58.9992 21.8985C59.0121 22.0101 58.9992 22.1348 58.9734 22.253C58.9412 22.3646 58.896 22.4697 58.825 22.5616C58.7605 22.6535 58.6766 22.7257 58.5734 22.7848C56.7732 23.9992 54.4504 25.2137 52.5406 26.3363C52.2631 26.5004 52.0566 26.7433 51.9405 27.0256C51.9018 27.124 51.8695 27.2225 51.8502 27.3275L51.7276 27.3669L51.8695 27.9381C51.9792 28.391 52.076 28.8375 52.1534 29.2904C52.2309 29.7237 52.3018 30.1832 52.3599 30.6625C52.418 31.1285 52.4567 31.5881 52.4825 32.041C52.5083 32.4874 52.5212 32.9535 52.5212 33.4393C52.5212 33.9251 52.5083 34.3912 52.4825 34.831C52.4567 35.284 52.4115 35.7501 52.3599 36.2162C52.3018 36.6889 52.2373 37.1484 52.1534 37.5882C52.076 38.0346 51.9792 38.4876 51.8695 38.9406C51.7857 39.2754 51.8308 39.6102 51.9599 39.899C52.0889 40.1879 52.3147 40.4308 52.6051 40.5818L57.9475 43.7197L58.5798 44.0939C58.6831 44.153 58.767 44.2318 58.8315 44.3171C58.9025 44.409 58.9541 44.514 58.9799 44.6257C59.0121 44.7438 59.0186 44.862 59.0057 44.9802C58.9928 45.0918 58.9541 45.1968 58.9025 45.3018L54.9472 52.2801L54.6246 52.8447C54.5666 52.9497 54.4891 53.0351 54.4053 53.1007C54.3149 53.1729 54.2117 53.2255 54.0956 53.2517C53.9794 53.2846 53.8633 53.2911 53.7536 53.278C53.6503 53.2648 53.5407 53.2255 53.4374 53.1729C51.5211 51.9453 49.3661 50.7834 47.3852 49.6214C47.1013 49.4573 46.7916 49.3982 46.5013 49.4376C46.198 49.477 45.9077 49.6083 45.6819 49.8315C45.0302 50.4748 44.3333 51.0788 43.6042 51.6368C42.8751 52.1948 42.1202 52.7068 41.3331 53.1729C40.5523 53.6325 39.7394 54.0461 38.9006 54.4071C38.0747 54.7616 37.223 55.0701 36.339 55.3262C36.0293 55.4181 35.7712 55.6019 35.5906 55.8514C35.4099 56.1008 35.3002 56.4094 35.3002 56.731V63.8275C35.3002 63.9457 35.2744 64.0573 35.2357 64.1623C35.1905 64.2674 35.126 64.3658 35.0421 64.4512C34.9647 64.5365 34.8679 64.6022 34.7583 64.6415C34.6615 64.6809 34.5453 64.7072 34.4292 64.7072H25.8735C25.7574 64.7072 25.6477 64.6809 25.5445 64.6415C25.4412 64.5956 25.3445 64.53 25.2606 64.4512C25.1832 64.3658 25.1122 64.2674 25.0735 64.1623C25.0348 64.0573 25.0089 63.9457 25.0089 63.8275V56.731C25.0089 56.3962 24.8928 56.0811 24.6992 55.8317C24.4992 55.5756 24.2218 55.3918 23.9056 55.3131C23.0539 55.0636 22.2151 54.7551 21.3893 54.4006C20.5569 54.0395 19.7504 53.6259 18.9761 53.1729C18.1889 52.7068 17.4276 52.1948 16.7049 51.6368C15.9758 51.0788 15.279 50.4748 14.6273 49.8315C14.3821 49.5952 14.0789 49.4639 13.7692 49.431C13.453 49.4048 13.124 49.477 12.853 49.6674L6.88466 53.1729C6.78788 53.232 6.67819 53.2648 6.5685 53.278C6.45881 53.2911 6.33622 53.278 6.22653 53.2517C6.11684 53.2189 6.00716 53.1664 5.91683 53.1007C5.83295 53.0351 5.75552 52.9432 5.69745 52.8447C4.27796 50.3304 2.83912 47.8227 1.41963 45.3084C1.36156 45.2099 1.3293 45.0983 1.30994 44.9867C1.29704 44.8751 1.30994 44.7569 1.33575 44.6388C1.36801 44.5272 1.41963 44.4156 1.48415 44.3237C1.54867 44.2318 1.63255 44.1596 1.72933 44.1005L7.76861 40.549C8.04606 40.3848 8.25253 40.1419 8.36867 39.8596C8.40093 39.7809 8.42674 39.7021 8.4461 39.6233L8.60095 39.5905L8.43964 38.9406C8.32996 38.4876 8.23317 38.0412 8.15575 37.5948C8.07832 37.1615 8.00734 36.702 7.94927 36.2228C7.8912 35.7567 7.85249 35.2971 7.82668 34.8376C7.80087 34.3912 7.78797 33.9251 7.78797 33.4459C7.78797 32.9667 7.80087 32.494 7.82668 32.0476C7.85249 31.5946 7.89766 31.1285 7.94927 30.669C8.00734 30.1898 8.07832 29.7302 8.15575 29.297C8.23962 28.8506 8.32996 28.3976 8.43964 27.9512C8.52352 27.6164 8.47836 27.2816 8.34931 26.9928C8.21382 26.7039 7.99444 26.461 7.70409 26.3166L1.72288 22.8045C1.6261 22.7454 1.54222 22.6732 1.47125 22.5813C1.40672 22.4893 1.35511 22.3843 1.32284 22.2661C1.29058 22.148 1.28413 22.0298 1.29704 21.9182C1.30994 21.8066 1.34865 21.695 1.40672 21.5965C2.86493 19.3842 4.32958 16.4366 5.68455 14.0602C5.74262 13.9552 5.82004 13.8698 5.90392 13.8042C5.99425 13.732 6.09749 13.6795 6.21363 13.6532C6.32977 13.6204 6.44591 13.6138 6.55559 13.6269C6.65883 13.6401 6.76852 13.6795 6.87175 13.7385L12.9175 17.2901C13.2014 17.4608 13.524 17.5133 13.8208 17.4739C14.124 17.4279 14.4144 17.2901 14.6402 17.0669C15.2984 16.4235 15.9887 15.8261 16.7114 15.2681C17.4276 14.7167 18.1889 14.2112 18.9761 13.7451C19.7568 13.2856 20.5698 12.872 21.4086 12.5109C22.2345 12.1564 23.0862 11.8479 23.9701 11.5919C24.2798 11.5 24.5379 11.3161 24.7186 11.0667C24.9057 10.8172 25.0089 10.5087 25.0089 10.187V3.09053C25.0089 2.97236 25.0348 2.86076 25.0735 2.75572C25.1186 2.65069 25.1832 2.55221 25.267 2.46687C25.3445 2.38153 25.4412 2.31588 25.5509 2.27649C25.6477 2.2371 25.7639 2.21086 25.88 2.21086H34.4356C34.5518 2.21086 34.6615 2.2371 34.7647 2.27649C34.8679 2.32244 34.9647 2.38809 35.0486 2.46687C35.2035 2.63099 35.3002 2.84763 35.3002 3.09053V10.187C35.3002 10.5284 35.4164 10.8369 35.6099 11.0864C35.81 11.3424 36.0874 11.5262 36.4036 11.605L36.3907 11.5787ZM39.3974 11.3096C40.2749 11.6903 41.1266 12.1236 41.9525 12.6094C42.7913 13.1018 43.5913 13.6466 44.3591 14.2309C45.127 14.8217 45.8561 15.4585 46.5529 16.1347C46.5787 16.1609 46.611 16.1741 46.6497 16.1806C46.6884 16.1806 46.7207 16.1806 46.7529 16.1609C48.7854 14.9662 50.8178 13.7779 52.8503 12.5766C53.089 12.4453 53.3535 12.3599 53.6116 12.3337C53.8826 12.3009 54.1536 12.3205 54.4117 12.3928C54.6763 12.465 54.9343 12.5897 55.1602 12.767C55.3731 12.9311 55.5667 13.1477 55.7086 13.3972C57.1797 15.8261 58.5798 18.452 59.9864 20.9335C60.1284 21.1895 60.2187 21.4587 60.251 21.7344C60.2897 22.0232 60.2639 22.3055 60.1929 22.5813C60.1219 22.8504 59.9993 23.113 59.8251 23.3427C59.6574 23.5659 59.4509 23.7563 59.2057 23.9008C57.2636 25.1218 55.1537 26.2838 53.1664 27.4523C53.1342 27.472 53.1084 27.4982 53.0955 27.5311C53.0826 27.5639 53.0761 27.6033 53.089 27.6427L53.231 28.2138H53.2245C53.2826 28.4961 53.3406 28.7784 53.3923 29.0672C53.4826 29.5596 53.5536 30.0454 53.6116 30.518C53.6697 30.9907 53.7084 31.4765 53.7407 31.9754C53.7729 32.4743 53.7858 32.9667 53.7858 33.4459C53.7858 33.9251 53.7729 34.4175 53.7407 34.9164C53.7084 35.4153 53.6697 35.9011 53.6116 36.3738C53.5536 36.8464 53.4826 37.3322 53.3923 37.8246C53.3019 38.3104 53.2051 38.7896 53.089 39.2491C53.0826 39.2885 53.089 39.3279 53.1019 39.3607C53.1213 39.4001 53.1471 39.4264 53.1793 39.4461C55.3989 40.654 57.6507 42.072 59.8445 43.3587L59.7671 43.4571L59.8316 43.5425C60.0058 43.7722 60.1284 44.0283 60.1994 44.304C60.2703 44.5731 60.2897 44.862 60.2574 45.1508C60.2252 45.4265 60.1348 45.7023 59.9929 45.9517L55.3924 54.0526L55.3086 54.0001C55.2634 54.0461 55.2182 54.0854 55.1666 54.1183C54.9408 54.2955 54.6892 54.4202 54.4182 54.4925C54.1536 54.5647 53.8697 54.5844 53.5923 54.545C53.3277 54.5122 53.0696 54.4268 52.8245 54.289C50.8114 53.2058 48.7402 51.8928 46.7529 50.7243C46.7207 50.7112 46.6884 50.7046 46.6497 50.7046C46.611 50.7046 46.5787 50.7243 46.5529 50.7505C45.8625 51.4267 45.127 52.0635 44.3591 52.6543C43.5978 53.2386 42.7913 53.7835 41.9589 54.2693C41.133 54.7551 40.2749 55.1949 39.3909 55.5756C38.5134 55.9564 37.6101 56.2846 36.681 56.5538C36.6423 56.5669 36.6165 56.5866 36.5907 56.6129C36.5649 56.6457 36.552 56.6851 36.5584 56.7179V63.8144C36.5584 64.1032 36.5004 64.3855 36.3971 64.6415C36.2874 64.9107 36.1326 65.147 35.9326 65.344C35.739 65.5409 35.5003 65.705 35.2422 65.8166C34.9905 65.9217 34.7131 65.9808 34.4292 65.9808H25.8735C25.5896 65.9808 25.3122 65.9217 25.0606 65.8166C24.8025 65.705 24.5702 65.5475 24.3702 65.344C24.1766 65.147 24.0153 64.9107 23.9056 64.6415C23.8024 64.3855 23.7443 64.1032 23.7443 63.8144V56.7179C23.7443 56.6785 23.7314 56.6391 23.712 56.6129C23.6927 56.5866 23.654 56.5604 23.6153 56.5538L23.5895 56.5407C22.6603 56.2649 21.7635 55.9433 20.8989 55.5691C20.0214 55.1883 19.1632 54.7551 18.3438 54.2693C17.505 53.7769 16.7049 53.2386 15.9436 52.6543C15.1758 52.0635 14.4467 51.4267 13.7498 50.7505C13.724 50.7243 13.6853 50.7046 13.653 50.7046C13.6143 50.7046 13.5756 50.7046 13.5433 50.7309L7.50407 54.2824C7.25889 54.4268 6.98789 54.5187 6.7169 54.5515C6.43946 54.5909 6.15556 54.5647 5.89102 54.4925C5.62648 54.4202 5.36839 54.2955 5.14256 54.1183C4.92964 53.9541 4.74897 53.7506 4.60702 53.5012C3.01978 50.9015 1.52286 48.059 0.0065918 45.3937L0.0904707 45.3412C0.0775662 45.2756 0.0646618 45.2033 0.0517573 45.1377C0.0194962 44.8554 0.0388529 44.5666 0.109827 44.2974C0.180802 44.0283 0.303394 43.7657 0.477604 43.5359C0.645362 43.3127 0.851833 43.1223 1.09702 42.9779L7.1363 39.4264C7.1363 39.4264 7.18791 39.3804 7.20727 39.3476C7.22017 39.3148 7.22663 39.2754 7.22017 39.236L7.06532 38.5861H7.07177C7.02015 38.3301 6.96854 38.074 6.91692 37.8114C6.82659 37.3191 6.75561 36.8333 6.69754 36.3606C6.63947 35.888 6.60076 35.4022 6.5685 34.9033C6.53624 34.4043 6.52333 33.912 6.52333 33.4328C6.52333 32.9535 6.53624 32.4612 6.5685 31.9623C6.60076 31.4633 6.63947 30.9776 6.69754 30.4983C6.75561 30.0322 6.82659 29.5464 6.91692 29.0475C7.00725 28.5617 7.10403 28.0825 7.22017 27.623C7.22663 27.5836 7.22017 27.5442 7.20727 27.5114C7.19437 27.4785 7.1621 27.4457 7.12984 27.4326L1.09702 23.8876C0.84538 23.7432 0.638909 23.5528 0.477604 23.3296C0.303394 23.0999 0.180802 22.8438 0.109827 22.5747C0.0388529 22.3055 0.0194962 22.0167 0.0517573 21.7344C0.0840184 21.4652 0.167897 21.2027 0.309846 20.9532C1.74869 18.242 3.39401 15.511 4.91673 12.8326L5.00061 12.8851C5.04578 12.8392 5.09739 12.7998 5.14256 12.7604C5.36839 12.5831 5.62002 12.4584 5.89102 12.3862C6.15556 12.314 6.43946 12.2943 6.7169 12.3271C6.98789 12.3599 7.25889 12.4519 7.50407 12.5897L7.94927 12.8523L13.5498 16.1478C13.5821 16.1675 13.6208 16.1741 13.6595 16.1675C13.6982 16.1675 13.7305 16.1478 13.7563 16.1215L13.7692 16.1084C14.4531 15.4388 15.1887 14.802 15.9565 14.2112C16.7243 13.6269 17.5179 13.0886 18.3438 12.5963C19.1697 12.1105 20.0278 11.6772 20.9118 11.2899C21.7893 10.9091 22.6926 10.5809 23.6153 10.3117C23.654 10.2986 23.6798 10.2789 23.7056 10.2527C23.7314 10.2198 23.7443 10.187 23.7379 10.1476V3.05114C23.7379 2.76229 23.7959 2.48 23.8992 2.22398C24.0089 1.95482 24.1637 1.71849 24.3637 1.52155C24.5573 1.3246 24.796 1.16048 25.0541 1.04888C25.3057 0.943848 25.5832 0.884766 25.8671 0.884766H34.4227C34.7066 0.884766 34.9841 0.943848 35.2357 1.04888C35.4938 1.16048 35.7261 1.31804 35.9261 1.52155C36.3132 1.91543 36.552 2.45375 36.552 3.05114V10.1476C36.552 10.187 36.5649 10.2264 36.5842 10.2527C36.6036 10.2789 36.6423 10.3052 36.681 10.3117L36.7068 10.3249C37.6359 10.594 38.5328 10.9223 39.3974 11.2965V11.3096Z" fill="#7775B7"/>
</svg>
