<svg width="41" height="44" viewBox="0 0 41 44" fill="none" xmlns="http://www.w3.org/2000/svg">
<path fill-rule="evenodd" clip-rule="evenodd" d="M27.0521 15.4777C25.4495 13.8597 23.2236 12.851 20.7702 12.851C18.3168 12.851 16.1009 13.8497 14.4884 15.4777C12.8857 17.0957 11.8866 19.3429 11.8866 21.8198C11.8866 24.2967 12.8758 26.5339 14.4884 28.1619C16.1009 29.7799 18.3168 30.7886 20.7702 30.7886C23.2236 30.7886 25.4396 29.7899 27.0521 28.1619C28.6547 26.5439 29.6539 24.2967 29.6539 21.8198C29.6539 19.3429 28.6646 17.1057 27.0521 15.4777ZM25.1329 6.5888C26.3596 6.94835 27.5269 7.45771 28.6151 8.08693C29.7231 8.73612 30.752 9.51513 31.672 10.414C31.8501 10.5838 32.1172 10.6138 32.3249 10.4939L36.4502 8.08693H36.4699C36.7074 7.9471 36.9745 7.91713 37.2218 7.98705C37.479 8.05696 37.7065 8.22676 37.845 8.46646L37.8648 8.49642L40.7634 13.5701C40.9019 13.8098 40.9316 14.0994 40.8623 14.3591C40.7931 14.6188 40.6348 14.8485 40.3875 14.9883L40.3578 15.0083L36.2622 17.3953C36.0446 17.5251 35.9456 17.7748 36.005 18.0045C36.1534 18.6238 36.2721 19.253 36.3512 19.9022C36.4304 20.5314 36.4699 21.1806 36.4699 21.8298C36.4699 22.4789 36.4304 23.1282 36.3512 23.7574C36.2721 24.4066 36.1534 25.0358 36.005 25.655C35.9456 25.9147 36.0644 26.1644 36.2919 26.2842L40.3875 28.6712C40.6249 28.8111 40.7931 29.0408 40.8623 29.3004C40.9316 29.5601 40.9019 29.8398 40.7634 30.0795L37.845 35.1831C37.7065 35.4228 37.479 35.5926 37.2218 35.6625C36.9646 35.7324 36.6876 35.7024 36.4502 35.5626L36.4205 35.5427L32.3249 33.1557C32.1073 33.0358 31.8501 33.0757 31.672 33.2355C30.752 34.1244 29.733 34.9134 28.6151 35.5626C27.5269 36.2018 26.3497 36.7012 25.1131 37.0608C24.8757 37.1307 24.7174 37.3504 24.7174 37.5901V42.3941C24.7174 42.6738 24.5987 42.9334 24.4206 43.1232C24.2426 43.313 23.9755 43.4228 23.6985 43.4228H17.8618C17.5848 43.4228 17.3276 43.303 17.1396 43.1232C16.9516 42.9334 16.8428 42.6738 16.8428 42.3941V37.5901C16.8428 37.3304 16.6648 37.1107 16.4273 37.0508C15.2006 36.6912 14.0333 36.1819 12.9451 35.5527C11.8371 34.9035 10.8083 34.1244 9.88825 33.2255C9.70029 33.0458 9.42329 33.0258 9.21554 33.1656L5.11996 35.5527C4.88254 35.6925 4.59565 35.7225 4.34833 35.6525C4.09112 35.5826 3.86359 35.4228 3.72509 35.1731L3.70531 35.1432L0.806743 30.0695C0.668245 29.8298 0.638569 29.5401 0.707818 29.2905C0.777067 29.0308 0.935346 28.8011 1.18266 28.6613L5.30792 26.2642C5.52556 26.1344 5.62449 25.8847 5.56513 25.655C5.41674 25.0358 5.29803 24.4066 5.21889 23.7574C5.13975 23.1282 5.10017 22.4789 5.10017 21.8298C5.10017 21.1806 5.13975 20.5314 5.21889 19.9022C5.29803 19.253 5.41674 18.6238 5.56513 18.0045C5.62449 17.7449 5.50578 17.4952 5.27824 17.3753L1.18266 14.9883C0.945238 14.8485 0.777067 14.6188 0.707818 14.3591C0.638569 14.0994 0.668245 13.8198 0.806743 13.5801L0.826525 13.5501L3.72509 8.47643C3.86359 8.23672 4.09112 8.06696 4.34833 7.99704C4.60554 7.92713 4.88254 7.95707 5.11996 8.09689L9.24522 10.5039C9.46286 10.6337 9.73985 10.5838 9.90803 10.414C10.8182 9.52512 11.847 8.74609 12.9451 8.10689C14.0333 7.46769 15.2105 6.96831 16.4471 6.60876C16.6845 6.53885 16.8428 6.31912 16.8428 6.07942V1.27542C16.8428 0.995768 16.9615 0.736081 17.1396 0.546318C17.3276 0.356555 17.5848 0.246704 17.8618 0.246704H23.6985C23.9755 0.246704 24.2327 0.366542 24.4206 0.546318C24.6086 0.736081 24.7174 0.995768 24.7174 1.27542V6.07942C24.7174 6.3391 24.8955 6.55883 25.1329 6.61876V6.5888Z" fill="#7775B7"/>
</svg>
