<svg width="10" height="10" viewBox="0 0 10 10" fill="none" xmlns="http://www.w3.org/2000/svg">
<path fill-rule="evenodd" clip-rule="evenodd" d="M3.80908 1.98135C3.80908 1.42335 4.25429 0.970398 4.80273 0.970398C5.35117 0.970398 5.79638 1.42335 5.79638 1.98135V4.35781H8.13208C8.68052 4.35781 9.12571 4.81076 9.12571 5.36876C9.12571 5.92677 8.68052 6.37974 8.13208 6.37974H5.79638V8.75617C5.79638 9.31418 5.35117 9.76715 4.80273 9.76715C4.25429 9.76715 3.80908 9.31418 3.80908 8.75617V6.37974H1.47338C0.924945 6.37974 0.479736 5.92677 0.479736 5.36876C0.479736 4.81076 0.924945 4.35781 1.47338 4.35781H3.80908V1.98135Z" fill="#C0CDE9"/>
</svg>
