<svg width="10" height="18" viewBox="0 0 10 18" fill="none" xmlns="http://www.w3.org/2000/svg">
<path fill-rule="evenodd" clip-rule="evenodd" d="M1.92773 16.5165C1.92773 16.5165 1.83095 15.7353 0.946998 14.1663C0.0694957 12.6039 0.405006 11.6389 0.114656 10.234C-0.175694 8.83572 0.398559 6.07196 0.463081 4.68023C0.527603 3.28851 4.36666 1.47007 5.21191 0.583827C6.05715 -0.295848 6.78626 1.11558 6.10877 2.08716C6.10877 2.08716 6.41848 3.00623 5.3216 3.83338C4.22472 4.66054 5.15384 5.92097 5.83777 6.2689C6.51525 6.62339 6.77335 6.03913 7.69601 5.40892C8.61868 4.7787 8.8187 4.37169 9.27036 4.73931C9.71556 5.10694 10.1027 5.98005 8.85097 7.01728C7.59278 8.06107 7.34759 10.0633 6.76689 11.5338C6.18619 13.0109 6.01199 14.2319 6.07006 15.2757C6.37977 16.1685 2.46326 18.3546 1.92773 16.5099V16.5165Z" fill="#F4AC83"/>
</svg>
