<svg width="15" height="27" viewBox="0 0 15 27" fill="none" xmlns="http://www.w3.org/2000/svg">
<path fill-rule="evenodd" clip-rule="evenodd" d="M3.06098 24.9943C3.06098 24.9943 2.9126 23.8058 1.5573 21.4188C0.211895 19.0417 0.726307 17.5736 0.281135 15.4363C-0.164037 13.3089 0.716423 9.10415 0.81535 6.98679C0.914277 4.86943 6.80042 2.10288 8.09637 0.75456C9.39231 -0.58377 10.5102 1.56356 9.47147 3.04171C9.47147 3.04171 9.94632 4.43997 8.26456 5.6984C6.5828 6.95683 8.00733 8.87443 9.05596 9.40377C10.0947 9.9431 10.4904 9.05421 11.9051 8.09541C13.3197 7.1366 13.6264 6.51737 14.3189 7.07667C15.0015 7.63597 15.5951 8.96432 13.6759 10.5423C11.7468 12.1304 11.3709 15.1766 10.4805 17.4138C9.59017 19.661 9.32308 21.5187 9.41212 23.1067C9.88696 24.465 3.88208 27.7908 3.06098 24.9843V24.9943Z" fill="#F4AC83"/>
</svg>
