<svg width="14" height="14" viewBox="0 0 14 14" fill="none" xmlns="http://www.w3.org/2000/svg">
<path fill-rule="evenodd" clip-rule="evenodd" d="M5.65542 1.55664C5.65542 0.707703 6.33802 0.0185547 7.1789 0.0185547C8.01978 0.0185547 8.70237 0.707703 8.70237 1.55664V5.17213H12.2835C13.1244 5.17213 13.807 5.86125 13.807 6.71019C13.807 7.55913 13.1244 8.24827 12.2835 8.24827H8.70237V11.8638C8.70237 12.7127 8.01978 13.4018 7.1789 13.4018C6.33802 13.4018 5.65542 12.7127 5.65542 11.8638V8.24827H2.07426C1.23338 8.24827 0.550781 7.55913 0.550781 6.71019C0.550781 5.86125 1.23338 5.17213 2.07426 5.17213H5.65542V1.55664Z" fill="#7775B7"/>
</svg>
