<svg width="10" height="10" viewBox="0 0 10 10" fill="none" xmlns="http://www.w3.org/2000/svg">
<path fill-rule="evenodd" clip-rule="evenodd" d="M4.17969 1.2924C4.17969 0.734401 4.6249 0.281433 5.17334 0.281433C5.72178 0.281433 6.16697 0.734401 6.16697 1.2924V3.66884H8.50269C9.05112 3.66884 9.49631 4.12181 9.49631 4.67981C9.49631 5.23781 9.05112 5.69078 8.50269 5.69078H6.16697V8.06722C6.16697 8.62522 5.72178 9.07819 5.17334 9.07819C4.6249 9.07819 4.17969 8.62522 4.17969 8.06722V5.69078H1.84399C1.29555 5.69078 0.850342 5.23781 0.850342 4.67981C0.850342 4.12181 1.29555 3.66884 1.84399 3.66884H4.17969V1.2924Z" fill="#7775B7"/>
</svg>
