<svg width="10" height="9" viewBox="0 0 10 9" fill="none" xmlns="http://www.w3.org/2000/svg">
<path fill-rule="evenodd" clip-rule="evenodd" d="M4.29736 1.09697C4.29736 0.538971 4.74257 0.0859985 5.29101 0.0859985C5.83944 0.0859985 6.28465 0.538971 6.28465 1.09697V3.47341H8.62035C9.16879 3.47341 9.61399 3.92636 9.61399 4.48436C9.61399 5.04237 9.16879 5.49534 8.62035 5.49534H6.28465V7.87177C6.28465 8.42978 5.83944 8.88275 5.29101 8.88275C4.74257 8.88275 4.29736 8.42978 4.29736 7.87177V5.49534H1.96166C1.41322 5.49534 0.968018 5.04237 0.968018 4.48436C0.968018 3.92636 1.41322 3.47341 1.96166 3.47341H4.29736V1.09697Z" fill="#7775B7"/>
</svg>
