<svg width="31" height="118" viewBox="0 0 31 118" fill="none" xmlns="http://www.w3.org/2000/svg">
<path d="M28.8966 0.0847168C27.9802 0.0847168 27.2403 0.882547 27.2403 1.87068V78.8135H4.00516V1.87068C4.00516 0.882547 3.26527 0.0847168 2.34889 0.0847168C1.43252 0.0847168 0.692627 0.882547 0.692627 1.87068V115.916C0.692627 116.904 1.43252 117.702 2.34889 117.702C3.26527 117.702 4.00516 116.904 4.00516 115.916V82.3928H27.2403V115.916C27.2403 116.904 27.9802 117.702 28.8966 117.702C29.813 117.702 30.5529 116.904 30.5529 115.916V1.87068C30.5529 0.882547 29.813 0.0847168 28.8966 0.0847168Z" fill="#F8F4EE"/>
</svg>
