<svg width="14" height="15" viewBox="0 0 14 15" fill="none" xmlns="http://www.w3.org/2000/svg">
<path fill-rule="evenodd" clip-rule="evenodd" d="M5.59536 2.49878C5.59536 1.64984 6.27797 0.960693 7.11885 0.960693C7.95973 0.960693 8.64233 1.64984 8.64233 2.49878V6.11427H12.2235C13.0644 6.11427 13.747 6.80338 13.747 7.65232C13.747 8.50127 13.0644 9.19041 12.2235 9.19041H8.64233V12.8059C8.64233 13.6548 7.95973 14.344 7.11885 14.344C6.27797 14.344 5.59536 13.6548 5.59536 12.8059V9.19041H2.01421C1.17333 9.19041 0.490723 8.50127 0.490723 7.65232C0.490723 6.80338 1.17333 6.11427 2.01421 6.11427H5.59536V2.49878Z" fill="#C0CDE9"/>
</svg>
