<svg width="10" height="9" viewBox="0 0 10 9" fill="none" xmlns="http://www.w3.org/2000/svg">
<path fill-rule="evenodd" clip-rule="evenodd" d="M4.13281 1.20211C4.13281 0.644104 4.57802 0.191132 5.12646 0.191132C5.6749 0.191132 6.1201 0.644104 6.1201 1.20211V3.57854H8.4558C9.00424 3.57854 9.44945 4.03151 9.44945 4.58952C9.44945 5.14752 9.00424 5.60049 8.4558 5.60049H6.1201V7.97693C6.1201 8.53493 5.6749 8.9879 5.12646 8.9879C4.57802 8.9879 4.13281 8.53493 4.13281 7.97693V5.60049H1.79711C1.24868 5.60049 0.803467 5.14752 0.803467 4.58952C0.803467 4.03151 1.24868 3.57854 1.79711 3.57854H4.13281V1.20211Z" fill="#C0CDE9"/>
</svg>
