<svg width="49" height="41" viewBox="0 0 49 41" fill="none" xmlns="http://www.w3.org/2000/svg">
<path fill-rule="evenodd" clip-rule="evenodd" d="M0.948286 0.683444C-0.159697 6.0867 2.23433 11.6298 6.87401 14.4962C7.09165 16.8932 8.61514 19.0805 10.9993 20.0093C12.9383 20.7584 15.0058 20.5087 16.6579 19.5C17.3108 20.2291 18.1319 20.8283 19.1113 21.2078C20.9711 21.9269 22.9596 21.7072 24.5622 20.7684C25.5416 22.2765 26.9859 23.495 28.7863 24.1941C32.2785 25.5424 36.0971 24.5237 38.4812 21.917H38.6593C36.0278 24.8932 38.5307 29.7272 38.5307 29.7272C36.4928 35.9794 40.2718 40.0843 40.2718 40.0843C40.6774 34.8608 43.3682 35.6898 43.3682 35.6898C52.974 21.2178 46.4745 15.2752 46.4745 15.2752C46.5141 15.1853 46.5536 15.0955 46.5833 15.0056C46.9988 14.5062 47.3451 13.9269 47.5924 13.2777C48.1464 11.8195 48.0969 10.2815 47.5627 8.93316C47.5627 8.94315 47.5627 8.95312 47.5627 8.95312C47.7408 15.2253 32.6148 24.3839 26.699 15.6548C26.699 15.6548 20.2193 19.3002 17.5977 15.6747C13.0075 19.9994 7.982 14.636 9.02074 11.2602C9.02074 11.2602 0.0876204 10.661 0.948286 0.673462V0.683444Z" fill="#0B0C14"/>
</svg>
