<svg width="10" height="10" viewBox="0 0 10 10" fill="none" xmlns="http://www.w3.org/2000/svg">
<path fill-rule="evenodd" clip-rule="evenodd" d="M3.79199 1.27471C3.79199 0.716706 4.2372 0.263733 4.78564 0.263733C5.33408 0.263733 5.77929 0.716706 5.77929 1.27471V3.65114H8.11499C8.66343 3.65114 9.10862 4.10412 9.10862 4.66212C9.10862 5.22012 8.66343 5.6731 8.11499 5.6731H5.77929V8.04953C5.77929 8.60753 5.33408 9.0605 4.78564 9.0605C4.2372 9.0605 3.79199 8.60753 3.79199 8.04953V5.6731H1.45629C0.907855 5.6731 0.462646 5.22012 0.462646 4.66212C0.462646 4.10412 0.907855 3.65114 1.45629 3.65114H3.79199V1.27471Z" fill="white"/>
</svg>
