<svg width="10" height="10" viewBox="0 0 10 10" fill="none" xmlns="http://www.w3.org/2000/svg">
<path fill-rule="evenodd" clip-rule="evenodd" d="M4.31924 1.97887C4.31924 1.42086 4.76442 0.967896 5.31286 0.967896C5.8613 0.967896 6.30649 1.42086 6.30649 1.97887V4.3553H8.64219C9.19063 4.3553 9.63586 4.80827 9.63586 5.36627C9.63586 5.92428 9.19063 6.37724 8.64219 6.37724H6.30649V8.75368C6.30649 9.31168 5.8613 9.76465 5.31286 9.76465C4.76442 9.76465 4.31924 9.31168 4.31924 8.75368V6.37724H1.98354C1.4351 6.37724 0.989868 5.92428 0.989868 5.36627C0.989868 4.80827 1.4351 4.3553 1.98354 4.3553H4.31924V1.97887Z" fill="white"/>
</svg>
