<svg width="14" height="15" viewBox="0 0 14 15" fill="none" xmlns="http://www.w3.org/2000/svg">
<path fill-rule="evenodd" clip-rule="evenodd" d="M5.79165 2.28076C5.79165 1.43182 6.47426 0.742676 7.31514 0.742676C8.15602 0.742676 8.83861 1.43182 8.83861 2.28076V5.89625H12.4198C13.2606 5.89625 13.9432 6.5854 13.9432 7.43434C13.9432 8.28328 13.2606 8.97243 12.4198 8.97243H8.83861V12.5879C8.83861 13.4369 8.15602 14.126 7.31514 14.126C6.47426 14.126 5.79165 13.4369 5.79165 12.5879V8.97243H2.2105C1.36962 8.97243 0.687012 8.28328 0.687012 7.43434C0.687012 6.5854 1.36962 5.89625 2.2105 5.89625H5.79165V2.28076Z" fill="#C0CDE9"/>
</svg>
