<svg width="9" height="10" viewBox="0 0 9 10" fill="none" xmlns="http://www.w3.org/2000/svg">
<path fill-rule="evenodd" clip-rule="evenodd" d="M3.63306 1.71482C3.63306 1.15682 4.07827 0.703857 4.62671 0.703857C5.17515 0.703857 5.62035 1.15682 5.62035 1.71482V4.09126H7.95605C8.50449 4.09126 8.9497 4.54423 8.9497 5.10223C8.9497 5.66024 8.50449 6.1132 7.95605 6.1132H5.62035V8.48964C5.62035 9.04765 5.17515 9.50061 4.62671 9.50061C4.07827 9.50061 3.63306 9.04765 3.63306 8.48964V6.1132H1.29736C0.74892 6.1132 0.303711 5.66024 0.303711 5.10223C0.303711 4.54423 0.74892 4.09126 1.29736 4.09126H3.63306V1.71482Z" fill="#7775B7"/>
</svg>
