<svg width="9" height="9" viewBox="0 0 9 9" fill="none" xmlns="http://www.w3.org/2000/svg">
<path fill-rule="evenodd" clip-rule="evenodd" d="M3.62305 1.06072C3.62305 0.502717 4.06826 0.0497437 4.6167 0.0497437C5.16514 0.0497437 5.61034 0.502717 5.61034 1.06072V3.43715H7.94604C8.49448 3.43715 8.93969 3.89011 8.93969 4.44811C8.93969 5.00611 8.49448 5.45909 7.94604 5.45909H5.61034V7.83552C5.61034 8.39352 5.16514 8.8465 4.6167 8.8465C4.06826 8.8465 3.62305 8.39352 3.62305 7.83552V5.45909H1.28735C0.73891 5.45909 0.293701 5.00611 0.293701 4.44811C0.293701 3.89011 0.73891 3.43715 1.28735 3.43715H3.62305V1.06072Z" fill="#C0CDE9"/>
</svg>
