<svg width="14" height="15" viewBox="0 0 14 15" fill="none" xmlns="http://www.w3.org/2000/svg">
<path fill-rule="evenodd" clip-rule="evenodd" d="M5.36636 2.44995C5.36636 1.60101 6.04896 0.911865 6.88984 0.911865C7.73072 0.911865 8.41331 1.60101 8.41331 2.44995V6.06544H11.9945C12.8353 6.06544 13.5179 6.75459 13.5179 7.60353C13.5179 8.45247 12.8353 9.14162 11.9945 9.14162H8.41331V12.7571C8.41331 13.606 7.73072 14.2952 6.88984 14.2952C6.04896 14.2952 5.36636 13.606 5.36636 12.7571V9.14162H1.7852C0.944316 9.14162 0.261719 8.45247 0.261719 7.60353C0.261719 6.75459 0.944316 6.06544 1.7852 6.06544H5.36636V2.44995Z" fill="#7775B7"/>
</svg>
