<svg width="31" height="100" viewBox="0 0 31 100" fill="none" xmlns="http://www.w3.org/2000/svg">
<path fill-rule="evenodd" clip-rule="evenodd" d="M13.6835 1.46389C13.6835 1.46389 12.2589 -1.70218 17.5713 4.54004C21.3701 9.00446 27.3948 40.665 29.4821 54.6475C31.5695 68.66 30.0461 68.3404 20.9448 80.0558C14.287 88.6251 6.00676 97.9935 2.76195 99.4416C2.76195 99.4416 2.12882 99.6913 1.96064 98.8024C1.79247 97.9135 1.94087 94.7675 0.892245 93.8486C-0.156382 92.9298 0.605349 92.1807 1.81226 91.4117C3.02906 90.6426 15.5829 69.6588 18.1748 64.2555C20.7667 58.8623 4.47339 26.5026 3.63251 22.3978C2.79163 18.2929 4.3349 5.9383 13.6835 1.46389Z" fill="#0B0C14"/>
</svg>
