<svg width="10" height="10" viewBox="0 0 10 10" fill="none" xmlns="http://www.w3.org/2000/svg">
<path fill-rule="evenodd" clip-rule="evenodd" d="M4.27867 1.38524C4.27867 0.827235 4.72386 0.374268 5.2723 0.374268C5.82074 0.374268 6.26596 0.827235 6.26596 1.38524V3.76168H8.60166C9.1501 3.76168 9.59529 4.21464 9.59529 4.77265C9.59529 5.33065 9.1501 5.78362 8.60166 5.78362H6.26596V8.16005C6.26596 8.71806 5.82074 9.17102 5.2723 9.17102C4.72386 9.17102 4.27867 8.71806 4.27867 8.16005V5.78362H1.94297C1.39453 5.78362 0.949341 5.33065 0.949341 4.77265C0.949341 4.21464 1.39453 3.76168 1.94297 3.76168H4.27867V1.38524Z" fill="#7775B7"/>
</svg>
