<svg width="14" height="15" viewBox="0 0 14 15" fill="none" xmlns="http://www.w3.org/2000/svg">
<path fill-rule="evenodd" clip-rule="evenodd" d="M5.81069 2.51026C5.81069 1.66132 6.49329 0.972168 7.33417 0.972168C8.17505 0.972168 8.85765 1.66132 8.85765 2.51026V6.12574H12.4388C13.2797 6.12574 13.9623 6.81489 13.9623 7.66383C13.9623 8.51277 13.2797 9.20189 12.4388 9.20189H8.85765V12.8174C8.85765 13.6663 8.17505 14.3555 7.33417 14.3555C6.49329 14.3555 5.81069 13.6663 5.81069 12.8174V9.20189H2.22953C1.38865 9.20189 0.706055 8.51277 0.706055 7.66383C0.706055 6.81489 1.38865 6.12574 2.22953 6.12574H5.81069V2.51026Z" fill="#7775B7"/>
</svg>
