<svg width="53" height="170" viewBox="0 0 53 170" fill="none" xmlns="http://www.w3.org/2000/svg">
<path fill-rule="evenodd" clip-rule="evenodd" d="M2.60678 8.6576L0.301758 11.4941C0.301758 11.4941 1.81536 36.3031 5.26792 68.3031C8.73036 100.303 15.3585 158.381 15.2101 164.054C15.0716 169.727 23.7574 166.441 24.8456 164.843C25.9239 163.245 22.1251 50.2557 22.9956 39.9286C23.2924 36.3231 28.6938 37.6814 30.801 44.8524C34.7284 58.2457 36.4794 86.5204 37.6962 102.62C39.5659 127.349 42.9888 165.132 42.7415 167.14C42.4942 169.137 50.3786 171.145 51.9615 167.939C51.9615 167.939 52.2879 167.469 52.1791 165.752C52.0703 164.044 53.7619 8.60764 51.7438 4.38291C49.7257 0.168168 7.36518 -1.86928 2.61668 8.63761L2.60678 8.6576Z" fill="#0B0C14"/>
</svg>
