<svg width="42" height="44" viewBox="0 0 42 44" fill="none" xmlns="http://www.w3.org/2000/svg">
<path fill-rule="evenodd" clip-rule="evenodd" d="M27.2485 15.9552C25.6459 14.3272 23.42 13.3284 20.9666 13.3284C18.5133 13.3284 16.2973 14.3272 14.6848 15.9552C13.0822 17.5731 12.083 19.8203 12.083 22.2972C12.083 24.7741 13.0723 27.0114 14.6848 28.6393C16.2874 30.2573 18.5133 31.266 20.9666 31.266C23.42 31.266 25.636 30.2673 27.2485 28.6393C28.8511 27.0213 29.8503 24.7741 29.8503 22.2972C29.8503 19.8203 28.8511 17.5831 27.2485 15.9552ZM25.3293 7.06625C26.556 7.4258 27.7234 7.93516 28.8116 8.56438C29.9195 9.21357 30.9484 9.99259 31.8684 10.8915C32.0465 11.0613 32.3136 11.0912 32.5213 10.9714L36.6466 8.56438H36.6664C36.9038 8.42455 37.1709 8.39459 37.4182 8.4645C37.6754 8.53441 37.9029 8.69421 38.0414 8.9439L38.0612 8.97387L40.9598 14.0475C41.0983 14.2872 41.128 14.5769 41.0587 14.8365C40.9895 15.0962 40.8213 15.3259 40.5839 15.4658L40.5542 15.4857L36.4586 17.8728C36.241 18.0026 36.1421 18.2523 36.2014 18.482C36.3498 19.1012 36.4685 19.7304 36.5477 20.3796C36.6268 21.0088 36.6664 21.658 36.6664 22.3072C36.6664 22.9564 36.6268 23.6056 36.5477 24.2348C36.4685 24.884 36.3498 25.5132 36.2014 26.1325C36.1421 26.3921 36.2608 26.6418 36.4883 26.7617L40.574 29.1487C40.8114 29.2885 40.9796 29.5182 41.0488 29.7779C41.1181 30.0376 41.0884 30.3172 40.9499 30.5569L38.0316 35.6606C37.8931 35.9003 37.6655 36.0701 37.4083 36.14C37.1511 36.2099 36.8741 36.1799 36.6367 36.0401L36.607 36.0201L32.5114 33.6331C32.2938 33.5132 32.0366 33.5532 31.8585 33.713C30.9385 34.6119 29.9195 35.3909 28.8017 36.0401C27.7135 36.6793 26.5362 37.1787 25.2997 37.5482C25.0622 37.6181 24.9039 37.8378 24.9039 38.0775V42.8815C24.9039 43.1612 24.7852 43.4209 24.6072 43.6106C24.4192 43.8004 24.162 43.9103 23.885 43.9103H18.0483C17.7713 43.9103 17.5141 43.7904 17.3261 43.6106C17.1381 43.4209 17.0293 43.1612 17.0293 42.8815V38.0775C17.0293 37.8179 16.8513 37.5981 16.6138 37.5382C15.3871 37.1787 14.2198 36.6693 13.1316 36.0401C12.0236 35.3909 10.9948 34.6119 10.0748 33.713C9.88681 33.5332 9.60982 33.5132 9.40207 33.6531L5.30648 36.0401C5.06905 36.1799 4.78217 36.2099 4.53485 36.14C4.27764 36.0701 4.0501 35.9102 3.9116 35.6606L3.89183 35.6306L0.993272 30.5469C0.854774 30.3072 0.82509 30.0176 0.894339 29.7679C0.963588 29.5082 1.12188 29.2785 1.3692 29.1387L5.49444 26.7317C5.71208 26.6019 5.81102 26.3522 5.75166 26.1225C5.60327 25.5032 5.48455 24.874 5.40541 24.2248C5.32627 23.5956 5.2867 22.9464 5.2867 22.2972C5.2867 21.648 5.32627 20.9989 5.40541 20.3696C5.48455 19.7205 5.60327 19.0912 5.75166 18.472C5.81102 18.2123 5.6923 17.9626 5.46476 17.8428L1.3692 15.4558C1.13177 15.316 0.963588 15.0862 0.894339 14.8266C0.82509 14.5669 0.854774 14.2872 0.993272 14.0475L1.01305 14.0176L3.9116 8.9439C4.0501 8.7042 4.27764 8.53441 4.53485 8.4645C4.79206 8.39459 5.06905 8.42455 5.30648 8.56438L9.43175 10.9714C9.64939 11.1012 9.92637 11.0513 10.0945 10.8815C11.0047 9.99259 12.0335 9.21357 13.1316 8.57436C14.2198 7.93516 15.397 7.43578 16.6336 7.07623C16.8711 7.00632 17.0293 6.78659 17.0293 6.54689V1.74289C17.0293 1.46324 17.148 1.20356 17.3261 1.0138C17.5141 0.824036 17.7713 0.714172 18.0483 0.714172H23.885C24.162 0.714172 24.4192 0.834024 24.6072 1.0138C24.7951 1.20356 24.9039 1.46324 24.9039 1.74289V6.54689C24.9039 6.80657 25.082 7.0263 25.3194 7.08622L25.3293 7.06625Z" fill="#7775B7"/>
</svg>
