<svg width="14" height="14" viewBox="0 0 14 14" fill="none" xmlns="http://www.w3.org/2000/svg">
<path fill-rule="evenodd" clip-rule="evenodd" d="M5.63833 1.78882C5.63833 0.939881 6.32092 0.250732 7.1618 0.250732C8.00268 0.250732 8.68528 0.939881 8.68528 1.78882V5.4043H12.2664C13.1073 5.4043 13.7899 6.09345 13.7899 6.94239C13.7899 7.79133 13.1073 8.48048 12.2664 8.48048H8.68528V12.096C8.68528 12.9449 8.00268 13.6341 7.1618 13.6341C6.32092 13.6341 5.63833 12.9449 5.63833 12.096V8.48048H2.05717C1.21629 8.48048 0.533691 7.79133 0.533691 6.94239C0.533691 6.09345 1.21629 5.4043 2.05717 5.4043H5.63833V1.78882Z" fill="white"/>
</svg>
