<svg width="27" height="29" viewBox="0 0 27 29" fill="none" xmlns="http://www.w3.org/2000/svg">
<path fill-rule="evenodd" clip-rule="evenodd" d="M17.3567 10.6331C16.3114 9.56304 14.8597 8.90656 13.2595 8.90656C11.6594 8.90656 10.2141 9.56304 9.16237 10.6331C8.11711 11.6966 7.46543 13.1736 7.46543 14.8017C7.46543 16.4298 8.11066 17.9003 9.16237 18.9703C10.2076 20.0338 11.6594 20.6968 13.2595 20.6968C14.8597 20.6968 16.305 20.0404 17.3567 18.9703C18.4019 17.9068 19.0536 16.4298 19.0536 14.8017C19.0536 13.1736 18.4019 11.7031 17.3567 10.6331ZM16.105 4.79047C16.905 5.0268 17.6664 5.3616 18.3761 5.77518C19.0988 6.20189 19.7698 6.71394 20.3699 7.30477C20.486 7.41637 20.6602 7.43606 20.7957 7.35729L23.4863 5.77518H23.4992C23.6541 5.68328 23.8283 5.66358 23.9896 5.70954C24.1573 5.75549 24.3057 5.86052 24.396 6.02464L24.409 6.04434L26.2995 9.37923C26.3898 9.53678 26.4092 9.72716 26.364 9.89784C26.3188 10.0685 26.2091 10.2195 26.0543 10.3114L26.0349 10.3245L23.3637 11.8935C23.2218 11.9789 23.1572 12.143 23.1959 12.294C23.2927 12.701 23.3702 13.1146 23.4218 13.5413C23.4734 13.9549 23.4992 14.3816 23.4992 14.8083C23.4992 15.235 23.4734 15.6617 23.4218 16.0753C23.3702 16.502 23.2927 16.9156 23.1959 17.3226C23.1572 17.4932 23.2347 17.6574 23.3831 17.7361L26.0478 19.3051C26.2027 19.397 26.3124 19.548 26.3575 19.7187C26.4027 19.8894 26.3833 20.0732 26.293 20.2307L24.3896 23.5853C24.2993 23.7429 24.1509 23.8545 23.9831 23.9004C23.8154 23.9464 23.6347 23.9267 23.4798 23.8348L23.4605 23.8217L20.7893 22.2527C20.6473 22.1739 20.4796 22.2002 20.3634 22.3052C19.7634 22.896 19.0988 23.4081 18.3697 23.8348C17.6599 24.2549 16.8921 24.5832 16.0856 24.8261C15.9308 24.872 15.8275 25.0164 15.8275 25.174V28.3316C15.8275 28.5155 15.7501 28.6861 15.6339 28.8109C15.5114 28.9356 15.3436 29.0078 15.1629 29.0078H11.3561C11.1755 29.0078 11.0077 28.929 10.8851 28.8109C10.7625 28.6861 10.6915 28.5155 10.6915 28.3316V25.174C10.6915 25.0033 10.5754 24.8589 10.4205 24.8195C9.62046 24.5832 8.85911 24.2484 8.14936 23.8348C7.42672 23.4081 6.75569 22.896 6.15563 22.3052C6.03304 22.187 5.85238 22.1739 5.71689 22.2658L3.04566 23.8348C2.8908 23.9267 2.70369 23.9464 2.54238 23.9004C2.37463 23.8545 2.22622 23.7494 2.13589 23.5853L2.12299 23.5656L0.232499 20.2242C0.142168 20.0666 0.122807 19.8763 0.167972 19.7121C0.213138 19.5414 0.316381 19.3905 0.477686 19.2986L3.16825 17.7164C3.3102 17.6311 3.37473 17.467 3.33601 17.316C3.23923 16.909 3.1618 16.4954 3.11018 16.0687C3.05857 15.6551 3.03276 15.2284 3.03276 14.8017C3.03276 14.375 3.05857 13.9483 3.11018 13.5347C3.1618 13.108 3.23923 12.6944 3.33601 12.2874C3.37473 12.1167 3.2973 11.9526 3.14889 11.8738L0.477686 10.3049C0.322833 10.2129 0.213138 10.062 0.167972 9.89128C0.122807 9.72059 0.142168 9.53678 0.232499 9.37923L0.245396 9.35953L2.13589 6.02464C2.22622 5.86709 2.37463 5.75549 2.54238 5.70954C2.71014 5.66358 2.8908 5.68328 3.04566 5.77518L5.73624 7.35729C5.87819 7.44263 6.05884 7.4098 6.16853 7.2982C6.76213 6.71394 7.43317 6.20189 8.14936 5.78175C8.85911 5.3616 9.62693 5.03337 10.4335 4.79704C10.5883 4.75108 10.6915 4.60666 10.6915 4.44911V1.29146C10.6915 1.10765 10.769 0.936969 10.8851 0.812238C11.0077 0.687508 11.1755 0.615295 11.3561 0.615295H15.1629C15.3436 0.615295 15.5114 0.694073 15.6339 0.812238C15.7565 0.936969 15.8275 1.10765 15.8275 1.29146V4.44911C15.8275 4.61979 15.9437 4.76421 16.0985 4.8036L16.105 4.79047Z" fill="#7775B7"/>
</svg>
