<svg width="49" height="51" viewBox="0 0 49 51" fill="none" xmlns="http://www.w3.org/2000/svg">
<path fill-rule="evenodd" clip-rule="evenodd" d="M44.1988 15.5773C44.0406 15.5174 43.8822 15.4575 43.7239 15.4175C43.6844 13.7596 42.6655 12.2115 41.0431 11.5723C39.8263 11.1029 38.5204 11.2427 37.4718 11.852C36.6408 10.0942 35.1569 8.63597 33.208 7.8869C31.7736 7.3276 30.2897 7.22774 28.8849 7.50739C28.3606 5.58978 26.9756 3.94183 24.9971 3.17279C23.8396 2.72335 22.6327 2.63347 21.4951 2.85319C20.5454 2.13409 19.4868 1.53483 18.3294 1.08539C11.632 -1.51137 4.12346 1.87441 1.55136 8.62599C-0.723965 14.6185 1.6503 21.2602 6.88354 24.4962C7.10118 26.8932 8.62464 29.0805 11.0088 30.0093C12.9478 30.7584 15.0153 30.5087 16.6674 29.4999C17.3203 30.229 18.1414 30.8283 19.1208 31.2078C20.9806 31.9269 22.9691 31.7072 24.5717 30.7684C25.5511 32.2765 26.9954 33.495 28.7959 34.1941C32.288 35.5424 36.1066 34.5237 38.4907 31.9169H38.6688C36.0373 34.8932 38.5402 39.7272 38.5402 39.7272C36.5023 45.9794 40.2813 50.0842 40.2813 50.0842C40.6869 44.8608 43.3777 45.6897 43.3777 45.6897C52.9835 31.2178 46.4841 25.2752 46.4841 25.2752C46.5236 25.1853 46.5632 25.0954 46.5929 25.0055C47.0083 24.5062 47.3546 23.9269 47.6019 23.2777C48.7693 20.2015 47.2458 16.7459 44.1988 15.5673V15.5773Z" fill="#120F21"/>
</svg>
