<svg width="29" height="119" viewBox="0 0 29 119" fill="none" xmlns="http://www.w3.org/2000/svg">
<path d="M26.593 0.788208C25.6766 0.788208 24.9367 1.58604 24.9367 2.57417V77.1308H3.47317V2.57417C3.47317 1.58604 2.73328 0.788208 1.81691 0.788208C0.900534 0.788208 0.160645 1.58604 0.160645 2.57417V116.62C0.160645 117.608 0.900534 118.406 1.81691 118.406C2.73328 118.406 3.47317 117.608 3.47317 116.62V80.7101H24.9367V116.62C24.9367 117.608 25.6766 118.406 26.593 118.406C27.5094 118.406 28.2493 117.608 28.2493 116.62V2.57417C28.2493 1.58604 27.5094 0.788208 26.593 0.788208Z" fill="#F8F4EE"/>
</svg>
