<svg width="15" height="14" viewBox="0 0 15 14" fill="none" xmlns="http://www.w3.org/2000/svg">
<path fill-rule="evenodd" clip-rule="evenodd" d="M6.04702 1.95019C6.04702 1.10125 6.72963 0.412109 7.57051 0.412109C8.41139 0.412109 9.09396 1.10125 9.09396 1.95019V5.56568H12.6751C13.516 5.56568 14.1986 6.25482 14.1986 7.10376C14.1986 7.9527 13.516 8.64184 12.6751 8.64184H9.09396V12.2573C9.09396 13.1063 8.41139 13.7954 7.57051 13.7954C6.72963 13.7954 6.04702 13.1063 6.04702 12.2573V8.64184H2.46587C1.62499 8.64184 0.942383 7.9527 0.942383 7.10376C0.942383 6.25482 1.62499 5.56568 2.46587 5.56568H6.04702V1.95019Z" fill="#7775B7"/>
</svg>
