<svg width="9" height="9" viewBox="0 0 9 9" fill="none" xmlns="http://www.w3.org/2000/svg">
<path fill-rule="evenodd" clip-rule="evenodd" d="M3.63843 1.15993C3.63843 0.601929 4.08363 0.148956 4.63207 0.148956C5.18051 0.148956 5.62571 0.601929 5.62571 1.15993V3.53637H7.96141C8.50985 3.53637 8.95506 3.98934 8.95506 4.54734C8.95506 5.10535 8.50985 5.55832 7.96141 5.55832H5.62571V7.93475C5.62571 8.49276 5.18051 8.94573 4.63207 8.94573C4.08363 8.94573 3.63843 8.49276 3.63843 7.93475V5.55832H1.30272C0.754286 5.55832 0.309082 5.10535 0.309082 4.54734C0.309082 3.98934 0.754286 3.53637 1.30272 3.53637H3.63843V1.15993Z" fill="white"/>
</svg>
