<svg width="15" height="14" viewBox="0 0 15 14" fill="none" xmlns="http://www.w3.org/2000/svg">
<path fill-rule="evenodd" clip-rule="evenodd" d="M6.04797 1.67169C6.04797 0.822746 6.73055 0.133606 7.57143 0.133606C8.41231 0.133606 9.09494 0.822746 9.09494 1.67169V5.28718H12.6761C13.517 5.28718 14.1996 5.97632 14.1996 6.82526C14.1996 7.6742 13.517 8.36334 12.6761 8.36334H9.09494V11.9788C9.09494 12.8278 8.41231 13.5169 7.57143 13.5169C6.73055 13.5169 6.04797 12.8278 6.04797 11.9788V8.36334H2.46681C1.62593 8.36334 0.943359 7.6742 0.943359 6.82526C0.943359 5.97632 1.62593 5.28718 2.46681 5.28718H6.04797V1.67169Z" fill="#7775B7"/>
</svg>
