<svg width="14" height="14" viewBox="0 0 14 14" fill="none" xmlns="http://www.w3.org/2000/svg">
<path fill-rule="evenodd" clip-rule="evenodd" d="M5.78677 1.58643C5.78677 0.737488 6.46937 0.0483398 7.31026 0.0483398C8.15113 0.0483398 8.83374 0.737488 8.83374 1.58643V5.20191H12.4149C13.2558 5.20191 13.9384 5.89106 13.9384 6.74C13.9384 7.58894 13.2558 8.27809 12.4149 8.27809H8.83374V11.8936C8.83374 12.7425 8.15113 13.4317 7.31026 13.4317C6.46937 13.4317 5.78677 12.7425 5.78677 11.8936V8.27809H2.20561C1.36473 8.27809 0.682129 7.58894 0.682129 6.74C0.682129 5.89106 1.36473 5.20191 2.20561 5.20191H5.78677V1.58643Z" fill="white"/>
</svg>
