<svg width="14" height="14" viewBox="0 0 14 14" fill="none" xmlns="http://www.w3.org/2000/svg">
<path fill-rule="evenodd" clip-rule="evenodd" d="M5.29339 2.00256C5.29339 1.15362 5.97597 0.464478 6.81685 0.464478C7.65773 0.464478 8.3403 1.15362 8.3403 2.00256V5.61805H11.9215C12.7623 5.61805 13.445 6.30719 13.445 7.15613C13.445 8.00507 12.7623 8.69421 11.9215 8.69421H8.3403V12.3097C8.3403 13.1586 7.65773 13.8478 6.81685 13.8478C5.97597 13.8478 5.29339 13.1586 5.29339 12.3097V8.69421H1.71224C0.871356 8.69421 0.188721 8.00507 0.188721 7.15613C0.188721 6.30719 0.871356 5.61805 1.71224 5.61805H5.29339V2.00256Z" fill="white"/>
</svg>
