<svg width="10" height="10" viewBox="0 0 10 10" fill="none" xmlns="http://www.w3.org/2000/svg">
<path fill-rule="evenodd" clip-rule="evenodd" d="M4.00879 1.2528C4.00879 0.694794 4.45399 0.241821 5.00243 0.241821C5.55087 0.241821 5.99607 0.694794 5.99607 1.2528V3.62923H8.33178C8.88021 3.62923 9.32542 4.0822 9.32542 4.64021C9.32542 5.19821 8.88021 5.65116 8.33178 5.65116H5.99607V8.0276C5.99607 8.5856 5.55087 9.03857 5.00243 9.03857C4.45399 9.03857 4.00879 8.5856 4.00879 8.0276V5.65116H1.67309C1.12465 5.65116 0.679443 5.19821 0.679443 4.64021C0.679443 4.0822 1.12465 3.62923 1.67309 3.62923H4.00879V1.2528Z" fill="#7775B7"/>
</svg>
