<svg width="14" height="14" viewBox="0 0 14 14" fill="none" xmlns="http://www.w3.org/2000/svg">
<path fill-rule="evenodd" clip-rule="evenodd" d="M5.48208 2.05442C5.48208 1.20548 6.16469 0.516357 7.00557 0.516357C7.84645 0.516357 8.52905 1.20548 8.52905 2.05442V5.66993H12.1102C12.9511 5.66993 13.6337 6.35905 13.6337 7.20799C13.6337 8.05693 12.9511 8.74608 12.1102 8.74608H8.52905V12.3616C8.52905 13.2105 7.84645 13.8997 7.00557 13.8997C6.16469 13.8997 5.48208 13.2105 5.48208 12.3616V8.74608H1.90093C1.06005 8.74608 0.377441 8.05693 0.377441 7.20799C0.377441 6.35905 1.06005 5.66993 1.90093 5.66993H5.48208V2.05442Z" fill="#C0CDE9"/>
</svg>
