<svg width="15" height="15" viewBox="0 0 15 15" fill="none" xmlns="http://www.w3.org/2000/svg">
<path fill-rule="evenodd" clip-rule="evenodd" d="M6.08071 2.26134C6.08071 1.4124 6.76332 0.723267 7.6042 0.723267C8.44508 0.723267 9.12769 1.4124 9.12769 2.26134V5.87682H12.7088C13.5497 5.87682 14.2323 6.56597 14.2323 7.41491C14.2323 8.26385 13.5497 8.95299 12.7088 8.95299H9.12769V12.5685C9.12769 13.4174 8.44508 14.1066 7.6042 14.1066C6.76332 14.1066 6.08071 13.4174 6.08071 12.5685V8.95299H2.49956C1.65868 8.95299 0.976074 8.26385 0.976074 7.41491C0.976074 6.56597 1.65868 5.87682 2.49956 5.87682H6.08071V2.26134Z" fill="#7775B7"/>
</svg>
