<svg width="9" height="10" viewBox="0 0 9 10" fill="none" xmlns="http://www.w3.org/2000/svg">
<path fill-rule="evenodd" clip-rule="evenodd" d="M3.58816 1.252C3.58816 0.693994 4.03335 0.241028 4.58178 0.241028C5.13022 0.241028 5.57541 0.693994 5.57541 1.252V3.62844H7.91115C8.45959 3.62844 8.90478 4.0814 8.90478 4.63941C8.90478 5.19741 8.45959 5.65038 7.91115 5.65038H5.57541V8.02681C5.57541 8.58482 5.13022 9.03778 4.58178 9.03778C4.03335 9.03778 3.58816 8.58482 3.58816 8.02681V5.65038H1.25246C0.704017 5.65038 0.258789 5.19741 0.258789 4.63941C0.258789 4.0814 0.704017 3.62844 1.25246 3.62844H3.58816V1.252Z" fill="white"/>
</svg>
