<svg width="35" height="111" viewBox="0 0 35 111" fill="none" xmlns="http://www.w3.org/2000/svg">
<path fill-rule="evenodd" clip-rule="evenodd" d="M1.63375 5.14748L0.130371 7.01187C0.130371 7.01187 1.11757 23.3187 3.3694 44.3521C5.62768 65.3856 9.95065 103.56 9.85387 107.288C9.76354 111.017 15.4286 108.857 16.1383 107.807C16.8416 106.757 14.364 32.4896 14.9318 25.7017C15.1253 23.3318 18.6483 24.2246 20.0226 28.9381C22.5841 37.7414 23.7262 56.3262 24.5198 66.9086C25.7392 83.1629 27.9717 107.997 27.8104 109.317C27.6491 110.63 32.7915 111.949 33.8239 109.842C33.8239 109.842 34.0368 109.533 33.9658 108.404C33.8948 107.282 34.9982 5.11464 33.6819 2.33775C32.3657 -0.43257 4.73727 -1.77177 1.64021 5.13434L1.63375 5.14748Z" fill="#0B0C14"/>
</svg>
