<svg width="8" height="9" viewBox="0 0 8 9" fill="none" xmlns="http://www.w3.org/2000/svg">
<path fill-rule="evenodd" clip-rule="evenodd" d="M0.863345 3.41991C1.33819 3.06036 1.85261 2.70082 2.37693 2.35125C4.0389 1.752 7.14519 0.962979 7.88714 0.783203C7.88714 1.20268 7.75855 1.65213 7.47167 2.06162C7.47167 2.06162 7.94652 3.45987 6.26475 4.7183C6.18561 4.77822 6.10646 4.84814 6.03721 4.90806C5.95807 4.99795 5.87893 5.07785 5.81957 5.15775C5.42386 5.62716 4.63247 6.7258 4.29612 8.22393C3.80148 8.23392 3.33651 8.12405 3.0793 7.81444C2.62424 7.27511 1.23925 5.99671 0.289551 4.92804C0.428049 4.3987 0.616016 3.84938 0.883119 3.41991H0.863345Z" fill="#F4AC83"/>
</svg>
