<svg width="93" height="100" viewBox="0 0 93 100" fill="none" xmlns="http://www.w3.org/2000/svg">
<path fill-rule="evenodd" clip-rule="evenodd" d="M61.0082 34.6548C59.0791 32.7173 56.784 31.1392 54.2119 30.0706C51.7387 29.0418 49.038 28.4626 46.2186 28.4626C43.3992 28.4626 40.6886 29.0319 38.2253 30.0706C35.6631 31.1392 33.3482 32.7173 31.429 34.6548C29.4999 36.6024 27.9468 38.9295 26.8883 41.5163C25.8693 44.0032 25.3054 46.7298 25.3054 49.5862C25.3054 52.4427 25.8693 55.1692 26.8883 57.6561C27.9468 60.2429 29.4999 62.58 31.429 64.5176C33.3482 66.4551 35.6532 68.0232 38.2253 69.1018C40.6886 70.1306 43.3992 70.7099 46.2285 70.7099C49.0578 70.7099 51.7585 70.1406 54.2218 69.1118C56.784 68.0432 59.0989 66.4651 61.0181 64.5276C62.9472 62.59 64.5003 60.2529 65.5588 57.6661C66.5778 55.1692 67.1417 52.4426 67.1417 49.5962C67.1417 46.7497 66.5778 44.0132 65.5588 41.5263C64.5003 38.9395 62.9472 36.6124 61.0181 34.6648L61.0082 34.6548ZM53.4799 31.8783C55.7947 32.8471 57.8821 34.2753 59.643 36.0431C61.394 37.8109 62.8087 39.9283 63.7683 42.2653C64.6982 44.5225 65.2027 46.9994 65.2027 49.5962C65.2027 52.1929 64.6883 54.6798 63.7683 56.927C62.8087 59.2641 61.394 61.3715 59.643 63.1493C57.892 64.9171 55.7947 66.3453 53.4799 67.3141C51.2441 68.2429 48.7907 68.7623 46.2186 68.7623C43.6465 68.7623 41.1931 68.2429 38.9574 67.3141C36.6425 66.3453 34.5452 64.9171 32.7942 63.1493C31.0432 61.3815 29.6285 59.2741 28.6689 56.927C27.7489 54.6698 27.2345 52.1929 27.2345 49.5962C27.2345 46.9994 27.7489 44.5225 28.6689 42.2653C29.6285 39.9283 31.0432 37.8209 32.7942 36.0431C34.5452 34.2753 36.6425 32.8471 38.9574 31.8783C41.1931 30.9495 43.6465 30.4301 46.2186 30.4301C48.7907 30.4301 51.2441 30.9495 53.4799 31.8783ZM55.7947 16.3377C57.1006 16.7172 58.3866 17.1866 59.6529 17.726C60.9291 18.2753 62.1656 18.9045 63.3528 19.5936C64.5597 20.3028 65.727 21.0818 66.8449 21.9307C67.9628 22.7797 69.0312 23.6985 70.0303 24.6773C70.3865 25.0169 70.8317 25.2266 71.2867 25.2766C71.7517 25.3365 72.2364 25.2366 72.6519 24.9969C75.7187 23.2091 78.9536 21.4314 81.961 19.5637C82.1093 19.4838 82.2577 19.4438 82.416 19.4238C82.5941 19.4039 82.7623 19.4239 82.9304 19.4638C83.0986 19.5137 83.2668 19.5936 83.4053 19.6935C83.5339 19.7934 83.6526 19.9332 83.7416 20.083C85.9774 23.5088 88.2329 27.9233 90.3005 31.5487C90.3895 31.7085 90.439 31.8683 90.4588 32.0381C90.4786 32.2079 90.4588 32.3977 90.4192 32.5774C90.3698 32.7472 90.3005 32.907 90.1917 33.0469C90.0928 33.1867 89.9641 33.2965 89.8059 33.3864C87.0458 35.2341 83.4844 37.0818 80.5562 38.7897C80.1308 39.0394 79.8142 39.4089 79.6362 39.8384C79.5768 39.9882 79.5273 40.138 79.4977 40.2978L79.3097 40.3577L79.5273 41.2266C79.6955 41.9158 79.8439 42.5949 79.9626 43.2841C80.0813 43.9433 80.1902 44.6424 80.2792 45.3715C80.3682 46.0806 80.4276 46.7797 80.4671 47.4688C80.5067 48.148 80.5265 48.8571 80.5265 49.5962C80.5265 50.3353 80.5067 51.0444 80.4671 51.7135C80.4276 52.4027 80.3583 53.1118 80.2792 53.8209C80.1902 54.54 80.0912 55.2392 79.9626 55.9083C79.8439 56.5875 79.6955 57.2766 79.5273 57.9657C79.3987 58.4751 79.468 58.9845 79.6658 59.4239C79.8637 59.8634 80.2099 60.2329 80.6551 60.4626L88.8463 65.2367L89.8158 65.806C89.974 65.8959 90.1027 66.0157 90.2016 66.1455C90.3104 66.2854 90.3895 66.4452 90.4291 66.615C90.4786 66.7947 90.4885 66.9745 90.4687 67.1543C90.4489 67.3241 90.3895 67.4839 90.3104 67.6437L84.2462 78.2604L83.7515 79.1193C83.6625 79.2791 83.5438 79.409 83.4152 79.5089C83.2767 79.6187 83.1184 79.6986 82.9403 79.7386C82.7623 79.7885 82.5842 79.7985 82.416 79.7785C82.2577 79.7585 82.0896 79.6986 81.9313 79.6187C78.9931 77.751 75.689 75.9833 72.6519 74.2155C72.2166 73.9658 71.7418 73.8759 71.2966 73.9358C70.8317 73.9957 70.3865 74.1955 70.0402 74.5351C69.0411 75.5138 67.9727 76.4327 66.8548 77.2816C65.7369 78.1306 64.5795 78.9096 63.3726 79.6187C62.1755 80.3178 60.9291 80.9471 59.643 81.4964C58.3767 82.0357 57.0709 82.5051 55.7156 82.8946C55.2408 83.0345 54.845 83.3141 54.5681 83.6936C54.2911 84.0732 54.1229 84.5426 54.1229 85.032V95.8285C54.1229 96.0083 54.0833 96.1781 54.024 96.3379C53.9547 96.4977 53.8558 96.6475 53.7272 96.7773C53.6085 96.9072 53.4601 97.007 53.2919 97.0669C53.1435 97.1269 52.9654 97.1668 52.7874 97.1668H39.6696C39.4916 97.1668 39.3234 97.1269 39.1651 97.0669C39.0068 96.997 38.8584 96.8972 38.7298 96.7773C38.6111 96.6475 38.5023 96.4977 38.4429 96.3379C38.3836 96.1781 38.344 96.0083 38.344 95.8285V85.032C38.344 84.5226 38.1659 84.0432 37.8692 83.6637C37.5625 83.2742 37.1371 82.9945 36.6524 82.8747C35.3465 82.4951 34.0605 82.0257 32.7942 81.4864C31.518 80.9371 30.2815 80.3079 29.0943 79.6187C27.8874 78.9096 26.7201 78.1306 25.6121 77.2816C24.4942 76.4327 23.4258 75.5138 22.4266 74.5351C22.0507 74.1755 21.5858 73.9758 21.1109 73.9258C20.6262 73.8859 20.1216 73.9957 19.7061 74.2854L10.5554 79.6187C10.407 79.7086 10.2388 79.7585 10.0706 79.7785C9.90247 79.7985 9.71451 79.7785 9.54634 79.7386C9.37816 79.6887 9.20998 79.6087 9.07149 79.5089C8.94288 79.409 8.82417 79.2691 8.73513 79.1193C6.55874 75.2941 4.35266 71.4789 2.17627 67.6537C2.08723 67.5039 2.03777 67.334 2.00809 67.1643C1.98831 66.9945 2.00809 66.8147 2.04766 66.6349C2.09713 66.4651 2.17627 66.2954 2.2752 66.1555C2.37412 66.0157 2.50273 65.9059 2.65112 65.816L11.9107 60.4127C12.3361 60.163 12.6526 59.7935 12.8307 59.364C12.8802 59.2441 12.9197 59.1243 12.9494 59.0045L13.1869 58.9545L12.9395 57.9657C12.7714 57.2766 12.623 56.5975 12.5043 55.9183C12.3855 55.2591 12.2767 54.56 12.1877 53.8309C12.0987 53.1218 12.0393 52.4227 11.9997 51.7235C11.9602 51.0444 11.9404 50.3353 11.9404 49.6062C11.9404 48.8771 11.9602 48.158 11.9997 47.4788C12.0393 46.7897 12.1085 46.0806 12.1877 45.3814C12.2767 44.6524 12.3855 43.9532 12.5043 43.2941C12.6329 42.6149 12.7714 41.9258 12.9395 41.2466C13.0681 40.7373 12.9989 40.2279 12.801 39.7884C12.5933 39.349 12.2569 38.9795 11.8118 38.7597L2.64123 33.4164C2.49284 33.3265 2.36423 33.2166 2.25541 33.0768C2.15648 32.937 2.07734 32.7772 2.02788 32.5974C1.97841 32.4176 1.96852 32.2379 1.98831 32.0681C2.00809 31.8983 2.06745 31.7285 2.15648 31.5787C4.39224 28.2129 6.63788 23.7285 8.71535 20.113C8.80438 19.9532 8.92309 19.8233 9.0517 19.7235C9.1902 19.6136 9.34848 19.5337 9.52655 19.4938C9.70462 19.4438 9.88269 19.4338 10.0509 19.4538C10.2091 19.4738 10.3773 19.5337 10.5356 19.6236L19.8051 25.0269C20.2404 25.2865 20.735 25.3664 21.1901 25.3065C21.655 25.2366 22.1002 25.0268 22.4464 24.6873C23.4555 23.7085 24.514 22.7996 25.622 21.9507C26.7201 21.1117 27.8874 20.3427 29.0943 19.6336C30.2913 18.9344 31.5378 18.3052 32.8239 17.7559C34.0901 17.2166 35.396 16.7472 36.7513 16.3577C37.2261 16.2178 37.6218 15.9382 37.8988 15.5587C38.1857 15.1791 38.344 14.7097 38.344 14.2203V3.42382C38.344 3.24405 38.3836 3.07425 38.4429 2.91445C38.5122 2.75465 38.6111 2.60483 38.7397 2.47499C38.8584 2.34516 39.0068 2.24527 39.175 2.18535C39.3234 2.12542 39.5015 2.08549 39.6795 2.08549H52.7973C52.9753 2.08549 53.1435 2.12542 53.3018 2.18535C53.4601 2.25526 53.6085 2.35514 53.7371 2.47499C53.9745 2.72468 54.1229 3.05428 54.1229 3.42382V14.2203C54.1229 14.7397 54.3009 15.2091 54.5977 15.5886C54.9044 15.9781 55.3298 16.2578 55.8145 16.3777L55.7947 16.3377ZM60.4047 15.9282C61.7502 16.5075 63.056 17.1667 64.3223 17.9058C65.6083 18.6548 66.835 19.4838 68.0122 20.3727C69.1895 21.2716 70.3073 22.2403 71.3758 23.2691C71.4153 23.309 71.4648 23.329 71.5241 23.339C71.5835 23.339 71.633 23.339 71.6824 23.309C74.7986 21.4913 77.9148 19.6835 81.031 17.8558C81.3971 17.656 81.8027 17.5262 82.1984 17.4863C82.6139 17.4363 83.0294 17.4663 83.4251 17.5761C83.8307 17.686 84.2264 17.8758 84.5726 18.1454C84.8991 18.3951 85.1959 18.7247 85.4135 19.1042C87.669 22.7996 89.8158 26.7946 91.9724 30.5699C92.19 30.9595 92.3285 31.3689 92.378 31.7884C92.4373 32.2279 92.3978 32.6573 92.2889 33.0768C92.1801 33.4863 91.9922 33.8858 91.7251 34.2353C91.4678 34.5749 91.1513 34.8646 90.7754 35.0843C87.7977 36.942 84.5627 38.7098 81.5158 40.4876C81.4663 40.5175 81.4268 40.5575 81.407 40.6074C81.3872 40.6573 81.3773 40.7173 81.3971 40.7772L81.6147 41.6461H81.6048C81.6938 42.0756 81.7829 42.505 81.862 42.9445C82.0005 43.6935 82.1093 44.4326 82.1984 45.1517C82.2874 45.8708 82.3468 46.6099 82.3962 47.369C82.4457 48.128 82.4655 48.8771 82.4655 49.6062C82.4655 50.3353 82.4457 51.0843 82.3962 51.8434C82.3468 52.6024 82.2874 53.3415 82.1984 54.0606C82.1093 54.7797 82.0005 55.5188 81.862 56.2679C81.7235 57.007 81.5751 57.736 81.3971 58.4352C81.3872 58.4951 81.3971 58.555 81.4169 58.605C81.4465 58.6649 81.4861 58.7048 81.5356 58.7348C84.9387 60.5725 88.3912 62.7298 91.7547 64.6874L91.636 64.8372L91.7349 64.967C92.0021 65.3166 92.19 65.7061 92.2988 66.1256C92.4077 66.5351 92.4373 66.9745 92.3879 67.4139C92.3384 67.8334 92.1999 68.2529 91.9823 68.6324L84.9288 80.9571L84.8002 80.8772C84.7309 80.9471 84.6617 81.007 84.5825 81.0569C84.2363 81.3266 83.8505 81.5164 83.435 81.6262C83.0294 81.7361 82.5941 81.7661 82.1687 81.7061C81.7631 81.6562 81.3674 81.5264 80.9915 81.3166C77.9049 79.6687 74.7294 77.6712 71.6824 75.8934C71.633 75.8734 71.5835 75.8634 71.5241 75.8634C71.4648 75.8634 71.4153 75.8934 71.3758 75.9333C70.3172 76.962 69.1895 77.9308 68.0122 78.8297C66.8449 79.7186 65.6083 80.5476 64.3321 81.2867C63.0659 82.0257 61.7502 82.6949 60.3949 83.2742C59.0494 83.8534 57.6645 84.3528 56.2399 84.7623C56.1806 84.7823 56.141 84.8123 56.1014 84.8522C56.0618 84.9021 56.0421 84.9621 56.052 85.012V95.8085C56.052 96.248 55.9629 96.6774 55.8046 97.0669C55.6365 97.4764 55.399 97.836 55.0924 98.1356C54.7956 98.4352 54.4296 98.6849 54.0338 98.8547C53.648 99.0145 53.2226 99.1044 52.7874 99.1044H39.6696C39.2344 99.1044 38.809 99.0145 38.4231 98.8547C38.0274 98.6849 37.6713 98.4452 37.3646 98.1356C37.0678 97.836 36.8205 97.4764 36.6524 97.0669C36.4941 96.6774 36.405 96.248 36.405 95.8085V85.012C36.405 84.9521 36.3853 84.8922 36.3556 84.8522C36.3259 84.8123 36.2665 84.7723 36.2072 84.7623L36.1676 84.7423C34.7431 84.3229 33.368 83.8335 32.0424 83.2642C30.6969 82.6849 29.3812 82.0257 28.1248 81.2867C26.8388 80.5376 25.6121 79.7186 24.4448 78.8297C23.2675 77.9308 22.1496 76.962 21.0812 75.9333C21.0417 75.8934 20.9823 75.8634 20.9328 75.8634C20.8735 75.8634 20.8141 75.8634 20.7647 75.9034L11.5051 81.3066C11.1292 81.5263 10.7137 81.6662 10.2982 81.7161C9.87279 81.776 9.43752 81.7361 9.03191 81.6262C8.62631 81.5164 8.23061 81.3266 7.88436 81.0569C7.5579 80.8072 7.28091 80.4976 7.06327 80.1181C4.62966 76.163 2.33455 71.8384 0.00976562 67.7835L0.138371 67.7036C0.118585 67.6037 0.0988 67.4939 0.0790146 67.394C0.029551 66.9645 0.0592292 66.5251 0.168049 66.1156C0.276869 65.7061 0.46483 65.3066 0.731933 64.957C0.989144 64.6174 1.30571 64.3278 1.68163 64.1081L10.9412 58.7048C10.9412 58.7048 11.0203 58.6349 11.05 58.585C11.0698 58.535 11.0797 58.4751 11.0698 58.4152L10.8324 57.4264H10.8423C10.7631 57.0369 10.684 56.6474 10.6049 56.2479C10.4664 55.4988 10.3575 54.7598 10.2685 54.0406C10.1795 53.3215 10.1201 52.5825 10.0706 51.8234C10.0212 51.0644 10.0014 50.3153 10.0014 49.5862C10.0014 48.8571 10.0212 48.108 10.0706 47.349C10.1201 46.5899 10.1795 45.8509 10.2685 45.1218C10.3575 44.4127 10.4664 43.6736 10.6049 42.9145C10.7434 42.1754 10.8917 41.4464 11.0698 40.7472C11.0797 40.6873 11.0698 40.6274 11.05 40.5774C11.0302 40.5275 10.9808 40.4776 10.9313 40.4576L1.68163 35.0643C1.29582 34.8446 0.979251 34.555 0.731933 34.2154C0.46483 33.8658 0.276869 33.4763 0.168049 33.0668C0.0592292 32.6573 0.029551 32.2179 0.0790146 31.7884C0.128478 31.3789 0.257083 30.9794 0.474723 30.5999C2.6808 26.475 5.20344 22.3202 7.53812 18.2453L7.66672 18.3252C7.73597 18.2553 7.81511 18.1954 7.88436 18.1354C8.23061 17.8658 8.61642 17.676 9.03191 17.5662C9.43752 17.4563 9.87279 17.4263 10.2982 17.4763C10.7137 17.5262 11.1292 17.666 11.5051 17.8758L12.1877 18.2753L20.7746 23.289C20.824 23.319 20.8834 23.329 20.9427 23.319C21.0021 23.319 21.0516 23.289 21.0911 23.2491L21.1109 23.2291C22.1595 22.2104 23.2873 21.2416 24.4645 20.3427C25.6418 19.4538 26.8586 18.6348 28.1248 17.8858C29.3911 17.1467 30.7068 16.4875 32.0621 15.8982C33.4075 15.319 34.7925 14.8196 36.2072 14.4101C36.2665 14.3901 36.3061 14.3602 36.3457 14.3202C36.3853 14.2703 36.405 14.2203 36.3951 14.1604V3.3639C36.3951 2.92445 36.4842 2.49497 36.6425 2.10546C36.8106 1.69597 37.0481 1.33641 37.3547 1.03679C37.6515 0.737159 38.0176 0.48747 38.4133 0.317682C38.7991 0.157881 39.2245 0.0679932 39.6597 0.0679932H52.7775C53.2127 0.0679932 53.6381 0.157881 54.024 0.317682C54.4197 0.48747 54.7758 0.727172 55.0825 1.03679C55.676 1.63604 56.0421 2.45503 56.0421 3.3639V14.1604C56.0421 14.2203 56.0618 14.2803 56.0915 14.3202C56.1212 14.3602 56.1806 14.4001 56.2399 14.4101L56.2795 14.4301C57.704 14.8396 59.0791 15.339 60.4047 15.9082V15.9282Z" fill="#7775B7"/>
</svg>
