<svg width="6" height="6" viewBox="0 0 6 6" fill="none" xmlns="http://www.w3.org/2000/svg">
<path fill-rule="evenodd" clip-rule="evenodd" d="M0.7988 1.99304C1.10851 1.75671 1.44402 1.52038 1.78599 1.29062C2.86996 0.896734 4.89594 0.378114 5.37986 0.259949C5.37986 0.535668 5.29599 0.831091 5.10888 1.10025C5.10888 1.10025 5.41858 2.0193 4.32171 2.84646C4.27009 2.88585 4.21846 2.9318 4.1733 2.97119C4.12168 3.03027 4.07006 3.08279 4.03135 3.13531C3.77326 3.44385 3.2571 4.16598 3.03772 5.15069C2.71511 5.15726 2.41185 5.08504 2.24409 4.88153C1.94729 4.52704 1.04397 3.68675 0.424561 2.98432C0.514892 2.63639 0.637488 2.27532 0.811698 1.99304H0.7988Z" fill="#F4AC83"/>
</svg>
