<svg width="14" height="15" viewBox="0 0 14 15" fill="none" xmlns="http://www.w3.org/2000/svg">
<path fill-rule="evenodd" clip-rule="evenodd" d="M5.84832 2.38413C5.84832 1.53519 6.5309 0.846069 7.37178 0.846069C8.21266 0.846069 8.89523 1.53519 8.89523 2.38413V5.99964H12.4764C13.3173 5.99964 13.9999 6.68876 13.9999 7.5377C13.9999 8.38664 13.3173 9.07579 12.4764 9.07579H8.89523V12.6913C8.89523 13.5402 8.21266 14.2294 7.37178 14.2294C6.5309 14.2294 5.84832 13.5402 5.84832 12.6913V9.07579H2.26717C1.42629 9.07579 0.743652 8.38664 0.743652 7.5377C0.743652 6.68876 1.42629 5.99964 2.26717 5.99964H5.84832V2.38413Z" fill="#7775B7"/>
</svg>
