<svg width="10" height="10" viewBox="0 0 10 10" fill="none" xmlns="http://www.w3.org/2000/svg">
<path fill-rule="evenodd" clip-rule="evenodd" d="M3.94468 1.89528C3.94468 1.33728 4.38991 0.884308 4.93835 0.884308C5.48679 0.884308 5.93198 1.33728 5.93198 1.89528V4.27172H8.26768C8.81612 4.27172 9.26131 4.72469 9.26131 5.28269C9.26131 5.8407 8.81612 6.29367 8.26768 6.29367H5.93198V8.6701C5.93198 9.22811 5.48679 9.68108 4.93835 9.68108C4.38991 9.68108 3.94468 9.22811 3.94468 8.6701V6.29367H1.60898C1.06055 6.29367 0.615356 5.8407 0.615356 5.28269C0.615356 4.72469 1.06055 4.27172 1.60898 4.27172H3.94468V1.89528Z" fill="#C0CDE9"/>
</svg>
