<svg width="73" height="122" viewBox="0 0 73 122" fill="none" xmlns="http://www.w3.org/2000/svg">
<path fill-rule="evenodd" clip-rule="evenodd" d="M57.6524 112.459C54.9912 117.563 43.763 120.229 34.9684 121.008C32.8612 121.198 30.8926 121.278 29.2207 121.248C28.1028 121.228 27.0938 121.088 26.1936 120.829C16.7559 119.98 9.84092 117.153 5.70577 114.946C3.16335 114.497 1.82783 113.458 1.22438 112.1C0.245 109.882 1.18479 106.816 1.9762 104.08C3.39086 99.1557 9.24737 89.8673 10.2564 66.077C11.2655 42.2867 10.1674 1.42769 33.0294 0.638672C33.0294 0.638672 32.7425 1.19797 32.2776 2.22669L33.2174 2.35653C33.2174 2.35653 30.3979 9.34779 34.3748 12.1143C38.3517 14.8809 43.3277 11.9945 45.6327 9.43769C45.9691 9.06815 46.3252 8.92832 46.711 8.96827C48.3334 7.07064 50.1141 5.16301 52.0531 3.2454C56.7521 4.54378 63.9145 9.24792 63.9145 9.24792C67.5451 11.5151 71.977 15.4002 72.254 19.7848C72.6497 26.007 64.1618 46.7511 58.9087 59.7549C50.1339 81.5277 62.1634 103.86 57.6722 112.469L57.6524 112.459Z" fill="white"/>
</svg>
