<svg width="14" height="15" viewBox="0 0 14 15" fill="none" xmlns="http://www.w3.org/2000/svg">
<path fill-rule="evenodd" clip-rule="evenodd" d="M5.11926 2.47168C5.11926 1.62274 5.80189 0.933594 6.64278 0.933594C7.48365 0.933594 8.16623 1.62274 8.16623 2.47168V6.08717H11.7474C12.5883 6.08717 13.2708 6.77631 13.2708 7.62526C13.2708 8.4742 12.5883 9.16334 11.7474 9.16334H8.16623V12.7788C8.16623 13.6278 7.48365 14.3169 6.64278 14.3169C5.80189 14.3169 5.11926 13.6278 5.11926 12.7788V9.16334H1.5381C0.697224 9.16334 0.0146484 8.4742 0.0146484 7.62526C0.0146484 6.77631 0.697224 6.08717 1.5381 6.08717H5.11926V2.47168Z" fill="#C0CDE9"/>
</svg>
